<svg xmlns="http://www.w3.org/2000/svg" xmlns:xlink="http://www.w3.org/1999/xlink" viewBox="0 0 792 612"><defs><style>.cls-1,.cls-55,.cls-65,.cls-70{fill:none;}.cls-2,.cls-3,.cls-4,.cls-5,.cls-6,.cls-7{opacity:0.82;}.cls-2{fill:url(#linear-gradient);}.cls-3{fill:url(#linear-gradient-2);}.cls-4{fill:url(#linear-gradient-3);}.cls-5{fill:url(#linear-gradient-4);}.cls-6{fill:url(#linear-gradient-5);}.cls-7{fill:url(#linear-gradient-6);}.cls-61,.cls-8{fill:#fff;}.cls-8{opacity:0.72;}.cls-9{fill:#eef0f4;}.cls-10{fill:#33544f;}.cls-11{fill:url(#linear-gradient-7);}.cls-12{fill:url(#linear-gradient-8);}.cls-13{fill:url(#linear-gradient-9);}.cls-14{fill:url(#linear-gradient-10);}.cls-15{fill:url(#linear-gradient-11);}.cls-16{fill:url(#linear-gradient-12);}.cls-17{fill:url(#linear-gradient-13);}.cls-18{fill:url(#linear-gradient-14);}.cls-19{fill:url(#linear-gradient-15);}.cls-20{fill:url(#linear-gradient-17);}.cls-21{fill:url(#linear-gradient-18);}.cls-22{fill:url(#linear-gradient-19);}.cls-23{fill:url(#linear-gradient-20);}.cls-24{fill:url(#linear-gradient-21);}.cls-25{fill:url(#linear-gradient-22);}.cls-26{fill:url(#linear-gradient-23);}.cls-27{fill:url(#linear-gradient-25);}.cls-28{fill:url(#linear-gradient-26);}.cls-29{fill:url(#linear-gradient-27);}.cls-30{fill:url(#linear-gradient-28);}.cls-31{fill:url(#linear-gradient-30);}.cls-32{fill:url(#linear-gradient-31);}.cls-33{fill:url(#linear-gradient-32);}.cls-34{fill:url(#linear-gradient-33);}.cls-35{fill:url(#linear-gradient-34);}.cls-36{fill:url(#linear-gradient-35);}.cls-37{fill:url(#linear-gradient-36);}.cls-38{fill:url(#linear-gradient-37);}.cls-39{fill:url(#linear-gradient-38);}.cls-40{fill:url(#linear-gradient-39);}.cls-41{fill:url(#linear-gradient-40);}.cls-42{fill:url(#linear-gradient-41);}.cls-43{fill:url(#linear-gradient-42);}.cls-44{fill:url(#linear-gradient-43);}.cls-45,.cls-47{fill:#64c8d0;}.cls-45{stroke:#64c8d0;stroke-width:1.03px;}.cls-45,.cls-55,.cls-65,.cls-70{stroke-miterlimit:10;}.cls-46{fill:#b1e0e5;}.cls-48{fill:#48c2c9;}.cls-49{fill:#364d89;}.cls-50,.cls-54{opacity:0.5;}.cls-51{fill:#3d3d3d;}.cls-52{fill:#983b5f;}.cls-53{fill:#ededed;}.cls-54{fill:#a9a8cc;}.cls-55,.cls-65,.cls-70{stroke:#231f20;}.cls-55{stroke-width:0.41px;}.cls-56{fill:#0d0d0d;}.cls-57{fill:url(#linear-gradient-44);}.cls-58{fill:#5f262c;}.cls-59{fill:url(#linear-gradient-45);}.cls-60{fill:#9394a3;}.cls-62{fill:#72708e;}.cls-63{fill:url(#linear-gradient-46);}.cls-64{fill:#231f20;}.cls-65{stroke-width:1.13px;}.cls-66{fill:url(#linear-gradient-47);}.cls-67{fill:url(#linear-gradient-48);}.cls-68{fill:url(#linear-gradient-49);}.cls-69{opacity:0.48;fill:url(#linear-gradient-50);}.cls-70{stroke-width:0.77px;}.cls-71{fill:url(#linear-gradient-51);}.cls-72{fill:url(#linear-gradient-52);}.cls-73{fill:url(#linear-gradient-53);}</style><linearGradient id="linear-gradient" x1="-34.56" y1="60.37" x2="211.24" y2="202.28" gradientUnits="userSpaceOnUse"><stop offset="0" stop-color="#cebca5" stop-opacity="0.43"/><stop offset="0" stop-color="#ccbca6" stop-opacity="0.44"/><stop offset="0" stop-color="#c4bba9" stop-opacity="0.47"/><stop offset="0" stop-color="#b6b9ae" stop-opacity="0.51"/><stop offset="0" stop-color="#a2b7b5" stop-opacity="0.58"/><stop offset="0" stop-color="#88b4be" stop-opacity="0.67"/><stop offset="0" stop-color="#69b1c9" stop-opacity="0.78"/><stop offset="0" stop-color="#44add7" stop-opacity="0.9"/><stop offset="0" stop-color="#27aae1"/><stop offset="0.11" stop-color="#2f99d6"/><stop offset="0.53" stop-color="#4d5fb1"/><stop offset="0.84" stop-color="#5f3b9a"/><stop offset="1" stop-color="#662d91"/></linearGradient><linearGradient id="linear-gradient-2" x1="493.35" y1="-42.78" x2="796.9" y2="132.47" xlink:href="#linear-gradient"/><linearGradient id="linear-gradient-3" x1="262.36" y1="-25.81" x2="815.84" y2="293.74" xlink:href="#linear-gradient"/><linearGradient id="linear-gradient-4" x1="128.72" y1="4.42" x2="723.57" y2="347.86" xlink:href="#linear-gradient"/><linearGradient id="linear-gradient-5" x1="61.62" y1="132.17" x2="413.51" y2="335.34" xlink:href="#linear-gradient"/><linearGradient id="linear-gradient-6" x1="83.58" y1="84.46" x2="678.72" y2="428.07" xlink:href="#linear-gradient"/><linearGradient id="linear-gradient-7" x1="52.73" y1="304.87" x2="699.21" y2="678.11" gradientUnits="userSpaceOnUse"><stop offset="0" stop-color="#cebca5" stop-opacity="0.43"/><stop offset="0" stop-color="#c9baa4" stop-opacity="0.45"/><stop offset="0" stop-color="#b9b4a1" stop-opacity="0.52"/><stop offset="0" stop-color="#9da99b" stop-opacity="0.63"/><stop offset="0" stop-color="#759b92" stop-opacity="0.79"/><stop offset="0" stop-color="#428787"/><stop offset="0" stop-color="#418787"/><stop offset="0.09" stop-color="#3f8181"/><stop offset="0.68" stop-color="#36615d"/><stop offset="1" stop-color="#33544f"/></linearGradient><linearGradient id="linear-gradient-8" x1="172.14" y1="233.44" x2="484.26" y2="233.44" gradientUnits="userSpaceOnUse"><stop offset="0" stop-color="#cebca5" stop-opacity="0.43"/><stop offset="0" stop-color="#cfbda6" stop-opacity="0.44"/><stop offset="0" stop-color="#d1bfaa" stop-opacity="0.46"/><stop offset="0" stop-color="#d4c4b0" stop-opacity="0.5"/><stop offset="0" stop-color="#d9cbb9" stop-opacity="0.56"/><stop offset="0" stop-color="#dfd3c4" stop-opacity="0.63"/><stop offset="0" stop-color="#e7ded3" stop-opacity="0.72"/><stop offset="0" stop-color="#f0ebe4" stop-opacity="0.83"/><stop offset="0" stop-color="#fbf9f7" stop-opacity="0.95"/><stop offset="0" stop-color="#fff"/><stop offset="0.63" stop-color="#dfe4e7"/><stop offset="1" stop-color="#d1d8dd"/></linearGradient><linearGradient id="linear-gradient-9" x1="132.24" y1="167.15" x2="778.72" y2="540.39" xlink:href="#linear-gradient-7"/><linearGradient id="linear-gradient-10" x1="170.02" y1="251.1" x2="484.26" y2="251.1" xlink:href="#linear-gradient-8"/><linearGradient id="linear-gradient-11" x1="166.27" y1="108.22" x2="812.74" y2="481.46" xlink:href="#linear-gradient-7"/><linearGradient id="linear-gradient-12" x1="166.27" y1="108.22" x2="812.74" y2="481.46" xlink:href="#linear-gradient-7"/><linearGradient id="linear-gradient-13" x1="172.14" y1="274.39" x2="484.26" y2="274.39" xlink:href="#linear-gradient-8"/><linearGradient id="linear-gradient-14" x1="172.14" y1="257.56" x2="484.26" y2="257.56" xlink:href="#linear-gradient-8"/><linearGradient id="linear-gradient-15" x1="167.86" y1="105.45" x2="814.34" y2="478.7" xlink:href="#linear-gradient-7"/><linearGradient id="linear-gradient-17" x1="382.74" y1="331.44" x2="794.7" y2="331.44" xlink:href="#linear-gradient-7"/><linearGradient id="linear-gradient-18" x1="154.28" y1="128.99" x2="800.75" y2="502.23" xlink:href="#linear-gradient-7"/><linearGradient id="linear-gradient-19" x1="382.74" y1="401.09" x2="794.7" y2="401.09" xlink:href="#linear-gradient-7"/><linearGradient id="linear-gradient-20" x1="167.12" y1="106.73" x2="813.6" y2="479.98" xlink:href="#linear-gradient-7"/><linearGradient id="linear-gradient-21" x1="172.14" y1="265.36" x2="484.26" y2="265.36" xlink:href="#linear-gradient-8"/><linearGradient id="linear-gradient-22" x1="382.74" y1="265.36" x2="794.7" y2="265.36" xlink:href="#linear-gradient-7"/><linearGradient id="linear-gradient-23" x1="166.6" y1="107.64" x2="813.07" y2="480.89" xlink:href="#linear-gradient-7"/><linearGradient id="linear-gradient-25" x1="172.14" y1="270.91" x2="484.26" y2="270.91" xlink:href="#linear-gradient-8"/><linearGradient id="linear-gradient-26" x1="382.74" y1="270.91" x2="794.7" y2="270.91" xlink:href="#linear-gradient-7"/><linearGradient id="linear-gradient-27" x1="172.14" y1="260.44" x2="484.26" y2="260.44" xlink:href="#linear-gradient-8"/><linearGradient id="linear-gradient-28" x1="167.59" y1="105.93" x2="814.06" y2="479.17" xlink:href="#linear-gradient-7"/><linearGradient id="linear-gradient-30" x1="382.74" y1="260.44" x2="794.7" y2="260.44" xlink:href="#linear-gradient-7"/><linearGradient id="linear-gradient-31" x1="432.61" y1="154.63" x2="599.04" y2="250.72" xlink:href="#linear-gradient-8"/><linearGradient id="linear-gradient-32" x1="12.8" y1="514.21" x2="29.43" y2="543.01" gradientUnits="userSpaceOnUse"><stop offset="0" stop-color="#cebca5" stop-opacity="0.43"/><stop offset="0" stop-color="#c9bba5" stop-opacity="0.44"/><stop offset="0" stop-color="#b8baa4" stop-opacity="0.49"/><stop offset="0" stop-color="#9ab7a3" stop-opacity="0.57"/><stop offset="0" stop-color="#70b2a1" stop-opacity="0.69"/><stop offset="0" stop-color="#39ad9f" stop-opacity="0.84"/><stop offset="0" stop-color="#00a79d"/><stop offset="0.33" stop-color="#28aadd"/><stop offset="0.37" stop-color="#22aad4"/><stop offset="0.58" stop-color="#09a8b0"/><stop offset="0.69" stop-color="#00a7a2"/><stop offset="0.69" stop-color="#01a7a3"/><stop offset="0.9" stop-color="#1ca9d0"/><stop offset="1" stop-color="#27aae1"/></linearGradient><linearGradient id="linear-gradient-33" x1="76.71" y1="529.91" x2="101.77" y2="573.3" xlink:href="#linear-gradient-32"/><linearGradient id="linear-gradient-34" x1="110.84" y1="536.53" x2="141.2" y2="589.13" xlink:href="#linear-gradient-32"/><linearGradient id="linear-gradient-35" x1="172.78" y1="553.02" x2="197.96" y2="596.62" xlink:href="#linear-gradient-32"/><linearGradient id="linear-gradient-36" x1="235.63" y1="542.18" x2="270.79" y2="603.09" xlink:href="#linear-gradient-32"/><linearGradient id="linear-gradient-37" x1="316.05" y1="536.2" x2="354.9" y2="603.49" xlink:href="#linear-gradient-32"/><linearGradient id="linear-gradient-38" x1="397.73" y1="535.18" x2="443.47" y2="614.41" xlink:href="#linear-gradient-32"/><linearGradient id="linear-gradient-39" x1="760.77" y1="569.25" x2="787.09" y2="614.83" xlink:href="#linear-gradient-32"/><linearGradient id="linear-gradient-40" x1="686.38" y1="546.04" x2="729.3" y2="620.38" xlink:href="#linear-gradient-32"/><linearGradient id="linear-gradient-41" x1="593.58" y1="528.36" x2="632.68" y2="596.08" xlink:href="#linear-gradient-32"/><linearGradient id="linear-gradient-42" x1="490.58" y1="538.35" x2="525.92" y2="599.57" xlink:href="#linear-gradient-32"/><linearGradient id="linear-gradient-43" x1="48.68" y1="525.73" x2="65.85" y2="555.47" xlink:href="#linear-gradient-32"/><linearGradient id="linear-gradient-44" x1="370.46" y1="283.77" x2="375.94" y2="283.59" gradientTransform="translate(15.92 -149.08) rotate(6.29)" gradientUnits="userSpaceOnUse"><stop offset="0" stop-color="#f6f7fa"/><stop offset="0.17" stop-color="#eff0f3"/><stop offset="0.42" stop-color="#dadbe1"/><stop offset="0.72" stop-color="#b8b9c4"/><stop offset="1" stop-color="#9394a3"/></linearGradient><linearGradient id="linear-gradient-45" x1="369.09" y1="276.72" x2="373.65" y2="276.72" gradientTransform="translate(15.92 -149.08) rotate(6.29)" gradientUnits="userSpaceOnUse"><stop offset="0" stop-color="#f6f7fa"/><stop offset="0.33" stop-color="#f5f6f9" stop-opacity="0.99"/><stop offset="0.49" stop-color="#f1f2f7" stop-opacity="0.97"/><stop offset="0.6" stop-color="#ebecf4" stop-opacity="0.93"/><stop offset="0.7" stop-color="#e3e3ef" stop-opacity="0.88"/><stop offset="0.79" stop-color="#d8d8e8" stop-opacity="0.8"/><stop offset="0.87" stop-color="#cacae0" stop-opacity="0.71"/><stop offset="0.94" stop-color="#bab9d6" stop-opacity="0.61"/><stop offset="1" stop-color="#a9a8cc" stop-opacity="0.5"/></linearGradient><linearGradient id="linear-gradient-46" x1="380.62" y1="275.17" x2="384.7" y2="282.23" gradientTransform="translate(15.92 -149.08) rotate(6.29)" gradientUnits="userSpaceOnUse"><stop offset="0" stop-color="#f6f7fa"/><stop offset="0.12" stop-color="#f2f3f8" stop-opacity="0.98"/><stop offset="0.3" stop-color="#e9e9f2" stop-opacity="0.91"/><stop offset="0.51" stop-color="#d9d9e9" stop-opacity="0.81"/><stop offset="0.76" stop-color="#c3c2db" stop-opacity="0.67"/><stop offset="1" stop-color="#a9a8cc" stop-opacity="0.5"/></linearGradient><linearGradient id="linear-gradient-47" x1="-612.67" y1="138.27" x2="-597.53" y2="137.76" gradientTransform="matrix(-1, 0, 0, 1, -483.5, 0)" xlink:href="#linear-gradient-44"/><linearGradient id="linear-gradient-48" x1="-616.46" y1="118.77" x2="-603.85" y2="118.77" gradientTransform="matrix(-1, 0, 0, 1, -483.5, 0)" xlink:href="#linear-gradient-45"/><linearGradient id="linear-gradient-49" x1="-584.58" y1="114.5" x2="-573.32" y2="134.01" gradientTransform="matrix(-1, 0, 0, 1, -483.5, 0)" xlink:href="#linear-gradient-46"/><linearGradient id="linear-gradient-50" x1="718.72" y1="557.94" x2="738.5" y2="569.36" gradientUnits="userSpaceOnUse"><stop offset="0" stop-color="#cebca5" stop-opacity="0.43"/><stop offset="0" stop-color="#cbbba8" stop-opacity="0.43"/><stop offset="0" stop-color="#c3b6b1" stop-opacity="0.45"/><stop offset="0" stop-color="#b3aec1" stop-opacity="0.48"/><stop offset="0" stop-color="#a9a8cc" stop-opacity="0.5"/><stop offset="0.2" stop-color="#a4a3c6" stop-opacity="0.55"/><stop offset="0.39" stop-color="#9493b4" stop-opacity="0.69"/><stop offset="0.57" stop-color="#7a7897" stop-opacity="0.93"/><stop offset="0.62" stop-color="#72708e"/><stop offset="0.73" stop-color="#797796" stop-opacity="0.93"/><stop offset="0.87" stop-color="#8e8dae" stop-opacity="0.74"/><stop offset="1" stop-color="#a9a8cc" stop-opacity="0.5"/></linearGradient><linearGradient id="linear-gradient-51" x1="600.67" y1="539.49" x2="611.07" y2="539.14" gradientTransform="matrix(1, 0, 0, 1, 0, 0)" xlink:href="#linear-gradient-44"/><linearGradient id="linear-gradient-52" x1="598.06" y1="526.09" x2="606.73" y2="526.09" gradientTransform="matrix(1, 0, 0, 1, 0, 0)" xlink:href="#linear-gradient-45"/><linearGradient id="linear-gradient-53" x1="619.96" y1="523.16" x2="627.71" y2="536.57" gradientTransform="matrix(1, 0, 0, 1, 0, 0)" xlink:href="#linear-gradient-46"/></defs><title>personal_icon</title><g id="Sky"><path class="cls-1" d="M.3,245c4.59-2.37,6.21-4.18,10.7-5.35C6.51,240.82,1.89,242.63.3,245Z"/><path class="cls-2" d="M11,239.65c57-16.6,120-3.11,177-22.82,4-1,8-1,12-3.11,14-3.12,9-19.72,5-31.13-6-15.56-20-29.05-38-31.12a5.88,5.88,0,0,1-1.83-1.7,59.33,59.33,0,0,0-14.75,4.17c-16.17,7.09-28.19,22.75-45,27.81-19.16,5.76-39.2-3.5-57.14-12.53-5.46-2.75-11.14-5.69-14.74-10.76-4.31-6.08-4.87-14.17-4.38-21.7,1.92-30,18.6-58.53,43.32-74.18C70.86,73.21,69.77,85.51,76.9,93.3c4,4.36,9.35,6.07,15.13,6.32-2.36-12.82.09-27.14,5-39.45,4-9.33,11-18.67,20-23.86C134.78,25,150.9,13.35,165.39,0H.3L.44,256.38C2,254,6.51,240.82,11,239.65Z"/><path class="cls-3" d="M477,0c-4.07,3.49-8.08,7-12,10.37-12,10.38-17,29.05-9,41.5a117.83,117.83,0,0,0,31.43,31.57c1.24-7.36,7.25-14.23,14.33-16.91,9.76-3.7,20.57-1.71,30.78.32l32.66,6.49-15.23-5Q574.92,61.93,600.39,58c10-1.55,20.42-2.78,30.15.15s18,9.75,27.73,12.55c9.22,2.65,19,1.48,28.56,2.14a76.17,76.17,0,0,1,44.9,18.93c2.22,2,4.52,4.51,4.28,7.52-.17,2.19-1.64,4-3.15,5.53-8.44,8.54-19.46,12.72-31.21,14.87,30.69,2.09,61.71,8.23,90.35,21.26V0Z"/><path class="cls-4" d="M543,199.19c10,2.08,18,16.6,28,21.79,30,16.6,55,36.31,83,58.1,4,3.11,11,2.07,16,6.22,19,14.53,39,22.82,59,34.24,5,3.11,12,5.18,16,7.26,15.42,5.14,31.14,7.13,47,8.24V141c-28.64-13-59.66-19.17-90.35-21.26-8.74,1.61-17.87,2.09-26.64,2.42l-111.65,4.14c-4.17.16-8.59.26-12.25-1.83-4.75-2.71-7.08-8.41-11-12.26-7-6.85-17.71-6.88-27.33-7.55S492,101,488.28,91.83a15.31,15.31,0,0,1-.85-8.39A117.83,117.83,0,0,1,456,51.87c-8-12.45-3-31.12,9-41.5C468.94,7,473,3.49,477,0H322.62C304.69,6.41,286.82,13.26,269,20.75c-9,4.15-18,10.37-28,14.52-11.73,5.22-19.94,14.8-27,24.48,18.08-3.54,35.88,12.06,54.77,14.79,9.41,1.35,19.18-.54,28.4,1.85s18.06,11.85,15,21.18a67.28,67.28,0,0,0-45.22,18.28A894.06,894.06,0,0,1,365,158.73c38,19.71,82,18.68,119,39.42,2.13,1.15,4.39,2.29,6.73,3.43C507.5,197.36,524.82,195.93,543,199.19Z"/><path class="cls-5" d="M97,60.17c-4.88,12.31-7.33,26.63-5,39.45a46.17,46.17,0,0,0,8.08-.45c6-13,22.73-15.94,36.61-14.6s28.66,5.13,41.44-.8c12-5.59,19.83-18.86,32.35-23.1a28.09,28.09,0,0,1,3.49-.92c7.06-9.68,15.27-19.26,27-24.48,10-4.15,19-10.37,28-14.52C286.82,13.26,304.69,6.41,322.62,0H165.39C150.9,13.35,134.78,25,117,36.31,108,41.5,101,50.84,97,60.17Z"/><path class="cls-6" d="M365,158.73a894.06,894.06,0,0,0-98.06-42.88c-1.25,1.17-2.48,2.38-3.64,3.65-5.47,6-10,13-16.13,18.24-21.84,18.4-54.06,7.64-82,12a5.88,5.88,0,0,0,1.83,1.7c18,2.07,32,15.56,38,31.12,4,11.41,9,28-5,31.13-4,2.07-8,2.07-12,3.11-57,19.71-120,6.22-177,22.82-4.49,1.17-6.11,3-10.7,5.35l0,22C5.84,276.9,13.87,285.12,24,287.38c38,7.26,75,16.6,112,14.52,10-1,20-8.3,31-13.49,8-2.07,16,0,25-2.07,16-4.15,29-13.49,45-17.64,40-9.34,76-14.52,116-21.79,16-3.11,33,2.08,48-5.18,29.27-14.85,58.54-32.32,89.73-40.15-2.34-1.14-4.6-2.28-6.73-3.43C447,177.41,403,178.44,365,158.73Z"/><path class="cls-7" d="M102.15,98.85c3.11-.53,6.2-1.28,9.13-2.07Z"/><path class="cls-8" d="M488.28,91.83C492,101,503.14,104,512.75,104.62s20.31.7,27.33,7.55c3.95,3.85,6.28,9.55,11,12.26,3.66,2.09,8.08,2,12.25,1.83L675,122.12c8.77-.33,17.9-.81,26.64-2.42,11.75-2.15,22.77-6.33,31.21-14.87,1.51-1.53,3-3.34,3.15-5.53.24-3-2.06-5.55-4.28-7.52a76.17,76.17,0,0,0-44.9-18.93c-9.55-.66-19.34.51-28.56-2.14-9.74-2.8-18-9.63-27.73-12.55s-20.13-1.7-30.15-.15Q574.95,61.94,550,68.37l15.23,5-32.66-6.49c-10.21-2-21-4-30.78-.32-7.08,2.68-13.09,9.55-14.33,16.91A15.31,15.31,0,0,0,488.28,91.83Z"/><path class="cls-9" d="M178.16,83.77c-12.78,5.93-27.5,2.15-41.44.8s-30.57,1.61-36.61,14.6a46.17,46.17,0,0,1-8.08.45c-5.78-.25-11.14-2-15.13-6.32-7.13-7.79-6-20.09-4.47-30.72C47.71,78.23,31,106.79,29.11,136.76c-.49,7.53.07,15.62,4.38,21.7,3.6,5.07,9.28,8,14.74,10.76,17.94,9,38,18.29,57.14,12.53,16.86-5.06,28.88-20.72,45-27.81a59.33,59.33,0,0,1,14.75-4.17c27.94-4.39,60.16,6.37,82-12,6.18-5.21,10.66-12.24,16.13-18.24,1.16-1.27,2.39-2.48,3.64-3.65a67.28,67.28,0,0,1,45.22-18.28c3.07-9.33-5.77-18.78-15-21.18s-19-.5-28.4-1.85C249.88,71.81,232.08,56.21,214,59.75a28.09,28.09,0,0,0-3.49.92C198,64.91,190.18,78.18,178.16,83.77Zm-66.88,13c-2.93.79-6,1.54-9.13,2.07Z"/></g><g id="Mountains"><g id="Mountains-2" data-name="Mountains"><polygon class="cls-10" points="0.3 248.76 53.6 270.65 87.85 259.71 108.79 270.65 150.66 270.65 175.14 280.75 0.3 400.06 0.3 248.76"/><polygon class="cls-1" points="429.69 256.36 382.74 221.67 428.74 255.66 429.69 256.36"/><polygon class="cls-1" points="461.83 280.11 458.03 277.3 458.33 277.52 461.83 280.11"/><polygon class="cls-11" points="458.33 277.52 484.26 296.68 415.03 263.49 393.3 287.36 334.28 268.45 270.4 259.76 172.14 278.42 278.97 205.52 0.3 395.69 0.05 535.98 789.3 522.07 461.83 280.11 458.33 277.52"/><polygon class="cls-12" points="428.74 255.66 382.74 221.67 361.44 211.23 420.66 249.69 428.74 255.66"/><polygon class="cls-13" points="270.4 259.76 334.28 268.45 393.3 287.36 415.03 263.49 484.26 296.68 458.33 277.52 450.39 271.66 449.86 271.26 433.88 259.46 433.23 258.97 428.74 255.66 420.66 249.69 361.44 211.23 337.96 215.04 278.97 205.52 172.14 278.42 270.4 259.76"/><polygon class="cls-14" points="270.4 259.76 334.28 268.45 393.3 287.36 415.03 263.49 484.26 296.68 458.33 277.52 450.39 271.66 449.86 271.26 433.88 259.46 433.23 258.97 428.74 255.66 420.66 249.69 361.44 211.23 337.96 215.04 278.97 205.52 170.02 280.16 270.4 259.76"/><polygon class="cls-15" points="450.39 271.66 458.33 277.52 458.03 277.3 449.86 271.26 450.39 271.66"/><polygon class="cls-16" points="450.39 271.66 458.33 277.52 458.03 277.3 449.86 271.26 450.39 271.66"/><polygon class="cls-17" points="450.39 271.66 458.33 277.52 458.03 277.3 449.86 271.26 450.39 271.66"/><polygon class="cls-18" points="433.23 258.97 433.88 259.46 429.69 256.36 428.74 255.66 433.23 258.97"/><polygon class="cls-19" points="433.23 258.97 433.88 259.46 429.69 256.36 428.74 255.66 433.23 258.97"/><polygon class="cls-18" points="433.23 258.97 433.88 259.46 429.69 256.36 428.74 255.66 433.23 258.97"/><polygon class="cls-20" points="779.48 316.85 657.68 232.17 632.94 237.88 615.81 221.67 592.98 221.67 564.43 181.24 513.05 140.82 507.34 168.41 428.36 210.74 406.52 199.81 382.74 221.67 429.69 256.36 440.75 264.53 458.03 277.3 461.83 280.11 505.49 312.37 522.47 324.91 536.65 335.39 566.11 357.16 789.3 522.07 794.7 312.1 779.48 316.85"/><polygon class="cls-21" points="536.65 335.39 522.47 324.91 505.49 312.37 461.83 280.11 789.3 522.07 566.11 357.16 536.65 335.39"/><polygon class="cls-22" points="536.65 335.39 522.47 324.91 505.49 312.37 461.83 280.11 789.3 522.07 566.11 357.16 536.65 335.39"/><polygon class="cls-23" points="449.86 271.26 440.75 264.53 433.88 259.46 449.86 271.26"/><polygon class="cls-24" points="449.86 271.26 440.75 264.53 433.88 259.46 449.86 271.26"/><polygon class="cls-25" points="449.86 271.26 440.75 264.53 433.88 259.46 449.86 271.26"/><polygon class="cls-26" points="458.03 277.3 440.75 264.53 449.86 271.26 458.03 277.3"/><polygon class="cls-26" points="458.03 277.3 440.75 264.53 449.86 271.26 458.03 277.3"/><polygon class="cls-27" points="458.03 277.3 440.75 264.53 449.86 271.26 458.03 277.3"/><polygon class="cls-28" points="458.03 277.3 440.75 264.53 449.86 271.26 458.03 277.3"/><polygon class="cls-29" points="440.75 264.53 429.69 256.36 433.88 259.46 440.75 264.53"/><polygon class="cls-30" points="440.75 264.53 429.69 256.36 433.88 259.46 440.75 264.53"/><polygon class="cls-29" points="440.75 264.53 429.69 256.36 433.88 259.46 440.75 264.53"/><polygon class="cls-31" points="440.75 264.53 429.69 256.36 433.88 259.46 440.75 264.53"/><polygon class="cls-32" points="406.52 199.81 448.34 191.25 476.25 171.27 507.34 168.41 513.05 140.82 564.43 181.24 592.98 221.67 615.81 221.67 565.38 241.68 533.03 213.14 475.62 235.97 406.52 199.81"/></g></g><g id="River"><g id="River-2" data-name="River"><path class="cls-33" d="M54.68,522.27,0,521.6l.05,35C23.76,546.74,42.29,538.3,54.68,522.27Z"/><path class="cls-34" d="M190.15,522.27h-66.8c-26.95,10-49.2,23.46-76.35,33.81-16.89,6.31-32.06,10-47,18.12v27c1.32-2.75,1.46-1.64,5-3.14,63-24.78,118-47,181-73.71A44.4,44.4,0,0,0,190.15,522.27Z"/><path class="cls-35" d="M190.15,522.27a44.4,44.4,0,0,1-4.15,2C123,551,68,573.24,5,598c-3.54,1.5-2.34.8-5,3.14V612H71.91c13-10.87,36.85-15.73,56.09-23.51V586c6-1.91,13-1.91,20-2.54a11.65,11.65,0,0,0,7-3.18c11-12.07,18-25.42,38-31.77,22.77-7.8,44.78-15.1,64-26.19Z"/><path class="cls-36" d="M233,546.55a23.61,23.61,0,0,1,11-8.9c15.22-5,30.44-10.5,46-15.38H257c-19.23,11.09-41.24,18.39-64,26.19-20,6.35-27,19.7-38,31.77a11.65,11.65,0,0,1-7,3.18c-7,.63-14,.63-20,2.54v2.54c-19.24,7.78-43.06,12.64-56.09,23.51h87c23.61-10.15,53.58-17.89,65.1-35.58C229,567.52,225,556.08,233,546.55Z"/><path class="cls-37" d="M325,534.48c3.34-5.31,9.12-9.39,16.17-12.21H290c-15.52,4.88-30.74,10.4-46,15.38a23.61,23.61,0,0,0-11,8.9c-8,9.53-4,21-9,29.87-11.52,17.69-41.49,25.43-65.1,35.58h88.84c20.61-13.17,48.06-23.61,69.26-35.58C337,564.34,317,548.46,325,534.48Z"/><path class="cls-38" d="M420.08,522.27H341.17c-7.05,2.82-12.83,6.9-16.17,12.21-8,14,12,29.86-8,41.94-21.2,12-48.65,22.41-69.26,35.58h66.19c19.47-21.53,66.68-31.79,101.07-43.21C422.1,556.61,410.56,533.22,420.08,522.27Z"/><path class="cls-39" d="M517,565.61c-7.43-14.74-8.81-30,1.43-43.34H420.08c-9.52,11,2,34.34-5.08,46.52-34.39,11.42-81.6,21.68-101.07,43.21h96.33A194.36,194.36,0,0,1,449,589.12c2-.63,5-.63,8-1.27,3-1.27,6-3.17,9-4.44C484,579,525,578.32,517,565.61Z"/><path class="cls-40" d="M743.82,612H792V551.23c-16.72,12.22-30.3,25.25-38,41.71C750.88,599.55,747.48,605.81,743.82,612Z"/><path class="cls-41" d="M727.55,522.27C702.2,544.4,671.73,562.85,644,586c-11,9.53-25,17.15-38,25.41l-.89.64h88.1c33.69-26.39,63.6-53.14,86.79-84.51,1-1.27,0-3.18,0-5.09,0,1.91,1,3.82,0,5.09-23.19,31.37-53.1,58.12-86.79,84.51h50.61c3.66-6.19,7.06-12.45,10.18-19.06,7.7-16.46,21.28-29.49,38-41.71v-29Z"/><path class="cls-42" d="M604.13,522.27c-3.2,1.78-5.76,3.87-7.13,6.49-6,12.07,7,28.59-15,35-20,5.08-42,9.53-56,21-10.68,8.21-17.89,17.43-21.61,27.32h51.66c2-2.18,4-4.3,6-6.35,14-15.25,28-29.87,39-45.12,7-9.53,22-15.89,37-22.88,8-3.17,17-5.71,17-12.7,0,7-9,9.53-17,12.7-15,7-30,13.35-37,22.88-11,15.25-25,29.87-39,45.12-1.94,2.05-4,4.17-6,6.35h49.06l.89-.64c13-8.26,27-15.88,38-25.41,27.73-23.1,58.2-41.55,83.55-63.68Z"/><path class="cls-43" d="M597,528.76c1.37-2.62,3.93-4.71,7.13-6.49h-85.7c-10.24,13.3-8.86,28.6-1.43,43.34,8,12.71-33,13.35-51,17.8-3,1.27-6,3.17-9,4.44-3,.64-6,.64-8,1.27A194.36,194.36,0,0,0,410.26,612h94.13c3.72-9.89,10.93-19.11,21.61-27.32,14-11.44,36-15.89,56-21C604,557.35,591,540.83,597,528.76Z"/><path class="cls-44" d="M54.68,522.27C42.29,538.3,23.76,546.74.05,556.6l0,17.6c14.94-8.16,30.11-11.81,47-18.12,27.15-10.35,49.4-23.81,76.35-33.81Z"/></g></g><g id="Ice"><g id="Ice_sheet" data-name="Ice sheet"><path class="cls-45" d="M779.51,611H425c-4.61,0-6.11-17.31-6.11-21.77l44.5-49.3c0-4.46,6.11-4,10.72-4H757.52c4.61,0,22,4.92,22,9.38L792,561.54C792,566,784.12,611,779.51,611Z"/><path class="cls-46" d="M437.91,594.42a24.26,24.26,0,0,0,4.14-5.33c-2.55-1.3-3.39-2.61-6.5-1.05a22.22,22.22,0,0,1-2,1.09,10.27,10.27,0,0,1-3.84.64c-.9,0-2.89-.53-4.45-.57.28,4.9,1.12,11,3.62,12.24C431.31,598.49,435,596.89,437.91,594.42Z"/><path class="cls-46" d="M450.29,591.78c-.92-1-1.59-.56-1.78-2.27a18.9,18.9,0,0,1,.69-4.83c-.32.19-.64.38-.94.59-2.91,2.08-4.4,5.92-7.14,8.43-2.94,2.7-7.26,4.38-9.65,7.57a.89.89,0,0,1-.27.23l18.24-2.57a10.58,10.58,0,0,1,.3-1.94C450.28,595,452.07,593.71,450.29,591.78Z"/><path class="cls-46" d="M773,536.05c0-4.46-16.82-9.38-21.28-9.38l-93.22,10.09-105.3-1.14-75.78-9c-4.46,0-52.25,57.59-52.25,57.59,0,.75,0,1.76,0,2.9.7,0,1.32.21,2.05.3a7.7,7.7,0,0,0,6.81-.86,6.15,6.15,0,0,1,1-1.07c3.58-1.89,5.47-.08,8.39,1.57a10.84,10.84,0,0,1,2.33-2.26c1.86-1.28,4.44-2,5.74-4,1.06-1.63.72-4.23,1.44-6,1-2.44,2.79-3.68,5.19-4.52,1.11-.39,2.95,0,1,.67-5,1.73-3,7-5.3,10.41a7.17,7.17,0,0,1-2.46,2.11c.45,0,.78.15.73.46-.46,2.85-.9,4.45.94,6.82.48.62.93.27,1.15,1.37.27,1.36-1.06,2.69-1.47,3.9a9.33,9.33,0,0,0-.45,2.53L520,589l123.86,23.21,72.24.36L773,601.68c4.46,0,12.09-45,12.09-49.49Z"/><path class="cls-47" d="M454.23,592.1c-.22-1.1-.67-.75-1.15-1.37-1.84-2.37-1.4-4-.94-6.82.05-.31-.28-.44-.73-.46a7.17,7.17,0,0,0,2.46-2.11c2.3-3.43.33-8.68,5.3-10.41,1.95-.68.11-1.06-1-.67-2.4.84-4.22,2.08-5.19,4.52-.72,1.8-.38,4.4-1.44,6-1.3,2-3.88,2.75-5.74,4a10.84,10.84,0,0,0-2.33,2.26c-2.92-1.65-4.81-3.46-8.39-1.57a6.15,6.15,0,0,0-1,1.07,7.7,7.7,0,0,1-6.81.86c-.73-.09-1.35-.26-2.05-.3a4.27,4.27,0,0,0-.62,0,4.7,4.7,0,0,0-3.55,1.9c-1.12,1.38,1.65,1.57,2.38.67a2.39,2.39,0,0,1,1.88-.53c1.56,0,3.55.58,4.45.57a10.27,10.27,0,0,0,3.84-.64,22.22,22.22,0,0,0,2-1.09c3.11-1.56,3.95-.25,6.5,1.05a24.26,24.26,0,0,1-4.14,5.33c-2.87,2.47-6.6,4.07-9,7-.09.12-.2.22-.29.34s1.76.2,2.59-.28a.89.89,0,0,0,.27-.23c2.39-3.19,6.71-4.87,9.65-7.57,2.74-2.51,4.23-6.35,7.14-8.43.3-.21.62-.4.94-.59a18.9,18.9,0,0,0-.69,4.83c.19,1.71.86,1.26,1.78,2.27,1.78,1.93,0,3.22-.55,5.21a10.58,10.58,0,0,0-.3,1.94,26.59,26.59,0,0,0,0,3.34c0,.69,2.94.17,2.9-.77a29.4,29.4,0,0,1,0-3,9.33,9.33,0,0,1,.45-2.53C453.17,594.79,454.5,593.46,454.23,592.1Z"/><path class="cls-47" d="M591.18,598.35c-.79-1.2-1.53-1.75-1.66-3.26s0-3.22,0-4.8c0-.48-.45-.67-1-.68,1.27-3.55-.17-7.17,3.07-10.46.79-.8-2.07-.61-2.68,0-3.74,3.8-1.81,8.43-4.27,12.53a21.71,21.71,0,0,0-9.06,2.55c-2.43,1.23-4.68,2.77-7.17,3.89a50.89,50.89,0,0,0-6.49,3c-1.15.73,1.71.3,2.19,0,2.35-1.47,5-2.23,7.47-3.46,3.87-1.93,7.33-4.9,11.94-4.91a2,2,0,0,0,.48-.1c-2.59,3.7-4.87,6.82-6.37,11.24-.3.88,2.58.51,2.89-.4,1.37-4,3.77-6.93,6-10.22a9.08,9.08,0,0,0,.36,4,27.86,27.86,0,0,0,1.79,2.45,7.31,7.31,0,0,1,.92,4.42c-.09,1.19,2.82.64,2.9-.36A8.37,8.37,0,0,0,591.18,598.35Z"/><path class="cls-47" d="M746.69,579a44.18,44.18,0,0,1,10.9-.08c2.54.41,4.78,1.86,7.27,2.25a8.61,8.61,0,0,0,2.68-.1c4.72-.76,8.76-2.16,13.61-.93.66.17,3.18-.9,2.39-1.1a23.2,23.2,0,0,0-8.08-.74c-3.9.36-6.42,1.71-10.65.88-2.27-.44-4.3-1.37-6.69-1.59a57.47,57.47,0,0,0-10.16.27c-.75.06-3.15,1.29-1.27,1.14Z"/><path class="cls-47" d="M763.84,564.65c4.94-.24,9-.4,13.75,1.09,3.13,1,6.48.57,9.66.15,1.5-.21,2.32-2.12.33-1.85-2.49.33-5.13.78-7.61.15-1.55-.39-2.77-1.41-4.27-1.79-3.42-.86-8.05.23-11.53.41-1.54.07-2.33,1.94-.33,1.84Z"/><path class="cls-47" d="M764.81,577.14c3.71-1.35,7.27-.43,10.75-1.75a21.23,21.23,0,0,1,3.91-1.55c2.14-.41,4.8,0,7,0,1,0,3.12-1.42,1.19-1.43-3.44,0-7.07-.46-10.38.56a43.44,43.44,0,0,1-7.74,1.69,27.21,27.21,0,0,0-5.8,1.51c-1.91.7-.14,1.4,1.09,1Z"/><path class="cls-47" d="M754,588.53a28.45,28.45,0,0,0,5.61-.21c3.94-.5,7.2-.05,11,.22,2.25.16,9-2.45,10.16-1.33.59.55,3.24-.53,2.72-1-2.15-2-4.71-.86-7.08.06-3.74,1.46-6.85.13-10.67.21-3.34.07-6.5,1-9.89.8-.68,0-3.32,1.16-1.86,1.26Z"/></g><g id="Icebergs"><path class="cls-46" d="M716.12,287.36,704.5,301.44l-16.14-8.37-18.72,12.05-10.33-3.68L630.9,317.17l-82.63-10.78-14.21,15.22-16.14-8.25-2.58,9.52-43.25-21.44-7.75,8.75L448.2,298.14l-12.27,7-9-12.05-17.44,13.32-10.33-7.62-20,17.13-13.56,8.88-40.67-26s-7.75,20.94-7.75,25.38-16.14-7-16.14-7l-12.91,4.44-21.3-8.88-12.27,3.81-45.19-7.62h-7.1l-9.69,18.4L168,318.44,161.56,328l-11-9.51-31,6.34-16.14,33L85.37,354l-7.74-3.17-7.75,5.71-9.68-5.71L46.64,358.4,33.73,397.73l-11.62-5.07-9,15.86v3.7c5.64-.63,14.65-4.53,16-5.21,6.6-3.23,13.79-7.56,18.76-13.42a44.07,44.07,0,0,1,4.32-6.79v0a2.21,2.21,0,0,1,1.63-1.41A2.75,2.75,0,0,1,57,387.14a2.92,2.92,0,0,1,0,2.46,31.54,31.54,0,0,1-4.9,7.71c-6.47,13.66-3.36,29.65,7,41q12.36-22.86,25.05-45.53a36.33,36.33,0,0,1,2.83-5.08c2-3,6.61-.35,4.84,2.83l-2.58,4.62a27.22,27.22,0,0,0-1.48,19.27,52,52,0,0,1,5.49-7.92,81.8,81.8,0,0,1,17.09-43.67c.86-1.13,2.47-1.94,3.83-1a17.76,17.76,0,0,1,2.31,1.89,59.22,59.22,0,0,1,6.61-15c.86-1.4,3.21-2,4.39-.56a273.22,273.22,0,0,1,24.93,35.69q5.76-10.33,11.5-20.68a2.82,2.82,0,0,1,5.22,1.41,196.36,196.36,0,0,0,6.79,53.2,187.78,187.78,0,0,0,17.1-46.18c.8-3.54,6.12-2,5.4,1.48-1.37,6.65.65,12.79,4.74,17.83,7.36-10.09,8.76-22.92,11.48-34.87,2.82-12.33,7.73-23.35,18.6-30.56a2.82,2.82,0,0,1,4.11,1.68,174.39,174.39,0,0,1,4.84,28.75l15.17-23.68a2.84,2.84,0,0,1,5.12.67,563.88,563.88,0,0,1,19.87,135.16c6-22.32,8.94-45.31,11.74-68.26.37-3,4.54-4,5.5-.75q11.59,38.73,23.2,77.45L337.73,449a4.1,4.1,0,0,1,.26-.41,184.43,184.43,0,0,1-1.8-60.85c1.23-8.9,1.93-21.4,9.59-27.49,4.15-3.3,10.5-4.37,15.37-2.16.25-.41.52-.82.79-1.23l12.66-30.05a3.34,3.34,0,0,1,2.48-1.94q1.05-2.4,2.19-4.77c.88-1.82,3.4-1.41,4.38,0,7.56,10.86,23.79,8.67,35.25,7.56,15.35-1.48,28.82,4.91,42.62,10.83,11.41,4.89,26.86,13.19,39.28,6.87,8.46-4.3,12.87-14.7,22.32-17.41,10-2.86,11.47,5.44,11.84,13.15.21,4.52,1.52,9.16,7.38,7.73,3.13-.77,5.44-3,7.66-5.17,3.5-3.42,6.8-6.82,11.62-8.33,9-2.83,18.51,1.28,26.93,4.23,4.62,1.62,9.43,3.31,14.37,3.51,5.68.22,10-2.34,14.76-5,3.83-2.12,8.37-4.65,12.94-3.66,5,1.08,6.58,5.4,8.92,9.31,6.32,10.55,19.34,16.11,31.46,13.84,1.74-.32,3.82,1.13,3.12,3.08-3,8.27,7.42,13.56,14.36,14,7.34.47,14.77-1.06,22,.59,5.91,1.35,10.6,5,15,9,5.59,5.12,10.78,10.28,18.83,10.8,7.42.47,14.66-1.9,22.05-1.89,5.24,0,10.89,1,15.25,4,5,3.46,6.25,8.39,7.29,14A16.1,16.1,0,0,0,792,418.4V306.15Z"/><path class="cls-48" d="M361.94,356.86c-.27.41-.54.82-.79,1.23l.22.1Z"/><path class="cls-48" d="M781.59,397.17c-4.36-3-10-4-15.25-4-7.39,0-14.63,2.36-22.05,1.89-8-.52-13.24-5.68-18.83-10.8-4.35-4-9-7.63-15-9-7.26-1.65-14.69-.12-22-.59-6.94-.45-17.36-5.74-14.36-14,.7-2-1.38-3.4-3.12-3.08-12.12,2.27-25.14-3.29-31.46-13.84-2.34-3.91-3.91-8.23-8.92-9.31-4.57-1-9.11,1.54-12.94,3.66-4.76,2.64-9.08,5.2-14.76,5-4.94-.2-9.75-1.89-14.37-3.51-8.42-2.95-17.89-7.06-26.93-4.23-4.82,1.51-8.12,4.91-11.62,8.33-2.22,2.17-4.53,4.4-7.66,5.17-5.86,1.43-7.17-3.21-7.38-7.73-.37-7.71-1.88-16-11.84-13.15-9.45,2.71-13.86,13.11-22.32,17.41-12.42,6.32-27.87-2-39.28-6.87-13.8-5.92-27.27-12.31-42.62-10.83-11.46,1.11-27.69,3.3-35.25-7.56-1-1.41-3.5-1.82-4.38,0q-1.14,2.37-2.19,4.77a2.43,2.43,0,0,1,2.92,1.94,508,508,0,0,0,15.85,51.41,66.45,66.45,0,0,1,11.58-15,2.84,2.84,0,0,1,4.78,2,923.75,923.75,0,0,0,15.3,154.75,2.84,2.84,0,0,1-2.64,3.53c48.27.48,113.46-1.37,134.76-1,16.15.25,199.61-1.43,232.37.13V418.4a16.1,16.1,0,0,1-3.12-7.24C787.84,405.56,786.55,400.63,781.59,397.17Z"/><path class="cls-49" d="M427.51,519.92a923.75,923.75,0,0,1-15.3-154.75,2.84,2.84,0,0,0-4.78-2,66.45,66.45,0,0,0-11.58,15A508,508,0,0,1,380,326.81a2.43,2.43,0,0,0-2.92-1.94,3.34,3.34,0,0,0-2.48,1.94l-12.66,30.05-.57,1.33-.22-.1c-4.87-2.21-11.22-1.14-15.37,2.16-7.66,6.09-8.36,18.59-9.59,27.49a184.43,184.43,0,0,0,1.8,60.85,4.1,4.1,0,0,0-.26.41l-14.81,27.51q-11.6-38.73-23.2-77.45c-1-3.21-5.13-2.26-5.5.75-2.8,22.95-5.78,45.94-11.74,68.26a563.88,563.88,0,0,0-19.87-135.16,2.84,2.84,0,0,0-5.12-.67l-15.17,23.68a174.39,174.39,0,0,0-4.84-28.75,2.82,2.82,0,0,0-4.11-1.68c-10.87,7.21-15.78,18.23-18.6,30.56-2.72,11.95-4.12,24.78-11.48,34.87-4.09-5-6.11-11.18-4.74-17.83.72-3.5-4.6-5-5.4-1.48a187.78,187.78,0,0,1-17.1,46.18,196.36,196.36,0,0,1-6.79-53.2,2.82,2.82,0,0,0-5.22-1.41q-5.74,10.33-11.5,20.68a273.22,273.22,0,0,0-24.93-35.69c-1.18-1.44-3.53-.84-4.39.56a59.22,59.22,0,0,0-6.61,15,17.76,17.76,0,0,0-2.31-1.89c-1.36-.93-3-.12-3.83,1A81.8,81.8,0,0,0,93.38,406.5a52,52,0,0,0-5.49,7.92,27.22,27.22,0,0,1,1.48-19.27L92,390.53c1.77-3.18-2.84-5.8-4.84-2.83a36.33,36.33,0,0,0-2.83,5.08q-12.68,22.7-25.05,45.53c-10.41-11.35-13.52-27.34-7-41a31.54,31.54,0,0,0,4.9-7.71,2.92,2.92,0,0,0,0-2.46,2.75,2.75,0,0,0-3.17-1.78,2.21,2.21,0,0,0-1.63,1.41v0a44.07,44.07,0,0,0-4.32,6.79c-5,5.86-12.16,10.19-18.76,13.42-1.39.68-10.4,4.58-16,5.21-2.57.29-4.45-.1-4.56-1.79-.14-2-2.31-3.65-4.21-2.42-3.1,2-3.24,7.07-3.6,10.33-.81,7.32-.89,14.74-1,22.1-.24,18.76.19,37.51.12,56.27,0,3.67,0,7.35-.13,11-.1,4.24-.8,8.82,2,12.4s7.66,4.19,12,4.29c7.76.19,15.55-.11,23.31-.18l95.45-.76,99.38-.81q96.4,3.11,192.87.79h.06A2.84,2.84,0,0,0,427.51,519.92Z"/><g class="cls-50"><path class="cls-49" d="M558.84,366.36c-.81,27-14.88,52.06-18.49,78.88-.34,2.53-.57,5.17.31,7.58a18.24,18.24,0,0,0,3.7,5.4,196.17,196.17,0,0,1,35.14,58.46c2-1.85,2.15-4.91,2.08-7.62-.93-34.12-11.74-67.2-16.2-101.06-1.81-13.67-2.57-27.48-4.72-41.11"/><path class="cls-49" d="M556.32,366.36c-.59,14.55-4.82,28.44-9.18,42.24-4,12.6-9.31,26.34-9.6,39.71-.14,6.16,3.54,9.86,7.27,14.31a190.23,190.23,0,0,1,13,17.35,196.31,196.31,0,0,1,19.31,37.38c.62,1.6,2.86,2.7,4.21,1.11,3.26-3.84,2.91-8.39,2.68-13.19-.3-6.3-.94-12.57-1.76-18.82-1.74-13.09-4.39-26-7.07-38.93-2.74-13.24-5.51-26.48-7.27-39.89-1.82-13.78-2.67-27.66-4.77-41.41-.49-3.2-5.35-1.84-4.86,1.34,1.95,12.77,2.77,25.67,4.37,38.49,1.49,11.88,3.73,23.63,6.13,35.36s5,23.54,6.95,35.41c1.06,6.31,2,12.65,2.55,19q.45,4.71.69,9.43c.14,3,.9,7.14-1.21,9.62l4.22,1.12a203,203,0,0,0-17.49-35q-5-7.89-10.69-15.28c-4.33-5.62-11.71-11.4-11.06-19,1.17-13.71,6.31-27.19,10.38-40.22s7.73-26.38,8.29-40.19c.13-3.25-4.91-3.24-5,0Z"/></g><g class="cls-50"><path class="cls-49" d="M625.93,347.72c.54,9.15-6,17-11.34,24.5a113,113,0,0,0-17,36.2,15.62,15.62,0,0,0-.73,5.41,15.85,15.85,0,0,0,1.61,5.05c3.56,7.8,8,15.3,10.16,23.57,3.58,13.67.69,28.11,1.58,42.2.34,5.24,1.33,10.75,4.81,14.73,5.81,6.64,16.06,6.71,25,6.24,1.25-.07,2.69-.23,3.4-1.25a4.08,4.08,0,0,0,.29-3Q642,490.69,641,479.92c-1.65-17.6-1.94-35.29-2.33-52.95-.56-25.43-1.42-51.33-10-75.34-.43-1.21-1.08-2.59-2.36-2.82l-14.58,38.35"/><path class="cls-49" d="M623.41,347.72c.17,12.22-10.91,22.1-16.66,32.07a117.28,117.28,0,0,0-7.45,15.54c-2,5.1-4.57,11.15-4.9,16.68-.32,5.37,3,10.48,5.3,15.11,2.82,5.74,5.58,11.52,7,17.79,2.9,13.07.15,26.53,1.06,39.74.65,9.4,3.87,18.13,13.31,21.68,4.42,1.66,9.28,2,14,2,3.19,0,8.56.59,10.6-2.65,1.15-1.84.66-3.93.39-5.92-.5-3.67-1.08-7.33-1.52-11-.86-7.16-1.48-14.33-1.92-21.52-.84-13.71-1.06-27.44-1.37-41.16-.33-14.61-.8-29.24-2.76-43.74a169.05,169.05,0,0,0-4-20.69c-1.2-4.56-2.13-12.54-6.8-15a2.57,2.57,0,0,0-3.7,1.51l-14.58,38.35c-1.15,3,3.72,4.35,4.87,1.34q7.29-19.17,14.57-38.35l-3.7,1.51c1.9,1,2.62,5.5,3.22,7.5q1.2,4,2.16,8.06a173.37,173.37,0,0,1,3.28,18.52c1.39,11.11,1.9,22.32,2.22,33.51.67,23.74.69,47.51,3.59,71.11q.41,3.27.87,6.52c.25,1.79,1,3.67.09,5.39-1,2-1,1.55-3.33,1.62-4.51.13-9.16.09-13.5-1.3-12.32-4-11.28-18.78-11-29.28s1.07-21.36-1.82-31.68a79.69,79.69,0,0,0-5-12.52c-3-6.26-7.32-12.19-5.86-19.35,2.36-11.52,8.27-23,14.72-32.71,5.92-8.94,13.83-17.27,13.66-28.66,0-3.24-5.09-3.25-5,0Z"/></g><g class="cls-50"><path class="cls-49" d="M700.26,375.66a109.62,109.62,0,0,0-15.63,8.82,7.68,7.68,0,0,0-2.92,2.93c-.67,1.49-.34,3.21,0,4.81,2,9.33,4.08,18.7,7.44,27.66,5,13.36,12.87,25.65,16.8,39.36,3.15,11,3.67,22.55,6.34,33.66,1,4.34,2.46,8.69,5.2,12.24,4.34,5.61,11.33,8.45,18,11.05a4,4,0,0,0,2.68.37c1.77-.62,1.67-3.09,1.22-4.89q-7.44-29.91-14.87-59.82c-3.19-12.82-6.39-25.67-8.14-38.76-2-15.1-2.87-32-14.18-42.46a31.46,31.46,0,0,0-8.18,8.21"/><path class="cls-49" d="M699,373.48a103.17,103.17,0,0,0-15.63,8.83c-3.28,2.3-4.9,4.82-4.38,9,1.48,11.72,5.35,24,10,34.85,4.83,11.26,11.17,21.95,14.55,33.79,3.45,12.08,3.52,24.89,7.2,36.91,3,9.72,9.33,15.5,18.48,19.51,2.8,1.23,7.11,3.89,10.23,2.41s2.87-4.94,2.38-7.74c-2.27-12.94-6.42-25.83-9.59-38.59-3.13-12.57-6.4-25.11-9.27-37.74-2.8-12.32-4.12-24.73-6.13-37.16-1.72-10.63-4.92-21-12.85-28.67a2.56,2.56,0,0,0-3.06-.39,39.89,39.89,0,0,0-9.08,9.12c-1.9,2.64,2.48,5.16,4.36,2.55a31.72,31.72,0,0,1,7.27-7.31l-3.06-.4c12.84,12.41,11.86,32.45,14.69,48.81,3.55,20.63,9.37,40.91,14.42,61.21l3.84,15.44c.59,2.39,5,14.65,2.81,15.89-.82.45-5.64-2.32-6.53-2.74a40.48,40.48,0,0,1-5.34-3c-4.48-3.07-7.13-7.41-8.7-12.56-3-9.87-3.55-20.35-5.64-30.43-2-9.45-5.68-18.21-9.82-26.88-4.94-10.37-9.6-20.56-12.52-31.71-1.44-5.5-5.84-15.88-1-20.29,4-3.6,10.08-6.06,14.89-8.32,2.93-1.38.38-5.73-2.55-4.36Z"/></g><g class="cls-50"><path class="cls-49" d="M504.66,345.58c1,22.6-15.48,42.09-25.64,62.63-9.24,18.67-13.43,39.13-16.61,59.47-.34,2.2-.66,4.5.11,6.6,1.2,3.29,4.73,5.25,8,6.93l15.58,8c.9.46,2,.93,2.91.44s.3-2.23-.6-1.76c9.29,11.54,17.36,19.45,22.8,33,2.91-20.34-1.82-36.47,3.06-56.48,1.17-4.81,2.86-9.54,3.26-14.46.43-5.43-.74-10.84-1.74-16.21-2.67-14.3-4.16-28.76-5.66-43.21l-4.74-46a1.82,1.82,0,0,0-2.07,1.63"/><path class="cls-49" d="M502.2,345.58c.46,16.79-8.26,31.37-16.44,45.39s-15,28.2-19.22,43.94c-2.22,8.21-3.89,16.56-5.32,24.94-1,5.9-3.41,13.26.86,18.4,4.53,5.45,13.21,8.19,19.3,11.33,2.24,1.16,5.54,3.62,8.27,2.48a3.49,3.49,0,0,0,1.87-4.64,2.47,2.47,0,0,0-1.72-1.72l-.76-.14a2.48,2.48,0,0,0-2.39,4.1c8.22,10.15,17.08,19.67,22.17,31.88a2.47,2.47,0,0,0,4.83-.65c1.85-14,.05-28,.93-42.08.49-7.88,2.69-15.1,4.4-22.74,1.47-6.55,1-12.84-.17-19.4-5.44-30.43-7.81-61.36-11-92.1a2.51,2.51,0,0,0-3.11-2.37,4.35,4.35,0,0,0-3.78,3.34c-1.06,3,3.69,4.28,4.74,1.31l.35.09-3.11-2.37c3.09,29.91,5,60.23,10.49,89.83,1.55,8.46,2.15,15.55-.08,24a105.45,105.45,0,0,0-3.66,20.45c-.88,14.05.93,28.06-.93,42.08l4.83-.66c-5.45-13.07-14.63-23.17-23.43-34l-2.39,4.11.75.14-1.71-1.72.09-.27,2.12-1.21c-3.37.31-9-3.92-12.05-5.47A79,79,0,0,1,468.1,477c-6.28-4.33-2.37-14.89-1.19-21.25,2.67-14.39,6.25-28.77,12.27-42.17,10-22.22,28.64-42.31,27.94-68-.09-3.16-5-3.17-4.92,0Z"/></g></g></g><g id="Personal_Icons" data-name="Personal Icons"><g id="Flag_with_personal_Icon" data-name="Flag with personal Icon"><path class="cls-51" d="M332.46,137.51c-.95,8.24-2,16.46-3,24.68l-3.2,24.65c-1.1,8.22-1.85,16.48-3.41,24.62-.77,4.07-1.56,8.14-2.48,12.19s-1.89,8.09-3.09,12.1l-.4-.07c.07-4.18.35-8.32.71-12.46s.81-8.25,1.31-12.37c1-8.23,2.76-16.34,4.19-24.5l4.4-24.46c1.53-8.15,3-16.3,4.58-24.44Z"/><path class="cls-52" d="M410.77,197.07c-11.76-11-26-13.57-43-6.65-13,7.29-27.38,4.86-42.9-6.63l7.81-45.25c13.93,10.15,28.42,10.69,43.18,6.68,16.42-6.57,30.7-5.49,41.93,6.48C410.33,166.25,407.68,181.33,410.77,197.07Z"/><g id="Personal_Icon" data-name="Personal Icon"><g id="Personal_Icon-2" data-name="Personal Icon"><path class="cls-53" d="M381.18,170.62c1.75,5.27-13.81,15-19.11,15.11-8.3.1-10.69-9.35-10.36-18.77s8.22-16.49,16.45-15.4c6.21.82,15,7.11,13.22,13.58A10.06,10.06,0,0,0,381.18,170.62Z"/><path class="cls-9" d="M355.53,183.57l1,.71c1.24.93,2.57,1.86,4.2,1.68,3.42-.39,4.59-4,6.74-6.14a8.42,8.42,0,0,1,4.41-2.32c1.73-.33,3.52-.27,5.23-.69a5.21,5.21,0,0,0,4-3.49c.52-1.74.27-3.66.28-5.45a10.31,10.31,0,0,1,.28-2.83c.27-1,.74-1.89,1.09-2.85.51-1.39,0-2.67-.15-4.08h0a5.82,5.82,0,0,0-.58-1.75,5.64,5.64,0,0,0-4.4-3,5.55,5.55,0,0,0-3.35.67,14.86,14.86,0,0,0-6.78-2.52,16.81,16.81,0,0,0-5.54.22,4.09,4.09,0,0,0-2.41-1.09,3.49,3.49,0,0,0-4.06,2.74,2.81,2.81,0,0,0,.46,1.85c-2.17,2.4-3.69,6-4.46,11a26.47,26.47,0,0,0,2.63,14.94A17.14,17.14,0,0,0,355.53,183.57Z"/><path class="cls-54" d="M357.26,162.17l.85-.64.76-1.69-2.26.14-1.61,1.2-.75,1.47.55.35C355.69,162.13,356.58,161.31,357.26,162.17Z"/><path class="cls-54" d="M364.57,163l-.94-.85c1.21-.9,2.3-1.5,3.15-1.41a4.82,4.82,0,0,1,3.7,1.13,3.43,3.43,0,0,1,1.62,3.32l-2.74-1.26A3.64,3.64,0,0,0,364.57,163Z"/><path class="cls-55" d="M356,162a.89.89,0,0,1,1.28.14A.89.89,0,0,0,356,162Z"/><path class="cls-55" d="M364.57,163c2.14-.92,3.73-.46,4.79.93A3.68,3.68,0,0,0,364.57,163Z"/><path class="cls-56" d="M355.42,167.12a5.44,5.44,0,0,0,3.81,3.56l2.76-.35,4,1.35.54,1.77-1.15,4.06-2.05,3.83-2.29,3.15-1.73.72-1.91-1.78-.74-1.52.94-1.46.4-1.27.35-2.9-.59-3.59-1.41-2.58Z"/><polygon class="cls-57" points="353.42 170.14 353.14 172.67 354.37 173.3 356.41 172.42 357.29 174.18 358.08 179.27 358.45 175.05 357.8 171.96 356.44 168.47 353.42 170.14"/><polygon class="cls-58" points="359 173.81 358.5 178.38 357.54 182.89 358.64 183.94 361.08 184.49 363.43 180.17 365.26 174.5 364.02 174.83 359 173.81"/><path class="cls-59" d="M357,166.81a3.68,3.68,0,0,1-3.61,3.33c-1.25-.14-1.18-1.54-.93-3.83s1.41-3.41,2.66-3.27S357.28,164.52,357,166.81Z"/><polygon class="cls-52" points="361.51 174.09 356.7 181.91 357.54 182.89 359.01 182.59 359.67 182.31 361.35 182.26 362.61 180.78 362.79 179.17 363.39 176.83 364.02 174.83 361.51 174.09"/><path class="cls-54" d="M367.43,179.82a8.42,8.42,0,0,1,4.41-2.32c1.73-.33,3.52-.27,5.23-.69a5.21,5.21,0,0,0,4-3.49c.52-1.74.27-3.66.28-5.45a10.31,10.31,0,0,1,.28-2.83c.27-1,.74-1.89,1.09-2.85.51-1.38,0-2.68-.15-4.08h0L381,165.19l.13,5.86L378,175.9l-8.66.09-2.25,2.14-5.47,7.33,1.82-.72C364.33,183.57,366.41,180.86,367.43,179.82Z"/><polygon class="cls-60" points="359.35 185.21 361.58 185.46 363.97 182.58 365.76 180.77 366.92 179.3 371.61 172.79 366.57 173.45 363.37 181.34 359.35 185.21"/><path class="cls-61" d="M377,160.4l5-4a13.38,13.38,0,0,1-1,8.83C380.23,162.54,378.87,161,377,160.4Z"/><polygon class="cls-54" points="362.42 157.39 361.18 160.1 360.03 160.35 360.14 159.32 362.42 157.39"/><polygon class="cls-62" points="366.57 173.45 366.03 171.68 361.99 170.33 371.42 171.37 371.61 172.79 366.57 173.45"/><path class="cls-63" d="M366.38,162.9c-1.08-.12-4.78-.25-6.07-.39a4.17,4.17,0,1,0-.91,8.29c1.12.12,10.33.92,12,.57a3.43,3.43,0,0,0,2.58-3.06C374.25,166,368.73,163.16,366.38,162.9Z"/><ellipse class="cls-64" cx="356.27" cy="165.3" rx="1.32" ry="1.72" transform="translate(152.95 501.33) rotate(-83.71)"/></g><path class="cls-61" d="M353.46,164.25a6.19,6.19,0,0,0-7.8-.86c-.1.06,0,.22.09.16a6,6,0,0,1,7.58.83.09.09,0,0,0,.13-.13Z"/><path class="cls-61" d="M385.89,166.39c-5.53-3.21-10.9-2.84-16.14.76-.1.06,0,.22.09.15,5.18-3.55,10.49-3.93,16-.76.1.06.19-.1.09-.15Z"/><path class="cls-61" d="M354.06,166.14c-2.86-1.49-5.48-.94-7.8,1.25a.09.09,0,0,0,.13.13c2.25-2.14,4.79-2.67,7.58-1.22.11,0,.2-.11.09-.16Z"/><path class="cls-61" d="M353.43,164.86a6.23,6.23,0,0,0-7.85.63c-.09.08,0,.21.13.13a6.06,6.06,0,0,1,7.63-.61c.09.06.19-.09.09-.15Z"/><path class="cls-61" d="M387.47,173c-4.34-4.6-9.59-6.1-15.63-4.1a.09.09,0,0,0,.05.18c6-2,11.13-.53,15.45,4,.08.09.2,0,.13-.13Z"/><path class="cls-61" d="M387.33,169.53q-7.44-6-16-1.77c-.1.05,0,.2.09.15,5.62-2.76,10.93-2.19,15.83,1.74.09.08.21-.05.12-.12Z"/></g></g><g id="Personal_Icon_Reflected" data-name="Personal Icon Reflected"><g id="Personal_Icon-3" data-name="Personal Icon"><path class="cls-53" d="M52.83,121.71c-6.4,14,33.39,45.51,48,47.29,22.77,2.78,32.18-22.47,34.14-48.45S117.33,72.77,94.38,73.27c-17.31.38-43.32,15-40.44,33.3C54.84,112.31,54.6,117.85,52.83,121.71Z"/><path class="cls-9" d="M119.4,165.05c-1,.52-1.92,1.07-2.88,1.64-3.68,2.18-7.61,4.35-12,3.35-9.29-2.1-11.42-12.27-16.68-18.91a22.93,22.93,0,0,0-11.42-7.69c-4.65-1.44-9.56-1.81-14.15-3.49-4.94-1.81-8.92-5.42-9.89-10.79-.91-4.94.35-10.15.88-15.07a30,30,0,0,0,.08-7.86c-.45-2.78-1.46-5.42-2.14-8.14-1-4,.75-7.35,1.65-11.18h0A15.91,15.91,0,0,1,55,82.27a15.6,15.6,0,0,1,22-4.13,41,41,0,0,1,19.4-4.87,46.65,46.65,0,0,1,15.14,2.28,11.44,11.44,0,0,1,7-2.28c5.7,0,10.32,3.92,10.32,8.76a7.82,7.82,0,0,1-1.8,5c5.22,7.26,8.3,17.6,8.92,31.47.55,12.24-3.83,28.15-11.74,40.24A52.08,52.08,0,0,1,119.4,165.05Z"/><path class="cls-54" d="M121.1,105.72l-2.13-2-1.58-4.84,6.16,1,4.08,3.8,1.62,4.27-1.62.79C125.43,106.09,123.23,103.56,121.1,105.72Z"/><path class="cls-54" d="M100.78,105.72l2.84-2c-3-2.85-5.87-4.83-8.22-4.84-4.27-.67-7.82-.08-10.52,2-3.88,1.77-5.08,5-5.46,8.62l7.91-2.63C91.79,103,96.27,102.64,100.78,105.72Z"/><path class="cls-65" d="M124.66,105.72a2.49,2.49,0,0,0-3.56,0A2.49,2.49,0,0,1,124.66,105.72Z"/><path class="cls-65" d="M100.78,105.72c-5.6-3.17-10.09-2.39-13.45,1.12C91.84,103.05,96.33,102.69,100.78,105.72Z"/><path class="cls-56" d="M124.66,119.89c-2.54,4.88-6.33,7.85-11.55,8.62l-7.47-1.79-11.51,2.47-2,4.71,1.93,11.5,4.47,11.14,5.34,9.34,4.53,2.51,5.79-4.31,2.49-4-2.13-4.31-.71-3.6-.08-8.08,2.69-9.68,4.66-6.66Z"/><polygon class="cls-66" points="129.25 128.79 129.25 135.82 125.69 137.18 120.34 134.14 117.39 138.69 113.69 152.47 113.93 140.75 116.67 132.47 121.47 123.29 129.25 128.79"/><polygon class="cls-58" points="112.8 137.18 112.8 149.87 114.06 162.56 110.74 165.12 103.86 165.88 98.72 153.3 95.4 137.18 98.72 138.45 112.8 137.18"/><path class="cls-67" d="M120.35,118.53c0,6.37,5.42,10.26,8.9,10.26S133,124.9,133,118.53s-2.83-9.78-6.31-9.78S120.35,112.17,120.35,118.53Z"/><polygon class="cls-52" points="105.84 137.18 116.67 160.13 114.06 162.56 110.11 161.29 108.39 160.33 103.78 159.69 100.78 155.22 100.78 150.75 99.83 144.14 98.72 138.45 105.84 137.18"/><path class="cls-54" d="M87.82,151.13a22.93,22.93,0,0,0-11.42-7.69c-4.65-1.44-9.56-1.81-14.15-3.49-4.94-1.81-8.92-5.42-9.89-10.79-.91-4.94.35-10.15.88-15.07a30,30,0,0,0,.08-7.86c-.45-2.78-1.46-5.42-2.14-8.14-1-4,.75-7.38,1.65-11.18h0L55,106.84l-2.12,16,7.25,14.29L83.84,140l5.56,6.56,12.8,21.79-4.8-2.51C95.2,162.36,90.33,154.29,87.82,151.13Z"/><polygon class="cls-60" points="108.39 168.39 102.2 168.39 96.51 159.77 92.12 154.26 89.4 149.87 78.47 130.55 92.12 133.9 98.52 156.54 108.39 168.39"/><path class="cls-61" d="M67.32,94.86,55,82.27C51.6,90.93,52.69,99,55,106.84,57.9,99.8,62.1,96,67.32,94.86Z"/><polygon class="cls-54" points="108.39 91.03 110.98 98.85 114.06 99.89 114.06 97.02 108.39 91.03"/><polygon class="cls-62" points="92.12 133.9 94.13 129.19 105.64 126.72 79.42 126.72 78.47 130.55 92.12 133.9"/><path class="cls-68" d="M95.84,105c3,0,13.22.75,16.79.75a11.54,11.54,0,1,1,0,23.07c-3.11,0-28.67-.61-33.21-2.07s-6.15-6-6.15-9.2C73.27,111.15,89.3,105,95.84,105Z"/><ellipse class="cls-64" cx="122.88" cy="114.62" rx="4.75" ry="3.65"/></g><path class="cls-61" d="M131.21,113c7-5,14.11-5,21.12,0,.26.19.51-.25.25-.43q-10.82-7.76-21.62,0c-.26.18,0,.62.25.43Z"/><path class="cls-61" d="M41.41,109.08C57,101.9,72.18,104.66,85,116c.24.21.59-.14.35-.35-13-11.51-28.28-14.3-44.18-7-.29.13,0,.56.26.43Z"/><path class="cls-61" d="M128.86,118.07c8.11-3.17,15-.91,20.52,5.66.2.24.55-.11.35-.35-5.63-6.7-12.73-9-21-5.79-.29.11-.16.59.14.48Z"/><path class="cls-61" d="M131.06,114.7c7.82-3.75,14.78-2.14,20.76,4a.25.25,0,0,0,.36-.35c-6.14-6.32-13.35-8-21.37-4.09-.29.13,0,.56.25.42Z"/><path class="cls-61" d="M35.17,126.8c12.92-11.21,28.05-13.8,43.63-6.46.29.13.54-.3.25-.43-15.82-7.45-31.11-4.85-44.23,6.54-.24.21.11.56.35.35Z"/><path class="cls-61" d="M36.55,117.24c14.42-9.41,29.62-9.41,44,0,.27.18.52-.25.26-.43-14.62-9.53-29.94-9.53-44.56,0-.26.18,0,.61.26.43Z"/></g><g id="Complete_Fox" data-name="Complete Fox"><g id="Fox_Body" data-name="Fox Body"><path class="cls-9" d="M740,552.94,735,541a15.8,15.8,0,0,0-3.52-5.17c-2.48-22-24.09-39.29-50.39-39.29a56.48,56.48,0,0,0-27.79,7.14,10.47,10.47,0,0,0-1.46-3.16,10.79,10.79,0,0,0-15.12-2.82,28.49,28.49,0,0,0-13.34-3.31A32.08,32.08,0,0,0,613,496a7.84,7.84,0,0,0-4.78-1.56c-3.91,0-7.09,2.67-7.09,6a5.29,5.29,0,0,0,1.24,3.36c-3.59,4.95-5.71,12-6.13,21.43-.37,8.33,2.63,19.16,8.07,27.4a32.28,32.28,0,0,0,3.76,4.85l-.36,2.43A18.63,18.63,0,0,0,623.3,581l47.92,7.16a18.4,18.4,0,0,0,8.38-.68c4.79,1.27,11.53,1,15.91-.89l33.87-7.44C737.49,575.71,743.45,561.05,740,552.94Z"/><polygon class="cls-54" points="664.04 503.75 660.13 513.86 660.13 529.35 653.29 541.39 652.63 544.84 644.18 544.02 641.05 546.31 631.76 547.71 626.29 553.64 620.34 557.72 628.16 544.35 631.98 539.89 648.31 537.94 653.29 528.21 651.83 517.28 653.29 503.72 664.04 499.11 664.04 503.75"/><path class="cls-54" d="M676.92,557.48a18.85,18.85,0,0,0-8.33-11.17c5.38-4.15,10.64-7.55,15.51-8.37a38.94,38.94,0,0,1,14.83-4.68,23.06,23.06,0,0,1,10.44,11.25,23.58,23.58,0,0,1-2,14c-1.44,1.29-1.2,6.19-.81,11.41,1.14,2.32-.91,3.71-3.1,5-.76-3.88-3.63-7-8.15-9.62C688.53,564.17,682.21,561.92,676.92,557.48Z"/><path class="cls-54" d="M670.56,557.48a38.22,38.22,0,0,0-14-3.35l-12.36,7.18c2.3.81,3.49,2.6,4.13,4.89,2.87,1.81,4,5.2,5,8.8,8.67-1.21,16.8-1.39,24.12,0a18.84,18.84,0,0,1,4.24-10.43C678.69,560.86,675.18,558.15,670.56,557.48Z"/><path class="cls-69" d="M731.47,535.87l-7.1,32.61-13,10.76v3.87l18-4c8.79-2.84,12.75-19.75,11.63-21.34,0-4.26-2.51-8.91-6-16.76C734.18,539.23,732.55,537.8,731.47,535.87Z"/></g><g id="Personal_Icon-4" data-name="Personal Icon"><g id="Personal_Icon-5" data-name="Personal Icon"><path class="cls-53" d="M653.13,528.11c4.4,9.59-23,31.27-33,32.5-15.66,1.91-22.12-15.44-23.47-33.3s12.09-32.83,27.86-32.49c11.9.26,29.77,10.32,27.79,22.89C651.74,521.65,651.91,525.46,653.13,528.11Z"/><path class="cls-9" d="M607.38,557.89c.66.36,1.32.74,2,1.13,2.53,1.5,5.24,3,8.27,2.3,6.38-1.44,7.85-8.43,11.46-13a15.77,15.77,0,0,1,7.85-5.29c3.19-1,6.57-1.24,9.72-2.39,3.39-1.25,6.13-3.73,6.8-7.42.62-3.4-.24-7-.6-10.36a20.34,20.34,0,0,1-.06-5.4c.31-1.91,1-3.72,1.47-5.59.68-2.74-.51-5.05-1.14-7.68h0a11,11,0,0,0-1.45-3.2,10.77,10.77,0,0,0-8.95-4.8,10.64,10.64,0,0,0-6.17,2,28.22,28.22,0,0,0-13.34-3.35,32.1,32.1,0,0,0-10.41,1.57,7.82,7.82,0,0,0-4.77-1.57c-3.92,0-7.09,2.7-7.09,6a5.39,5.39,0,0,0,1.23,3.4c-3.58,5-5.7,12.1-6.13,21.63-.37,8.41,2.64,19.34,8.08,27.66A34.11,34.11,0,0,0,607.38,557.89Z"/><path class="cls-54" d="M606.21,517.12l1.47-1.39,1.08-3.33-4.24.72-2.8,2.61-1.11,2.93,1.11.55C603.23,517.37,604.74,515.64,606.21,517.12Z"/><path class="cls-54" d="M620.18,517.12l-2-1.39c2.09-2,4-3.32,5.65-3.33,2.93-.46,5.37-.06,7.23,1.38,2.67,1.21,3.49,3.42,3.75,5.92l-5.43-1.81C626.35,515.27,623.27,515,620.18,517.12Z"/><path class="cls-70" d="M603.76,517.12a1.71,1.71,0,0,1,2.45,0A1.71,1.71,0,0,0,603.76,517.12Z"/><path class="cls-70" d="M620.18,517.12c3.84-2.18,6.93-1.64,9.24.77Q624.75,514,620.18,517.12Z"/><path class="cls-56" d="M603.76,526.86a10.39,10.39,0,0,0,7.94,5.93l5.13-1.24,7.91,1.7,1.39,3.24-1.33,7.9L621.72,552l-3.66,6.42-3.12,1.73-4-3-1.71-2.72,1.47-3,.49-2.47,0-5.55-1.85-6.66-3.2-4.58Z"/><polygon class="cls-71" points="600.61 532.97 600.61 537.81 603.05 538.74 606.73 536.65 608.76 539.78 611.3 549.25 611.14 541.19 609.25 535.5 605.95 529.2 600.61 532.97"/><polygon class="cls-58" points="611.91 538.74 611.91 547.46 611.04 556.19 613.33 557.94 618.06 558.46 621.59 549.82 623.87 538.74 621.59 539.62 611.91 538.74"/><path class="cls-72" d="M606.73,525.93c0,4.38-3.73,7-6.12,7s-2.55-2.66-2.55-7,1.94-6.72,4.33-6.72S606.73,521.55,606.73,525.93Z"/><polygon class="cls-52" points="616.7 538.74 609.25 554.51 611.04 556.19 613.76 555.31 614.95 554.65 618.11 554.21 620.18 551.14 620.18 548.07 620.83 543.53 621.59 539.62 616.7 538.74"/><path class="cls-54" d="M629.08,548.33a15.77,15.77,0,0,1,7.85-5.29c3.19-1,6.57-1.24,9.72-2.39,3.39-1.25,6.13-3.73,6.8-7.42.62-3.4-.24-7-.6-10.36a20.34,20.34,0,0,1-.06-5.4c.31-1.91,1-3.72,1.47-5.59.67-2.72-.52-5.07-1.14-7.68h0l-1.45,13.69,1.46,11-5,9.82-16.34,2-3.81,4.5-8.8,15,3.3-1.73C624,556.05,627.36,550.5,629.08,548.33Z"/><polygon class="cls-60" points="614.95 560.19 619.2 560.19 623.11 554.27 626.13 550.48 628 547.46 635.5 534.19 626.13 536.49 621.73 552.04 614.95 560.19"/><path class="cls-61" d="M643.17,509.66l8.5-8.66c2.3,6,1.55,11.48,0,16.89C649.64,513.05,646.75,510.45,643.17,509.66Z"/><polygon class="cls-54" points="614.95 507.03 613.16 512.4 611.04 513.12 611.04 511.14 614.95 507.03"/><polygon class="cls-62" points="626.13 536.49 624.74 533.25 616.83 531.55 634.85 531.55 635.5 534.19 626.13 536.49"/><path class="cls-73" d="M623.57,516.61c-2.07,0-9.08.51-11.54.51A7.93,7.93,0,1,0,612,533c2.14,0,19.7-.41,22.82-1.42s4.23-4.13,4.23-6.32C639.08,520.85,628.06,516.61,623.57,516.61Z"/><ellipse class="cls-64" cx="604.98" cy="523.24" rx="3.26" ry="2.51"/></g><path class="cls-61" d="M599.43,521.84q-7.42-5.34-14.85,0c-.18.12,0,.42.17.29,4.81-3.45,9.7-3.45,14.51,0,.18.13.35-.17.17-.29Z"/><path class="cls-61" d="M661.15,519.14c-11-5-21.3-3.11-30.36,4.8-.17.14.08.38.24.24,8.91-7.77,19.09-9.64,30-4.75.2.09.37-.2.17-.29Z"/><path class="cls-61" d="M601,525.28c-5.68-2.22-10.56-.63-14.44,4-.14.16.1.41.25.24,3.8-4.52,8.52-6.07,14.1-3.89.2.08.29-.25.09-.33Z"/><path class="cls-61" d="M599.54,523c-5.52-2.64-10.47-1.53-14.69,2.82-.15.16.09.4.24.24,4.11-4.23,8.89-5.35,14.28-2.76.19.09.37-.2.17-.3Z"/><path class="cls-61" d="M665.5,531.37c-9.11-7.81-19.42-9.57-30.39-4.5-.2.1,0,.39.17.3,10.82-5,21-3.27,30,4.44.17.14.41-.1.24-.24Z"/><path class="cls-61" d="M664.49,524.74c-10.16-6.51-20.46-6.51-30.62,0-.18.12,0,.42.18.3,10.07-6.46,20.2-6.46,30.27,0,.18.12.35-.18.17-.3Z"/></g></g></g></svg>