<?xml version="1.0" encoding="utf-8"?>
<!-- Generator: Adobe Illustrator 23.0.1, SVG Export Plug-In . SVG Version: 6.00 Build 0)  -->
<svg version="1.1" id="Layer_1" xmlns="http://www.w3.org/2000/svg" xmlns:xlink="http://www.w3.org/1999/xlink" x="0px" y="0px"
	 viewBox="0 0 793 613.94" style="enable-background:new 0 0 793 613.94;" xml:space="preserve">
<style type="text/css">
	.st0{fill:url(#SVGID_1_);}
	.st1{fill:url(#SVGID_2_);}
	.st2{fill:#242E30;}
	.st3{fill:url(#SVGID_3_);}
	.st4{fill:#2E3237;}
	.st5{fill:#625D56;}
	.st6{fill:#E7DED5;}
	.st7{fill:#6F7175;}
	.st8{fill:#363F42;}
	.st9{fill:#2F3E46;}
	.st10{fill:#C1B9AE;}
	.st11{fill:#6D6E64;}
	.st12{fill:url(#SVGID_4_);}
	.st13{opacity:0.44;fill:url(#SVGID_5_);enable-background:new    ;}
	.st14{fill:#565550;}
	.st15{fill:#2E373C;}
	.st16{fill:#979185;}
	.st17{fill:#20201D;}
	.st18{fill:#1C2427;}
	.st19{fill:#07335A;}
	.st20{fill:url(#SVGID_6_);}
	.st21{fill:url(#SVGID_7_);}
	.st22{fill:url(#SVGID_8_);}
	.st23{fill:url(#SVGID_9_);}
	.st24{fill:url(#SVGID_10_);}
	.st25{fill:url(#SVGID_11_);}
	.st26{fill:url(#SVGID_12_);}
	.st27{fill:url(#SVGID_13_);}
	.st28{fill:url(#SVGID_14_);}
	.st29{fill:url(#SVGID_15_);}
	.st30{fill:url(#SVGID_16_);}
	.st31{fill:url(#SVGID_17_);}
	.st32{fill:url(#SVGID_18_);}
	.st33{fill:url(#SVGID_19_);}
	.st34{fill:url(#SVGID_20_);}
	.st35{fill:url(#SVGID_21_);}
	.st36{fill:url(#SVGID_22_);}
	.st37{fill:url(#SVGID_23_);}
	.st38{fill:url(#SVGID_24_);}
	.st39{fill:url(#SVGID_25_);}
	.st40{fill:url(#SVGID_26_);}
	.st41{fill:url(#SVGID_27_);}
	.st42{fill:url(#SVGID_28_);}
	.st43{fill:url(#SVGID_29_);}
	.st44{fill:url(#SVGID_30_);}
	.st45{fill:url(#SVGID_31_);}
	.st46{fill:url(#SVGID_32_);}
	.st47{fill:url(#SVGID_33_);}
	.st48{fill:url(#SVGID_34_);}
	.st49{fill:url(#SVGID_35_);}
	.st50{fill:url(#SVGID_36_);}
	.st51{fill:url(#SVGID_37_);}
	.st52{fill:url(#SVGID_38_);}
	.st53{fill:url(#SVGID_39_);}
	.st54{fill:url(#SVGID_40_);}
	.st55{fill:url(#SVGID_41_);}
	.st56{fill:url(#SVGID_42_);}
	.st57{fill:url(#SVGID_43_);}
	.st58{fill:url(#SVGID_44_);}
	.st59{fill:url(#SVGID_45_);}
	.st60{fill:url(#SVGID_46_);}
	.st61{fill:url(#SVGID_47_);}
	.st62{fill:url(#SVGID_48_);}
	.st63{fill:url(#SVGID_49_);}
	.st64{fill:url(#SVGID_50_);}
	.st65{fill:url(#SVGID_51_);}
	.st66{fill:url(#SVGID_52_);}
	.st67{fill:url(#SVGID_53_);}
	.st68{fill:url(#SVGID_54_);}
	.st69{fill:url(#SVGID_55_);}
	.st70{fill:url(#SVGID_56_);}
	.st71{fill:url(#SVGID_57_);}
	.st72{fill:url(#SVGID_58_);}
	.st73{fill:url(#SVGID_59_);}
	.st74{opacity:0.32;fill:#647D4D;enable-background:new    ;}
	.st75{fill:url(#SVGID_60_);}
	.st76{fill:url(#SVGID_61_);}
	.st77{fill:url(#SVGID_62_);}
	.st78{fill:url(#SVGID_63_);}
	.st79{fill:url(#SVGID_64_);}
	.st80{fill:url(#SVGID_65_);}
	.st81{fill:url(#SVGID_66_);}
	.st82{fill:url(#SVGID_67_);}
	.st83{fill:url(#SVGID_68_);}
	.st84{fill:url(#SVGID_69_);}
	.st85{fill:url(#SVGID_70_);}
	.st86{fill:url(#SVGID_71_);}
	.st87{fill:url(#SVGID_72_);}
	.st88{fill:url(#SVGID_73_);}
	.st89{fill:url(#SVGID_74_);}
	.st90{fill:url(#SVGID_75_);}
	.st91{fill:url(#SVGID_76_);}
	.st92{fill:url(#SVGID_77_);}
	.st93{fill:url(#SVGID_78_);}
	.st94{fill:url(#SVGID_79_);}
	.st95{fill:url(#SVGID_80_);}
	.st96{fill:url(#SVGID_81_);}
	.st97{fill:url(#SVGID_82_);}
	.st98{fill:url(#SVGID_83_);}
	.st99{fill:url(#SVGID_84_);}
	.st100{fill:url(#SVGID_85_);}
	.st101{fill:url(#SVGID_86_);}
	.st102{fill:url(#SVGID_87_);}
	.st103{fill:url(#SVGID_88_);}
	.st104{fill:#222A1D;}
	.st105{fill:url(#SVGID_89_);}
	.st106{fill:url(#SVGID_90_);}
	.st107{fill:url(#SVGID_91_);}
	.st108{fill:url(#SVGID_92_);}
	.st109{fill:url(#SVGID_93_);}
	.st110{fill:url(#SVGID_94_);}
	.st111{fill:url(#SVGID_95_);}
	.st112{fill:url(#SVGID_96_);}
	.st113{fill:url(#SVGID_97_);}
	.st114{fill:url(#SVGID_98_);}
	.st115{fill:url(#SVGID_99_);}
	.st116{fill:url(#SVGID_100_);}
	.st117{fill:url(#SVGID_101_);}
	.st118{fill:url(#SVGID_102_);}
	.st119{fill:url(#SVGID_103_);}
	.st120{fill:url(#SVGID_104_);}
	.st121{fill:url(#SVGID_105_);}
	.st122{fill:url(#SVGID_106_);}
	.st123{fill:url(#SVGID_107_);}
	.st124{fill:url(#SVGID_108_);}
	.st125{fill:url(#SVGID_109_);}
	.st126{fill:url(#SVGID_110_);}
	.st127{fill:url(#SVGID_111_);}
	.st128{fill:url(#SVGID_112_);}
	.st129{fill:url(#SVGID_113_);}
	.st130{fill:url(#SVGID_114_);}
	.st131{fill:#0C100F;}
	.st132{fill:url(#SVGID_115_);}
	.st133{fill:url(#SVGID_116_);}
	.st134{fill:url(#SVGID_117_);}
	.st135{fill:url(#SVGID_118_);}
	.st136{fill:url(#SVGID_119_);}
	.st137{fill:url(#SVGID_120_);}
	.st138{fill:url(#SVGID_121_);}
	.st139{fill:url(#SVGID_122_);}
	.st140{fill:url(#SVGID_123_);}
	.st141{fill:url(#SVGID_124_);}
	.st142{fill:url(#SVGID_125_);}
	.st143{fill:url(#SVGID_126_);}
	.st144{fill:url(#SVGID_127_);}
	.st145{fill:url(#SVGID_128_);}
	.st146{fill:url(#SVGID_129_);}
	.st147{fill:url(#SVGID_130_);}
	.st148{fill:url(#SVGID_131_);}
	.st149{fill:url(#SVGID_132_);}
	.st150{fill:url(#SVGID_133_);}
	.st151{fill:url(#SVGID_134_);}
	.st152{fill:url(#SVGID_135_);}
	.st153{fill:url(#SVGID_136_);}
	.st154{fill:url(#SVGID_137_);}
	.st155{fill:url(#SVGID_138_);}
	.st156{fill:url(#SVGID_139_);}
	.st157{fill:url(#SVGID_140_);}
	.st158{fill:url(#SVGID_141_);}
	.st159{fill:url(#SVGID_142_);}
	.st160{fill:url(#SVGID_143_);}
	.st161{fill:url(#SVGID_144_);}
	.st162{fill:url(#SVGID_145_);}
	.st163{fill:url(#SVGID_146_);}
	.st164{fill:url(#SVGID_147_);}
	.st165{fill:url(#SVGID_148_);}
	.st166{fill:url(#SVGID_149_);}
	.st167{fill:url(#SVGID_150_);}
	.st168{fill:url(#SVGID_151_);}
	.st169{fill:url(#SVGID_152_);}
	.st170{fill:#C7C3C3;}
	.st171{fill:url(#SVGID_153_);}
	.st172{fill:#1E252F;}
	.st173{fill:url(#SVGID_154_);}
	.st174{fill:url(#SVGID_155_);}
	.st175{fill:url(#SVGID_156_);}
	.st176{fill:url(#SVGID_157_);}
	.st177{fill:url(#SVGID_158_);}
	.st178{fill:url(#SVGID_159_);}
	.st179{fill:url(#SVGID_160_);}
</style>
<title>vector_image</title>
<g id="Sky">
	
		<linearGradient id="SVGID_1_" gradientUnits="userSpaceOnUse" x1="165.2036" y1="68.9225" x2="628.2164" y2="-733.0223" gradientTransform="matrix(1 0 0 -1 0 -26.0499)">
		<stop  offset="0" style="stop-color:#3B73AE"/>
		<stop  offset="0.63" style="stop-color:#6AA8E3"/>
		<stop  offset="0.99" style="stop-color:#6EAAE0"/>
	</linearGradient>
	<rect x="0.71" class="st0" width="792" height="612"/>
</g>
<g id="Monument">
	<g id="Left_Back_Part">
		
			<linearGradient id="SVGID_2_" gradientUnits="userSpaceOnUse" x1="402.4209" y1="143.2046" x2="209.5001" y2="336.1154" gradientTransform="matrix(1 0 0 -1 12 645.3901)">
			<stop  offset="0.01" style="stop-color:#888276"/>
			<stop  offset="0.26" style="stop-color:#8C867A"/>
			<stop  offset="0.34" style="stop-color:#999286"/>
			<stop  offset="0.52" style="stop-color:#B1A99B"/>
			<stop  offset="0.7" style="stop-color:#BFB6A8"/>
			<stop  offset="0.84" style="stop-color:#C4BBAC"/>
		</linearGradient>
		<path class="st1" d="M310.79,221.15l1.5-2.67l7.67,2.67l14.5,59.17l29.21,129.15l-4.5,120.84l-15.38,42.51l-35.83,8.33
			l-10.33-9.17l5.5-34c0,0,16.16-25.5,20-31.33c0.33-9.08-7.84-14-7.84-14l7.17-124.33L310.79,221.15z"/>
		<path class="st2" d="M310.79,221.15l1.5-2.67l21.5,188.84c6.75,33.74,5,68.15-4.46,103.15l-15.54,52.18l-5.83,18.5l-10.33-9.17
			l5.5-34c0,0,16.16-25.5,20-31.33c0.33-9.08-7.84-14-7.84-14l7.17-124.33L310.79,221.15z"/>
		
			<linearGradient id="SVGID_3_" gradientUnits="userSpaceOnUse" x1="308.0159" y1="-607.2092" x2="365.2974" y2="-508.0067" gradientTransform="matrix(1 0 0 -1 0 -26.0499)">
			<stop  offset="0.29" style="stop-color:#242520"/>
			<stop  offset="1" style="stop-color:#888276"/>
		</linearGradient>
		<polygon class="st3" points="361.06,479.51 336.33,474.34 308,581.15 343.5,577.49 359.33,530.49 		"/>
	</g>
	<g id="Right_Back">
		<path class="st4" d="M469.37,224.1l7-2.12l2.34,2.34l-16,116.33l35.08,134.33l27.5,5.67l6.67,7l-1.67,1l-74.79,5.82
			c0,0-8.17,12.74-6.83,14.84L471,544.39l1.67,18.25l-51.42,1.19l-16.92-54.19l5.27-83.17L469.37,224.1z"/>
		<polygon class="st5" points="453,498.65 448.67,509.32 439,494.32 450.51,493.49 		"/>
		<path class="st6" d="M476.33,221.98l2.34,2.34l-16,116.33l35.12,134.33l27.5,5.67l6.67,7l-93,6.67c0,0,8.33,12.9,9.67,15
			l22.33,35.08l1.67,18.25l-21.5-5.5l-13.5-60l-2.5-35.33l1.5-19.67L476.33,221.98z"/>
	</g>
	<g id="Right_Front_part">
		<path id="Left_Front_part" class="st7" d="M541,121.32h10l1.83,1.66c0,0-47.83,227-57.83,260.34c-9,32.16,20.48,33.1,28,31l157-44
			l14.33,4.33v4.67c0,0-182.33,76.83-191.33,82.5c-7.5,6.5-5.75,23.25,0.5,24.33c3,1.12,36.5,12.25,36.5,12.25l13,56.58l-61,10.34
			c0,0-36.48-61.65-49.73-86.85c-16.77-31.6-8.65-57.61-3.27-72.6S541,121.32,541,121.32z"/>
		<path id="Left_Front_part-2" class="st8" d="M694.43,375v4.67c0,0-182.33,76.8-191.33,82.5c-7.5,6.5-5.75,23.25,0.5,24.33
			c3,1.12,36.5,12.25,36.5,12.25l-26.6,59.07l-21.4,7.85c0,0-36.49-61.64-49.74-86.89c2.64-2-4.18-8.84,0-10.46
			C505.5,443.82,694.43,375,694.43,375z"/>
	</g>
	<g id="Center_Front_part">
		<polygon class="st9" points="384.67,40.99 391.33,30.32 398.58,40.74 408.75,417.82 408.75,456.32 399,571.32 358.25,571.32 
			359.5,439.82 366.25,353.32 371.25,264.82 379.25,139.82 		"/>
		<polygon class="st10" points="391.4,30.99 398.65,41.4 408.81,418.49 408.81,456.99 388,248.32 		"/>
		<polygon class="st10" points="408.75,461.74 384.67,443.32 384.67,449.99 378.67,448.99 376.67,451.99 376.67,454.99 371,456.99 
			384.67,455.65 385,571.32 399,571.32 		"/>
		<path class="st11" d="M367.67,566.32c0-1,9-111.34,9-111.34l8,0.67v110.67H367.67z"/>
		
			<radialGradient id="SVGID_4_" cx="471.4728" cy="-155.094" r="21.8" gradientTransform="matrix(-0.866 0.5 1 1.7321 960.1047 466.2568)" gradientUnits="userSpaceOnUse">
			<stop  offset="0" style="stop-color:#544F3D"/>
			<stop  offset="0.23" style="stop-color:#494A3F"/>
			<stop  offset="0.58" style="stop-color:#3E4541"/>
			<stop  offset="1" style="stop-color:#3B4442"/>
		</radialGradient>
		<polygon class="st12" points="402,404.99 384.67,434.99 384.67,443.32 408.75,461.74 		"/>
		
			<radialGradient id="SVGID_5_" cx="369.33" cy="-459.1199" r="21.4705" gradientTransform="matrix(1 0 0 -1 0 -26.0499)" gradientUnits="userSpaceOnUse">
			<stop  offset="0" style="stop-color:#544F3D"/>
			<stop  offset="0.23" style="stop-color:#494A3F"/>
			<stop  offset="0.58" style="stop-color:#3E4541"/>
			<stop  offset="1" style="stop-color:#3B4442"/>
		</radialGradient>
		<polygon class="st13" points="362.26,404.4 379.33,434.99 379.33,443.32 359.33,461.74 359.5,439.82 		"/>
	</g>
	<g id="Left_Front_part-3">
		<path class="st14" d="M237.33,118.32l9.84-1l1.83,0.5l24,78.33c0,0,48.83,172.83,59.67,205s2.17,61.08-2,67.5l-69.67,107l-56-6
			l21.33-79.83l25.17-7l-5.33-1.35l8-7.16l13-1.84c0,0,3.58-10.08-4.5-16.83c-4.67-3.89-182.5-86.33-182.5-86.33v-5.34l14.16-3
			c0,0,152.59,48.21,159.92,50c3,4,30,2.21,24.47-23.62L237.33,118.32z"/>
		<path class="st15" d="M312,439.32c8,5.06,15.41,11.17,23.46,16.06c0.4-1.72,0.77-3.56,1.1-5.52c2.68-16.31,1.35-33.03-3.89-48.71
			c-10.84-32.17-59.67-205-59.67-205l-24-78.33l-1.83-0.5l-9.84,1l41.39,269.08c1.92,12.48-6.12,17.56-12.31,21.62
			c10.18,9,21.38,15.29,32.59,23.3C303,435.32,308,437.32,312,439.32z"/>
		<path class="st16" d="M268.64,407.55c19.27,13.07,38.56,24.39,55.86,21.27l13.29,10.06l-11.25,28.94L80.17,363.98l14.16-3
			l159.92,50c5.63,0.17,10.75-0.46,14.39-3.47"/>
		<path class="st17" d="M80.17,364.36v5.33c0,0,177.84,82.44,182.5,86.34c8.08,6.75,4.5,16.83,4.5,16.83l-13,1.83l-8,7.17l5.33,1.33
			c0,0,48.74-9.43,74.5-15.87C304.02,458.34,80.17,364.36,80.17,364.36z"/>
		<path class="st18" d="M263,523.32l-50.5,26.5l-3.54,11.5l-1.71,14.5l59-8.5c0,0,22.24-33.5,21.37-34S273.79,523.57,263,523.32z"/>
		<polygon class="st18" points="226.25,490.32 204.5,573.82 207.25,575.82 227.37,490.94 289.95,475.42 251.5,483.19 		"/>
	</g>
</g>
<g id="Greens">
	<polygon id="top_right_green" class="st19" points="787.33,13.32 782,18.32 782,30.99 790,18.32 793,23.99 793,7.99 	"/>
	<g id="Back_trees">
		
			<linearGradient id="SVGID_6_" gradientUnits="userSpaceOnUse" x1="664.9299" y1="103.1101" x2="664.9799" y2="103.2101" gradientTransform="matrix(1 0 0 -1 12 645.3901)">
			<stop  offset="0" style="stop-color:#0D1209"/>
			<stop  offset="1" style="stop-color:#5E7C4A"/>
		</linearGradient>
		<path class="st20" d="M676.9,542.2c0.04,0.04,0.07,0.08,0.1,0.12c0-0.07-0.07-0.12-0.09-0.18L676.9,542.2z"/>
		
			<linearGradient id="SVGID_7_" gradientUnits="userSpaceOnUse" x1="664.7859" y1="103.1967" x2="665.2159" y2="103.9467" gradientTransform="matrix(1 0 0 -1 12 645.3901)">
			<stop  offset="0" style="stop-color:#0D1209"/>
			<stop  offset="1" style="stop-color:#5E7C4A"/>
		</linearGradient>
		<path class="st21" d="M676.91,542.14c0,0.06,0.06,0.11,0.09,0.18v-1C676.96,541.59,676.94,541.87,676.91,542.14z"/>
		
			<linearGradient id="SVGID_8_" gradientUnits="userSpaceOnUse" x1="635.9503" y1="78.2306" x2="640.3197" y2="85.7995" gradientTransform="matrix(1 0 0 -1 12 645.3901)">
			<stop  offset="0" style="stop-color:#0D1209"/>
			<stop  offset="1" style="stop-color:#5E7C4A"/>
		</linearGradient>
		<path class="st22" d="M662.92,565.71c-8.39-1.45-16.87-3.51-25.57-4.67c3.53,1.44,7.08,2.88,10.65,4.28
			C652.59,567.23,657.62,566.8,662.92,565.71z"/>
		
			<linearGradient id="SVGID_9_" gradientUnits="userSpaceOnUse" x1="597.4946" y1="124.0558" x2="599.8947" y2="128.1958" gradientTransform="matrix(1 0 0 -1 12 645.3901)">
			<stop  offset="0" style="stop-color:#0D1209"/>
			<stop  offset="1" style="stop-color:#5E7C4A"/>
		</linearGradient>
		<path class="st23" d="M606,519.32c3.25-0.43,6.55-0.38,9.79,0.15c-3.21-0.71-6.49-1.09-9.78-1.12L606,519.32z"/>
		
			<linearGradient id="SVGID_10_" gradientUnits="userSpaceOnUse" x1="605.2603" y1="125.0941" x2="605.7102" y2="125.8742" gradientTransform="matrix(1 0 0 -1 12 645.3901)">
			<stop  offset="0" style="stop-color:#0D1209"/>
			<stop  offset="1" style="stop-color:#5E7C4A"/>
		</linearGradient>
		<path class="st24" d="M619.17,520.36c-1.1-0.4-2.23-0.69-3.38-0.89C616.93,519.71,618.06,520.01,619.17,520.36z"/>
		
			<linearGradient id="SVGID_11_" gradientUnits="userSpaceOnUse" x1="591.929" y1="112.3021" x2="597.1259" y2="121.2967" gradientTransform="matrix(1 0 0 -1 12 645.3901)">
			<stop  offset="0" style="stop-color:#0D1209"/>
			<stop  offset="1" style="stop-color:#5E7C4A"/>
		</linearGradient>
		<path class="st25" d="M607,534.32c-3.18-3.48-4.09-8.47-2.33-12.85c-3,4-1.18,9.3,1.33,11.81c0.58,1.02,1.44,1.85,2.48,2.38
			C607.94,535.27,607.44,534.82,607,534.32z"/>
		
			<linearGradient id="SVGID_12_" gradientUnits="userSpaceOnUse" x1="610.1859" y1="120.6613" x2="611.5558" y2="123.0413" gradientTransform="matrix(1 0 0 -1 12 645.3901)">
			<stop  offset="0" style="stop-color:#0D1209"/>
			<stop  offset="1" style="stop-color:#5E7C4A"/>
		</linearGradient>
		<path class="st26" d="M619.17,520.36c3.27,1.09,5.89,3.56,7.17,6.76C626.79,524.01,623.51,521.79,619.17,520.36z"/>
		
			<linearGradient id="SVGID_13_" gradientUnits="userSpaceOnUse" x1="596.9523" y1="109.4172" x2="606.3723" y2="125.7272" gradientTransform="matrix(1 0 0 -1 12 645.3901)">
			<stop  offset="0" style="stop-color:#0D1209"/>
			<stop  offset="1" style="stop-color:#5E7C4A"/>
		</linearGradient>
		<path class="st27" d="M619.17,520.36c-1.11-0.35-2.24-0.65-3.38-0.89c-3.24-0.52-6.53-0.56-9.78-0.12
			c-0.54,0.67-0.98,1.4-1.33,2.19c0.64-0.86,1.43-1.6,2.33-2.19c-0.9,0.59-1.69,1.33-2.33,2.19c-1.74,4.36-0.83,9.34,2.33,12.81
			c0.44,0.51,0.94,0.98,1.48,1.38c3.21,1.64,7.66-0.07,11.52-2.38c1-1,1-4,1-5c0.78-0.79,2.78,0.26,4.58,0.76
			c0.15-0.25,0.29-0.51,0.42-0.76c0.16-0.38,0.28-0.79,0.34-1.2C625.08,523.94,622.45,521.45,619.17,520.36z"/>
		
			<linearGradient id="SVGID_14_" gradientUnits="userSpaceOnUse" x1="601.4316" y1="106.7669" x2="608.6004" y2="119.1848" gradientTransform="matrix(1 0 0 -1 12 645.3901)">
			<stop  offset="0" style="stop-color:#0D1209"/>
			<stop  offset="1" style="stop-color:#5E7C4A"/>
		</linearGradient>
		<path class="st28" d="M621,528.32c0,1,0,4-1,5c-3.86,2.31-8.31,4-11.52,2.38c5.77,4.31,14-1.29,17.1-6.62
			C623.79,528.58,621.79,527.53,621,528.32z"/>
		
			<linearGradient id="SVGID_15_" gradientUnits="userSpaceOnUse" x1="606.6292" y1="136.1286" x2="607.4992" y2="137.6386" gradientTransform="matrix(1 0 0 -1 12 645.3901)">
			<stop  offset="0" style="stop-color:#0D1209"/>
			<stop  offset="1" style="stop-color:#5E7C4A"/>
		</linearGradient>
		<path class="st29" d="M619.13,509.55c-0.08-0.69-0.12-1.39-0.13-2.09C618.86,508.16,618.9,508.88,619.13,509.55z"/>
		
			<linearGradient id="SVGID_16_" gradientUnits="userSpaceOnUse" x1="606.7172" y1="134.8105" x2="609.5976" y2="139.8012" gradientTransform="matrix(1 0 0 -1 12 645.3901)">
			<stop  offset="0" style="stop-color:#0D1209"/>
			<stop  offset="1" style="stop-color:#5E7C4A"/>
		</linearGradient>
		<path class="st30" d="M622.31,506l-1.95-0.72c-0.68,0.56-1.15,1.33-1.36,2.18c0.01,0.7,0.05,1.4,0.13,2.09
			c0.2,0.63,0.49,1.23,0.87,1.77C620.15,509.34,620.97,507.47,622.31,506z"/>
		
			<linearGradient id="SVGID_17_" gradientUnits="userSpaceOnUse" x1="689.4163" y1="85.9049" x2="694.1435" y2="94.1001" gradientTransform="matrix(1 0 0 -1 12 645.3901)">
			<stop  offset="0" style="stop-color:#0D1209"/>
			<stop  offset="1" style="stop-color:#5E7C4A"/>
		</linearGradient>
		<path class="st31" d="M709.79,553.37c-4.22,0.53-8.3,1.89-12,4C701.42,555.38,705.79,554.36,709.79,553.37z"/>
		
			<linearGradient id="SVGID_18_" gradientUnits="userSpaceOnUse" x1="680.3007" y1="82.0864" x2="683.8692" y2="88.2737" gradientTransform="matrix(1 0 0 -1 12 645.3901)">
			<stop  offset="0" style="stop-color:#0D1209"/>
			<stop  offset="1" style="stop-color:#5E7C4A"/>
		</linearGradient>
		<path class="st32" d="M697.02,557.78c-2.27,1.2-4.27,2.85-5.87,4.86l0.59,0.21C693.04,560.74,694.86,558.99,697.02,557.78z"/>
		
			<linearGradient id="SVGID_19_" gradientUnits="userSpaceOnUse" x1="664.1289" y1="87.3607" x2="681.1031" y2="116.7607" gradientTransform="matrix(1 0 0 -1 12 645.3901)">
			<stop  offset="0" style="stop-color:#0D1209"/>
			<stop  offset="1" style="stop-color:#5E7C4A"/>
		</linearGradient>
		<path class="st33" d="M697.02,557.78c0.24-0.15,0.48-0.28,0.73-0.42c3.7-2.11,7.78-3.47,12-4h0.23c-7-15-23-22-33-34c1,2,3,3,3,5
			c-1.62-0.1-3.23-0.39-4.78-0.88c-6.71,1.43-8.78,10.88-13.22,10.88c-1.17,0.23-2.36,0.35-3.56,0.38c0.65,0.65,0.87,1.6,0.59,2.47
			c0.4,0.06,0.81,0.11,1.21,0.15c1.54,0,3.15,0,4.75,0.1c2.73,0,5.42,0.09,7.93,1.36c1.73,0.54,3.17,1.75,4,3.36
			c0-0.27,0-0.55,0.09-0.82v1c1.73,6.94,6.48,13.89,5.74,19.52h0.06l0.18-0.52l-0.18,0.52c2.4-0.13,4.82,0.03,7.18,0.48
			c0.39,0.08,0.77,0.19,1.15,0.32C692.73,560.65,694.73,558.99,697.02,557.78z"/>
		
			<linearGradient id="SVGID_20_" gradientUnits="userSpaceOnUse" x1="616.6074" y1="122.5663" x2="639.9998" y2="163.0803" gradientTransform="matrix(1 0 0 -1 12 645.3901)">
			<stop  offset="0" style="stop-color:#0D1209"/>
			<stop  offset="1" style="stop-color:#5E7C4A"/>
		</linearGradient>
		<path class="st34" d="M629,503.32c-2.83-0.57-6.61,0.15-8.64,2l1.95,0.72c0.64-0.89,1.61-1.49,2.69-1.68c7,2,23,8,15,18
			c-1.5,1.47-3.51,2.3-5.61,2.32c-0.45,0.24-0.91,0.47-1.39,0.68c3.47,1.92,7.09,4,10.8,5.71c1.74-0.19,3.49-0.09,5.2,0.29
			c0.74,0.01,1.46,0.18,2.12,0.52c1.68,0.29,3.32,0.79,4.88,1.48c0.92,0.25,1.76,0.72,2.44,1.38c1.2-0.03,2.39-0.15,3.56-0.38
			c4.44,0,6.51-9.45,13.22-10.88c-11.37-3.56-14.75-17-14.33-28.21c-1.04-0.72-1.51-2.01-1.19-3.23c-1.38,0.18-2.83,0.39-4.37,0.65
			c-12,2-6.5-15.36-10.33-14c-10.33,3.67-15.33-6.33-28.33,4.33c-4.17,3.42-9.94-7.87-9.34-4c1,6.56-1.18,13.61-4.84,20.48
			c6,1.74,11.96,3.68,17.87,5.82C622.39,503.47,626.17,502.75,629,503.32z"/>
		
			<linearGradient id="SVGID_21_" gradientUnits="userSpaceOnUse" x1="582.9717" y1="87.7735" x2="611.9625" y2="137.9902" gradientTransform="matrix(1 0 0 -1 12 645.3901)">
			<stop  offset="0" style="stop-color:#0D1209"/>
			<stop  offset="1" style="stop-color:#5E7C4A"/>
		</linearGradient>
		<path class="st35" d="M578.73,548.24c17-1.86,32.7,2.74,48.26,8.69c-0.19-4.07,0.56-8.13,2.2-11.86c2.22-7.11,7.3-13.23,14.61-14
			c-3.71-1.71-7.33-3.79-10.8-5.71c0.48-0.21,0.94-0.44,1.39-0.68c-4.39-0.03-8.55-1.98-11.39-5.32c-1.7-1.7-3.4-5.58-3.87-9.77
			c-0.23-0.67-0.27-1.39-0.13-2.09l0,0c0.21-0.85,0.68-1.62,1.36-2.18c-5.91-2.15-11.87-4.09-17.87-5.82
			c-8.48,15.89-24.9,30.74-28.16,35.86C570.38,541.52,576.7,546.77,578.73,548.24z M604.67,521.47c0.35-0.79,0.79-1.52,1.33-2.19v-1
			c3.3,0.05,6.58,0.45,9.79,1.19c1.15,0.21,2.29,0.51,3.39,0.92c4.34,1.43,7.63,3.65,7.17,6.76c0.29,0.71,0.51,1.45,0.66,2.2
			c-0.48-0.02-0.96-0.1-1.42-0.24c-3.14,5.33-11.33,10.93-17.1,6.62c-1.04-0.53-1.9-1.36-2.48-2.38
			C603.49,530.81,601.7,525.52,604.67,521.47z"/>
		
			<linearGradient id="SVGID_22_" gradientUnits="userSpaceOnUse" x1="615.4926" y1="124.7299" x2="622.7232" y2="137.2609" gradientTransform="matrix(1 0 0 -1 12 645.3901)">
			<stop  offset="0" style="stop-color:#0D1209"/>
			<stop  offset="1" style="stop-color:#5E7C4A"/>
		</linearGradient>
		<path class="st36" d="M634.39,524.64c2.1-0.02,4.11-0.85,5.61-2.32c8-10-8-16-15-18c-1.08,0.19-2.05,0.79-2.69,1.68
			c5.95,2.21,11.85,4.65,17.69,7.32C643.72,515.18,640.51,521.38,634.39,524.64z"/>
		
			<linearGradient id="SVGID_23_" gradientUnits="userSpaceOnUse" x1="613.5214" y1="123.6003" x2="620.8099" y2="136.2277" gradientTransform="matrix(1 0 0 -1 12 645.3901)">
			<stop  offset="0" style="stop-color:#0D1209"/>
			<stop  offset="1" style="stop-color:#5E7C4A"/>
		</linearGradient>
		<path class="st37" d="M619.13,509.55c0.47,4.19,2.17,8.07,3.87,9.77c2.84,3.34,7,5.29,11.39,5.32c6.12-3.26,9.33-9.46,5.61-11.32
			c-5.84-2.67-11.74-5.11-17.69-7.32c-1.34,1.47-2.16,3.34-2.31,5.32C619.62,510.78,619.33,510.18,619.13,509.55z"/>
		
			<linearGradient id="SVGID_24_" gradientUnits="userSpaceOnUse" x1="614.0222" y1="116.0488" x2="615.0614" y2="117.8475" gradientTransform="matrix(1 0 0 -1 12 645.3901)">
			<stop  offset="0" style="stop-color:#0D1209"/>
			<stop  offset="1" style="stop-color:#5E7C4A"/>
		</linearGradient>
		<path class="st38" d="M626,528.32c-0.13,0.25-0.27,0.51-0.42,0.76c0.46,0.14,0.94,0.22,1.42,0.24c-0.15-0.75-0.37-1.49-0.66-2.2
			C626.28,527.53,626.16,527.94,626,528.32z"/>
		
			<linearGradient id="SVGID_25_" gradientUnits="userSpaceOnUse" x1="664.2694" y1="87.172" x2="671.3632" y2="99.4585" gradientTransform="matrix(1 0 0 -1 12 645.3901)">
			<stop  offset="0" style="stop-color:#0D1209"/>
			<stop  offset="1" style="stop-color:#5E7C4A"/>
		</linearGradient>
		<path class="st39" d="M677,542.32c-0.03-0.04-0.06-0.08-0.1-0.12c-0.79,7.43,0.27,14,5.66,19.65h0.23
			C683.48,556.21,678.73,549.26,677,542.32z"/>
		
			<linearGradient id="SVGID_26_" gradientUnits="userSpaceOnUse" x1="656.2755" y1="106.0653" x2="657.6743" y2="108.4835" gradientTransform="matrix(1 0 0 -1 12 645.3901)">
			<stop  offset="0" style="stop-color:#0D1209"/>
			<stop  offset="1" style="stop-color:#5E7C4A"/>
		</linearGradient>
		<path class="st40" d="M664.99,537.47c2.7,0.05,5.37,0.51,7.93,1.36C670.41,537.47,667.72,537.41,664.99,537.47z"/>
		
			<linearGradient id="SVGID_27_" gradientUnits="userSpaceOnUse" x1="662.6606" y1="104.4865" x2="663.2106" y2="105.4365" gradientTransform="matrix(1 0 0 -1 12 645.3901)">
			<stop  offset="0" style="stop-color:#0D1209"/>
			<stop  offset="1" style="stop-color:#5E7C4A"/>
		</linearGradient>
		<path class="st41" d="M676.9,542.2v-0.06c-0.83-1.61-2.27-2.82-4-3.36C674.48,539.6,675.85,540.77,676.9,542.2z"/>
		
			<linearGradient id="SVGID_28_" gradientUnits="userSpaceOnUse" x1="634.7222" y1="112.6788" x2="636.2021" y2="115.2388" gradientTransform="matrix(1 0 0 -1 12 645.3901)">
			<stop  offset="0" style="stop-color:#0D1209"/>
			<stop  offset="1" style="stop-color:#5E7C4A"/>
		</linearGradient>
		<path class="st42" d="M651.12,531.84c-0.66-0.34-1.38-0.51-2.12-0.52c-1.71-0.38-3.46-0.48-5.2-0.29
			c0.54,0.25,1.08,0.49,1.63,0.72C647.32,531.48,649.24,531.51,651.12,531.84z"/>
		
			<linearGradient id="SVGID_29_" gradientUnits="userSpaceOnUse" x1="620.116" y1="98.6301" x2="629.947" y2="115.6517" gradientTransform="matrix(1 0 0 -1 12 645.3901)">
			<stop  offset="0" style="stop-color:#0D1209"/>
			<stop  offset="1" style="stop-color:#5E7C4A"/>
		</linearGradient>
		<path class="st43" d="M629.19,545.07c3.06-7,9-12.31,16.24-13.32c-0.55-0.23-1.09-0.47-1.63-0.72
			C636.49,531.84,631.41,537.96,629.19,545.07z"/>
		
			<linearGradient id="SVGID_30_" gradientUnits="userSpaceOnUse" x1="637.2969" y1="111.4118" x2="638.6872" y2="113.8123" gradientTransform="matrix(1 0 0 -1 12 645.3901)">
			<stop  offset="0" style="stop-color:#0D1209"/>
			<stop  offset="1" style="stop-color:#5E7C4A"/>
		</linearGradient>
		<path class="st44" d="M651.12,531.84c-1.88-0.33-3.8-0.36-5.69-0.09c2.81,1.24,5.75,2.13,8.78,2.65
			C653.34,533.37,652.29,532.51,651.12,531.84z"/>
		
			<linearGradient id="SVGID_31_" gradientUnits="userSpaceOnUse" x1="635.067" y1="76.8669" x2="654.4276" y2="110.3953" gradientTransform="matrix(1 0 0 -1 12 645.3901)">
			<stop  offset="0" style="stop-color:#0D1209"/>
			<stop  offset="1" style="stop-color:#5E7C4A"/>
		</linearGradient>
		<path class="st45" d="M629.19,545.07c-1.05,3.31-1.45,6.79-1.19,10.25C627.74,551.86,628.14,548.38,629.19,545.07
			c-1.64,3.73-2.39,7.79-2.2,11.86l1,0.39l0,0h0.11c-0.09-1-0.13-2-0.11-3c-0.02,1,0.02,2,0.11,3c3.08,1.2,6.15,2.44,9.24,3.68
			c8.7,1.16,17.18,3.22,25.57,4.67c6.26-1.29,12.9-3.49,19.64-3.86c-5.39-5.67-6.45-12.22-5.66-19.65c-1.05-1.43-2.42-2.6-4-3.42
			c-2.55-0.82-5.22-1.25-7.9-1.27c-1.59,0-3.18,0-4.75-0.1H659c0-0.05,0-0.1,0-0.15c-1.03-0.16-2.04-0.45-3-0.85
			c-0.59-0.59-1.17-1.26-1.79-1.92c-3.03-0.52-5.97-1.41-8.78-2.65C638.21,532.76,632.25,538.07,629.19,545.07z"/>
		
			<linearGradient id="SVGID_32_" gradientUnits="userSpaceOnUse" x1="642.1443" y1="111.0233" x2="643.1644" y2="112.7833" gradientTransform="matrix(1 0 0 -1 12 645.3901)">
			<stop  offset="0" style="stop-color:#0D1209"/>
			<stop  offset="1" style="stop-color:#5E7C4A"/>
		</linearGradient>
		<path class="st46" d="M658.44,534.7c-0.68-0.66-1.52-1.13-2.44-1.38c-1.56-0.69-3.2-1.19-4.88-1.48c1.17,0.67,2.22,1.53,3.09,2.56
			C655.61,534.62,657.02,534.72,658.44,534.7z"/>
		
			<linearGradient id="SVGID_33_" gradientUnits="userSpaceOnUse" x1="644.235" y1="108.935" x2="645.545" y2="111.2149" gradientTransform="matrix(1 0 0 -1 12 645.3901)">
			<stop  offset="0" style="stop-color:#0D1209"/>
			<stop  offset="1" style="stop-color:#5E7C4A"/>
		</linearGradient>
		<path class="st47" d="M659.03,537.17c0.28-0.87,0.06-1.82-0.59-2.47c-1.42,0.02-2.83-0.08-4.23-0.3c0.62,0.66,1.2,1.33,1.79,1.92
			C656.97,536.72,657.99,537.01,659.03,537.17z"/>
		
			<linearGradient id="SVGID_34_" gradientUnits="userSpaceOnUse" x1="650.0654" y1="107.0154" x2="651.2047" y2="108.9943" gradientTransform="matrix(1 0 0 -1 12 645.3901)">
			<stop  offset="0" style="stop-color:#0D1209"/>
			<stop  offset="1" style="stop-color:#5E7C4A"/>
		</linearGradient>
		<path class="st48" d="M664.99,537.47c-1.6-0.08-3.21-0.1-4.75-0.1C661.79,537.47,663.4,537.47,664.99,537.47z"/>
		
			<linearGradient id="SVGID_35_" gradientUnits="userSpaceOnUse" x1="647.4462" y1="107.8223" x2="647.7562" y2="108.3522" gradientTransform="matrix(1 0 0 -1 12 645.3901)">
			<stop  offset="0" style="stop-color:#0D1209"/>
			<stop  offset="1" style="stop-color:#5E7C4A"/>
		</linearGradient>
		<path class="st49" d="M660.24,537.32c-0.4,0-0.81-0.09-1.21-0.15c0,0.05,0,0.1,0,0.15H660.24z"/>
		
			<linearGradient id="SVGID_36_" gradientUnits="userSpaceOnUse" x1="615.9882" y1="87.3493" x2="616.3182" y2="87.9093" gradientTransform="matrix(1 0 0 -1 12 645.3901)">
			<stop  offset="0" style="stop-color:#0D1209"/>
			<stop  offset="1" style="stop-color:#5E7C4A"/>
		</linearGradient>
		<path class="st50" d="M628.11,557.36H628c0.08,0.29,0.17,0.58,0.26,0.88C628.2,557.95,628.15,557.65,628.11,557.36z"/>
		
			<linearGradient id="SVGID_37_" gradientUnits="userSpaceOnUse" x1="616.23" y1="86.4301" x2="616.57" y2="87.0101" gradientTransform="matrix(1 0 0 -1 12 645.3901)">
			<stop  offset="0" style="stop-color:#0D1209"/>
			<stop  offset="1" style="stop-color:#5E7C4A"/>
		</linearGradient>
		<path class="st51" d="M628.26,558.2c0.07,0.32,0.16,0.63,0.28,0.94C628.44,558.82,628.35,558.47,628.26,558.2z"/>
		
			<linearGradient id="SVGID_38_" gradientUnits="userSpaceOnUse" x1="584.1264" y1="72.3228" x2="598.9118" y2="97.9348" gradientTransform="matrix(1 0 0 -1 12 645.3901)">
			<stop  offset="0" style="stop-color:#0D1209"/>
			<stop  offset="1" style="stop-color:#5E7C4A"/>
		</linearGradient>
		<path class="st52" d="M628.26,558.2c-0.09-0.3-0.18-0.59-0.26-0.88l-1-0.39c0,0.13,0,0.26,0,0.39c0-0.13,0-0.26,0-0.39
			c-15.56-6-31.22-10.55-48.26-8.69c0.37,0.27,0.6,0.41,0.6,0.41l5.67,18h46.54c-1.24-2.4-2.24-4.92-3-7.51
			C628.43,558.83,628.33,558.52,628.26,558.2z"/>
		
			<linearGradient id="SVGID_39_" gradientUnits="userSpaceOnUse" x1="630.3581" y1="72.4948" x2="639.7668" y2="88.7927" gradientTransform="matrix(1 0 0 -1 12 645.3901)">
			<stop  offset="0" style="stop-color:#0D1209"/>
			<stop  offset="1" style="stop-color:#5E7C4A"/>
		</linearGradient>
		<path class="st53" d="M662.92,565.71c-5.3,1.09-10.33,1.52-14.92-0.39c-3.57-1.4-7.12-2.84-10.65-4.28
			c-2.44-0.32-4.88-0.58-7.35-0.72c2.47,0.14,4.91,0.4,7.35,0.72c-3.09-1.24-6.16-2.48-9.24-3.68c0.04,0.29,0.09,0.57,0.15,0.84
			c0.09,0.31,0.18,0.62,0.28,0.94c0.33,0.82,0.83,1.56,1.46,2.18c-0.63-0.62-1.13-1.36-1.46-2.18c0.76,2.59,1.76,5.11,3,7.51h37.64
			C667.09,566.39,665.01,566.07,662.92,565.71z"/>
		
			<linearGradient id="SVGID_40_" gradientUnits="userSpaceOnUse" x1="668.5882" y1="78.6774" x2="670.9682" y2="82.7874" gradientTransform="matrix(1 0 0 -1 12 645.3901)">
			<stop  offset="0" style="stop-color:#0D1209"/>
			<stop  offset="1" style="stop-color:#5E7C4A"/>
		</linearGradient>
		<path class="st54" d="M682.63,562.4c-0.41,1.55-1.14,3-2.15,4.25h0.6c0.36-0.76,0.67-1.53,0.92-2.33
			C682.3,563.71,682.51,563.07,682.63,562.4z"/>
		
			<linearGradient id="SVGID_41_" gradientUnits="userSpaceOnUse" x1="672.0969" y1="76.9962" x2="676.3561" y2="84.365" gradientTransform="matrix(1 0 0 -1 12 645.3901)">
			<stop  offset="0" style="stop-color:#0D1209"/>
			<stop  offset="1" style="stop-color:#5E7C4A"/>
		</linearGradient>
		<path class="st55" d="M691.15,562.64c-0.38-0.13-0.76-0.24-1.15-0.32c-2.36-0.45-4.78-0.61-7.18-0.48
			c-0.02,0.07-0.04,0.14-0.07,0.21l0.25,0.27l-0.25-0.27l-0.12,0.35c-0.12,0.67-0.33,1.31-0.63,1.92c-0.25,0.8-0.56,1.57-0.92,2.33
			h9.09c0.1-0.38,0.2-0.74,0.32-1.09C690.19,564.54,690.44,563.43,691.15,562.64z"/>
		
			<linearGradient id="SVGID_42_" gradientUnits="userSpaceOnUse" x1="678.0761" y1="80.07" x2="679.5665" y2="82.6407" gradientTransform="matrix(1 0 0 -1 12 645.3901)">
			<stop  offset="0" style="stop-color:#0D1209"/>
			<stop  offset="1" style="stop-color:#5E7C4A"/>
		</linearGradient>
		<path class="st56" d="M691.15,562.64c-0.71,0.79-0.96,1.9-0.66,2.92c0.31-0.95,0.73-1.86,1.25-2.71L691.15,562.64z"/>
		
			<linearGradient id="SVGID_43_" gradientUnits="userSpaceOnUse" x1="657.7697" y1="75.7264" x2="664.3489" y2="87.125" gradientTransform="matrix(1 0 0 -1 12 645.3901)">
			<stop  offset="0" style="stop-color:#0D1209"/>
			<stop  offset="1" style="stop-color:#5E7C4A"/>
		</linearGradient>
		<path class="st57" d="M682.56,561.85c-6.74,0.37-13.38,2.57-19.64,3.86c2.09,0.36,4.17,0.68,6.26,0.94h11.3
			c1.01-1.25,1.74-2.7,2.15-4.25c0-0.13,0.07-0.25,0.09-0.38L682.56,561.85z"/>
		
			<linearGradient id="SVGID_44_" gradientUnits="userSpaceOnUse" x1="670.5798" y1="83.0198" x2="670.7698" y2="83.3398" gradientTransform="matrix(1 0 0 -1 12 645.3901)">
			<stop  offset="0" style="stop-color:#0D1209"/>
			<stop  offset="1" style="stop-color:#5E7C4A"/>
		</linearGradient>
		<path class="st58" d="M682.72,562.02c0,0.13-0.06,0.25-0.09,0.38l0.12-0.35L682.72,562.02z"/>
		
			<linearGradient id="SVGID_45_" gradientUnits="userSpaceOnUse" x1="670.6243" y1="83.4276" x2="670.7043" y2="83.5676" gradientTransform="matrix(1 0 0 -1 12 645.3901)">
			<stop  offset="0" style="stop-color:#0D1209"/>
			<stop  offset="1" style="stop-color:#5E7C4A"/>
		</linearGradient>
		<path class="st59" d="M682.56,561.85l0.16,0.17c0-0.06,0-0.12,0-0.18L682.56,561.85z"/>
		
			<linearGradient id="SVGID_46_" gradientUnits="userSpaceOnUse" x1="670.7283" y1="83.3536" x2="670.8384" y2="83.5436" gradientTransform="matrix(1 0 0 -1 12 645.3901)">
			<stop  offset="0" style="stop-color:#0D1209"/>
			<stop  offset="1" style="stop-color:#5E7C4A"/>
		</linearGradient>
		<path class="st60" d="M682.79,561.84L682.79,561.84c0,0.06,0,0.12,0,0.18l0,0C682.79,561.96,682.79,561.9,682.79,561.84z"/>
		
			<linearGradient id="SVGID_47_" gradientUnits="userSpaceOnUse" x1="678.5124" y1="78.5387" x2="679.0624" y2="79.4987" gradientTransform="matrix(1 0 0 -1 12 645.3901)">
			<stop  offset="0" style="stop-color:#0D1209"/>
			<stop  offset="1" style="stop-color:#5E7C4A"/>
		</linearGradient>
		<path class="st61" d="M690.49,565.56c-0.12,0.35-0.22,0.71-0.32,1.09h1.22l-0.39-0.33C690.78,566.1,690.61,565.85,690.49,565.56z"
			/>
		
			<linearGradient id="SVGID_48_" gradientUnits="userSpaceOnUse" x1="680.9005" y1="77.8667" x2="682.6805" y2="80.9567" gradientTransform="matrix(1 0 0 -1 12 645.3901)">
			<stop  offset="0" style="stop-color:#0D1209"/>
			<stop  offset="1" style="stop-color:#5E7C4A"/>
		</linearGradient>
		<path class="st62" d="M691.79,562.85c-0.52,0.85-0.94,1.76-1.25,2.71c0.12,0.29,0.29,0.54,0.51,0.76l0.39,0.33h5.77
			C695.63,565.08,693.8,563.8,691.79,562.85z"/>
		
			<linearGradient id="SVGID_49_" gradientUnits="userSpaceOnUse" x1="749.3882" y1="78.101" x2="751.8567" y2="82.3883" gradientTransform="matrix(1 0 0 -1 12 645.3901)">
			<stop  offset="0" style="stop-color:#0D1209"/>
			<stop  offset="1" style="stop-color:#5E7C4A"/>
		</linearGradient>
		<path class="st63" d="M763.46,566.65c-0.48-1.42-0.77-2.9-0.88-4.39c-0.65,1.52-1.41,2.99-2.29,4.39H763.46z"/>
		
			<linearGradient id="SVGID_50_" gradientUnits="userSpaceOnUse" x1="685.2037" y1="87.5079" x2="685.5638" y2="88.1279" gradientTransform="matrix(1 0 0 -1 12 645.3901)">
			<stop  offset="0" style="stop-color:#0D1209"/>
			<stop  offset="1" style="stop-color:#5E7C4A"/>
		</linearGradient>
		<path class="st64" d="M697.02,557.78l0.73-0.42C697.5,557.47,697.26,557.63,697.02,557.78z"/>
		
			<linearGradient id="SVGID_51_" gradientUnits="userSpaceOnUse" x1="700.8606" y1="69.7044" x2="733.5195" y2="126.2751" gradientTransform="matrix(1 0 0 -1 12 645.3901)">
			<stop  offset="0" style="stop-color:#0D1209"/>
			<stop  offset="1" style="stop-color:#5E7C4A"/>
		</linearGradient>
		<path class="st65" d="M767.35,541.93c0.19-3.36-0.33-6.72-1.52-9.87c-2.13-2.37-5.25-4.19-7.83-5.74c1,1-1,2,1,2
			c-6.18,0-12.35-1.8-16.23-5.85c-1.03-0.55-1.98-1.24-2.81-2.07c-8,18.86-31-1.07-41,6.92c-7,6,8,17,12,26c-0.4,0-0.81,0-1.23,0
			c-4,1-8.35,2-12,4l-0.73,0.42c-2.16,1.21-3.98,2.96-5.28,5.07c2.01,0.95,3.84,2.23,5.42,3.8h63.15c0.88-1.4,1.64-2.87,2.29-4.39
			C762.05,555.64,764.79,548.47,767.35,541.93z"/>
		
			<linearGradient id="SVGID_52_" gradientUnits="userSpaceOnUse" x1="752.6484" y1="105.0309" x2="756.5417" y2="111.7766" gradientTransform="matrix(1 0 0 -1 12 645.3901)">
			<stop  offset="0" style="stop-color:#0D1209"/>
			<stop  offset="1" style="stop-color:#5E7C4A"/>
		</linearGradient>
		<path class="st66" d="M767.35,541.93l0.65-1.61c0.86-2.94,0.03-6.12-2.17-8.26C767.02,535.21,767.54,538.57,767.35,541.93z"/>
		
			<linearGradient id="SVGID_53_" gradientUnits="userSpaceOnUse" x1="671.4373" y1="107.3057" x2="716.5432" y2="185.4266" gradientTransform="matrix(1 0 0 -1 12 645.3901)">
			<stop  offset="0" style="stop-color:#0D1209"/>
			<stop  offset="1" style="stop-color:#5E7C4A"/>
		</linearGradient>
		<path class="st67" d="M699,527.32c10-8,32.93,11.94,41-6.92c-0.35-0.34-0.69-0.7-1-1.08c0,1-2,2-2,3c0-1,2-2,2-3
			c0.31,0.38,0.65,0.74,1,1.08c0-0.03,0-0.05,0-0.08c0,0.03,0,0.05,0,0.08c0.82,0.82,1.76,1.52,2.79,2.07
			c-1.17-1.2-2.11-2.61-2.77-4.15c-6.76-13.52-0.47-30.76-1.83-46.34c-3.06-3.06-5.59-6.59-7.5-10.47
			c-2.35-4.42-8.67,12.81-22.34,4.47c-30.54-18.62-33.33,15.67-30.33,21c2.74,4.88-3.37,3.05-18.3,5c-0.32,1.22,0.15,2.51,1.19,3.23
			c0-0.64,0.06-1.28,0.11-1.91c-0.05,0.63-0.08,1.27-0.11,1.91l0.11,0.09l-0.11-0.09c-0.42,11.25,3,24.65,14.33,28.21
			c0.91-0.19,1.85-0.23,2.78-0.12c-0.93-0.11-1.87-0.07-2.78,0.12c1.55,0.49,3.16,0.78,4.78,0.88c0-2-2-3-3-5c10,12,26,19,33,34
			h-0.23c0.42,0,0.83,0,1.23,0C707,544.32,692,533.32,699,527.32z"/>
		
			<linearGradient id="SVGID_54_" gradientUnits="userSpaceOnUse" x1="741.1807" y1="116.1897" x2="744.3936" y2="121.7447" gradientTransform="matrix(1 0 0 -1 12 645.3901)">
			<stop  offset="0" style="stop-color:#0D1209"/>
			<stop  offset="1" style="stop-color:#5E7C4A"/>
		</linearGradient>
		<path class="st68" d="M759,528.32c-2,0,0-1-1-2c2.58,1.55,5.7,3.37,7.83,5.74c-0.24-0.6-0.52-1.18-0.83-1.74
			c-3.38-7.6-14.6-3.79-22.23-7.85C746.65,526.52,752.79,528.32,759,528.32z"/>
		
			<linearGradient id="SVGID_55_" gradientUnits="userSpaceOnUse" x1="732.5693" y1="89.6584" x2="781.339" y2="174.1278" gradientTransform="matrix(1 0 0 -1 12 645.3901)">
			<stop  offset="0" style="stop-color:#0D1209"/>
			<stop  offset="1" style="stop-color:#5E7C4A"/>
		</linearGradient>
		<path class="st69" d="M793,566.65c0,0,0-54.13-0.47-92.73c-8.06,0.66-15.85,4.2-22.53,9.4c6.68-5.2,14.47-8.74,22.53-9.4
			c0-0.64,0-1.27,0-1.9c-4.93-4.29-10.55-7.7-16.63-10.1c-1.06,1.35-1.27,3.18-0.55,4.73c3,7,0.67,7.33-5,8.67s4.34,16-4,10.33
			s2-4.67-2.66-12.67c-3.9-6.67-13.37,10.32-25.5-1c1.36,15.58-4.93,32.82,1.83,46.34c0.66,1.54,1.6,2.95,2.77,4.15
			c7.63,4.06,18.85,0.25,22.23,7.85c0.31,0.56,0.59,1.14,0.83,1.74c2.2,2.14,3.03,5.32,2.17,8.26l-0.65,1.61
			c-0.2,7-2.47,14.38-4.35,19.39c-0.13,0.32-0.28,0.62-0.42,0.94c0.11,1.49,0.4,2.97,0.88,4.39H793z"/>
		
			<linearGradient id="SVGID_56_" gradientUnits="userSpaceOnUse" x1="747.9653" y1="84.6405" x2="757.9647" y2="101.9495" gradientTransform="matrix(1 0 0 -1 12 645.3901)">
			<stop  offset="0" style="stop-color:#0D1209"/>
			<stop  offset="1" style="stop-color:#5E7C4A"/>
		</linearGradient>
		<path class="st70" d="M767.35,541.93c-2.59,6.5-5.3,13.71-4.77,20.33c0.14-0.32,0.29-0.62,0.42-0.94
			C764.88,556.31,767.15,548.94,767.35,541.93z"/>
		
			<linearGradient id="SVGID_57_" gradientUnits="userSpaceOnUse" x1="772.0858" y1="178.2306" x2="776.9953" y2="186.7399" gradientTransform="matrix(1 0 0 -1 12 645.3901)">
			<stop  offset="0" style="stop-color:#0D1209"/>
			<stop  offset="1" style="stop-color:#5E7C4A"/>
		</linearGradient>
		<path class="st71" d="M778.23,459.62c-0.89,0.65-1.68,1.42-2.35,2.3c6.08,2.4,11.7,5.81,16.63,10.1c-0.05-4-0.11-7.87-0.17-11.44
			C787.65,460.21,782.95,459.86,778.23,459.62z"/>
		
			<linearGradient id="SVGID_58_" gradientUnits="userSpaceOnUse" x1="767.3792" y1="186.7963" x2="780.6692" y2="209.8163" gradientTransform="matrix(1 0 0 -1 12 645.3901)">
			<stop  offset="0" style="stop-color:#0D1209"/>
			<stop  offset="1" style="stop-color:#5E7C4A"/>
		</linearGradient>
		<path class="st72" d="M791.33,435.98c-1.66-3.66,0,0-9.33-4.66l3.33,7c3.34,7-2,2.33-8,6.66s1.67,2.67,8,6.67
			c3.69,2.33-1.49,4.23-5.78,7l12.76,0.28C792.08,446,791.79,436.92,791.33,435.98z"/>
		
			<linearGradient id="SVGID_59_" gradientUnits="userSpaceOnUse" x1="771.7409" y1="182.5923" x2="775.5409" y2="189.1823" gradientTransform="matrix(1 0 0 -1 12 645.3901)">
			<stop  offset="0" style="stop-color:#0D1209"/>
			<stop  offset="1" style="stop-color:#5E7C4A"/>
		</linearGradient>
		<path class="st73" d="M792.31,458.97l-12.76-0.28c-0.45,0.3-0.9,0.61-1.32,0.93c4.72,0.24,9.42,0.59,14.11,1L792.31,458.97z"/>
	</g>
	<path id="Bottom_Grass_Highlights" class="st74" d="M413.61,576.23l-0.61,8.55l-16-3.62l-13.67-14.51
		C385,563.32,413.61,576.23,413.61,576.23z M500.67,579.32l-20,3.33L461,581.16l-15.67,5.66L473,597.98l35.67,2.67v7.67l37.33-18
		l-12.67-9.16L500.67,579.32z M589,590.32l-36.51,7l-25.2,9.15l-6.29,4.81h46.33l32.67-17.5l6-3.5L589,590.32z M671.93,561.53
		l-20.68,6.79l-17.92-6.79L619,571.32v7.56l72.67-8.68l17.66-11.22L671.93,561.53z"/>
	<g id="Bottom_Grass">
		
			<linearGradient id="SVGID_60_" gradientUnits="userSpaceOnUse" x1="64.42" y1="83.23" x2="64.42" y2="88.1901" gradientTransform="matrix(1 0 0 -1 12 645.3901)">
			<stop  offset="0" style="stop-color:#0D1209"/>
			<stop  offset="1" style="stop-color:#3B5436"/>
		</linearGradient>
		<path class="st75" d="M78.05,557.47l-0.61-0.23c-0.74,1.65-1.62,3.23-2.65,4.72c0,0.07,0,0.13,0,0.2
			C75.95,560.62,77.02,559.02,78.05,557.47z"/>
		
			<linearGradient id="SVGID_61_" gradientUnits="userSpaceOnUse" x1="58.7618" y1="74.77" x2="58.7618" y2="83.4301" gradientTransform="matrix(1 0 0 -1 12 645.3901)">
			<stop  offset="0" style="stop-color:#0D1209"/>
			<stop  offset="1" style="stop-color:#3B5436"/>
		</linearGradient>
		<path class="st76" d="M66.71,570.62c3.13-2.37,5.87-5.23,8.1-8.46c0-0.07,0-0.13,0-0.2C72.58,565.25,69.85,568.18,66.71,570.62z"
			/>
		
			<linearGradient id="SVGID_62_" gradientUnits="userSpaceOnUse" x1="64.7651" y1="62.48" x2="64.7651" y2="75.2601" gradientTransform="matrix(1 0 0 -1 12 645.3901)">
			<stop  offset="0" style="stop-color:#0D1209"/>
			<stop  offset="1" style="stop-color:#3B5436"/>
		</linearGradient>
		<path class="st77" d="M76.72,582.91c2-4,1-8.65-1-12.78C76.53,574.34,76.87,578.63,76.72,582.91z"/>
		
			<linearGradient id="SVGID_63_" gradientUnits="userSpaceOnUse" x1="61.3618" y1="59.11" x2="61.3618" y2="80.0701" gradientTransform="matrix(1 0 0 -1 12 645.3901)">
			<stop  offset="0" style="stop-color:#0D1209"/>
			<stop  offset="1" style="stop-color:#3B5436"/>
		</linearGradient>
		<path class="st78" d="M69.97,585.63c1.33,0.36,2.69,0.58,4.07,0.65c1.11-0.93,2.02-2.08,2.68-3.37c0.15-4.28-0.19-8.57-1-12.78
			c-0.8-1.67-1.72-3.28-2.75-4.81c0.13,0.74,0.3,1.46,0.51,2.18c0.13,0.05,0.29,0,0.49-0.18c-0.2,0.2-0.36,0.23-0.49,0.18
			c1.55,5.44,5,11.29,1.49,14.82C73.69,583.91,71.94,585.07,69.97,585.63z"/>
		
			<linearGradient id="SVGID_64_" gradientUnits="userSpaceOnUse" x1="50.8391" y1="59.391" x2="50.8391" y2="66.3701" gradientTransform="matrix(1 0 0 -1 12 645.3901)">
			<stop  offset="0" style="stop-color:#0D1209"/>
			<stop  offset="1" style="stop-color:#3B5436"/>
		</linearGradient>
		<path class="st79" d="M69.97,585.63c-4.66-1.22-8.77-3.94-13.12-6.61c-0.33,0.33-0.68,0.63-1.05,0.91
			c-0.17,0.47-0.1,0.99,0.2,1.39c2.57,2.24,5.67,3.78,9,4.48c1-0.19,2-0.36,3-0.48c-1.06,0.12-2,0.29-3,0.48
			C66.65,586.11,68.35,586.06,69.97,585.63z"/>
		
			<linearGradient id="SVGID_65_" gradientUnits="userSpaceOnUse" x1="55.395" y1="70.07" x2="55.395" y2="83.23" gradientTransform="matrix(1 0 0 -1 12 645.3901)">
			<stop  offset="0" style="stop-color:#0D1209"/>
			<stop  offset="1" style="stop-color:#3B5436"/>
		</linearGradient>
		<path class="st80" d="M66.71,570.62c-2.37,1.87-4.96,3.45-7.71,4.7c5.51-0.78,10.33-4.11,13-9c0.8-0.8,1,1,1.51,1.18
			c-0.21-0.72-0.38-1.44-0.51-2.18c1.05,1.53,1.98,3.14,2.79,4.81c-0.41-2.73-0.81-5.41-0.94-8
			C72.61,565.38,69.86,568.24,66.71,570.62z"/>
		
			<linearGradient id="SVGID_66_" gradientUnits="userSpaceOnUse" x1="78.2329" y1="31.5201" x2="78.2329" y2="48.3801" gradientTransform="matrix(1 0 0 -1 12 645.3901)">
			<stop  offset="0" style="stop-color:#0D1209"/>
			<stop  offset="1" style="stop-color:#3B5436"/>
		</linearGradient>
		<path class="st81" d="M90.67,597.01c-0.76,2.04-1.32,4.16-1.67,6.31c-0.11,3.53-0.43,7.05-0.94,10.55h4.2
			C92.6,608.27,92.45,602.23,90.67,597.01z"/>
		
			<linearGradient id="SVGID_67_" gradientUnits="userSpaceOnUse" x1="68.2107" y1="31.5101" x2="68.2107" y2="58.73" gradientTransform="matrix(1 0 0 -1 12 645.3901)">
			<stop  offset="0" style="stop-color:#0D1209"/>
			<stop  offset="1" style="stop-color:#3B5436"/>
		</linearGradient>
		<path class="st82" d="M90.67,597.01c-1.33-4.32-4.21-8.01-8.08-10.35c-1.52,0.39-3.07,0.62-4.64,0.67c-3.2,2.48-5.91,5.53-8,9
			c-1,2,2,3,4,4c3.27,3.92,1.83,9.57,2.41,13.55h11.7c0.51-3.5,0.83-7.02,0.94-10.55C89.35,601.17,89.91,599.06,90.67,597.01z"/>
		
			<linearGradient id="SVGID_68_" gradientUnits="userSpaceOnUse" x1="93.38" y1="55.0701" x2="93.38" y2="56.1501" gradientTransform="matrix(1 0 0 -1 12 645.3901)">
			<stop  offset="0" style="stop-color:#0D1209"/>
			<stop  offset="1" style="stop-color:#3B5436"/>
		</linearGradient>
		<path class="st83" d="M105.88,590.13c-0.34-0.31-0.69-0.6-1-0.89c0.03,0.36,0.08,0.73,0.17,1.08
			C105.32,590.24,105.6,590.17,105.88,590.13z"/>
		
			<linearGradient id="SVGID_69_" gradientUnits="userSpaceOnUse" x1="84.795" y1="31.5201" x2="84.795" y2="66.07" gradientTransform="matrix(1 0 0 -1 12 645.3901)">
			<stop  offset="0" style="stop-color:#0D1209"/>
			<stop  offset="1" style="stop-color:#3B5436"/>
		</linearGradient>
		<path class="st84" d="M110.1,595.99c-0.89-2.28-2.35-4.29-4.22-5.86c-0.3,0.04-0.59,0.11-0.88,0.19
			c-0.09-0.35-0.14-0.72-0.17-1.08c-2-1.63-4.35-3.15-6.83-4.92c0,0-2-3-1-5c-0.79,0.14-1.56,0.3-2.34,0.48
			c-3.38,3.26-7.53,5.62-12.07,6.86c3.87,2.34,6.75,6.03,8.08,10.35c1.76-4.62,4.88-9,10.33-9.69c-5.45,0.68-8.57,5.07-10.33,9.69
			c1.78,5.22,1.93,11.26,1.59,16.86h5.81c2.73-1.55,5.79-2.42,8.93-2.55c-2-4-3-10,4-10c-0.01-0.7-0.05-1.4-0.13-2.1
			C110.31,598.78,110.21,597.47,110.1,595.99z"/>
		
			<linearGradient id="SVGID_70_" gradientUnits="userSpaceOnUse" x1="98.485" y1="46.17" x2="98.485" y2="49.4" gradientTransform="matrix(1 0 0 -1 12 645.3901)">
			<stop  offset="0" style="stop-color:#0D1209"/>
			<stop  offset="1" style="stop-color:#3B5436"/>
		</linearGradient>
		<path class="st85" d="M110.87,599.22c-0.12-1.1-0.38-2.19-0.77-3.23C110.21,597.47,110.31,598.78,110.87,599.22z"/>
		
			<linearGradient id="SVGID_71_" gradientUnits="userSpaceOnUse" x1="50.69" y1="31.5201" x2="50.69" y2="62.48" gradientTransform="matrix(1 0 0 -1 12 645.3901)">
			<stop  offset="0" style="stop-color:#0D1209"/>
			<stop  offset="1" style="stop-color:#3B5436"/>
		</linearGradient>
		<path class="st86" d="M74,600.32c-2-1-5-2-4-4c2.09-3.47,4.8-6.52,8-9c-0.67,0.04-1.33,0.04-2,0c0.38-1.44,0.62-2.92,0.72-4.41
			c-0.66,1.29-1.57,2.44-2.68,3.37c0.32,0,0.63,0,1,0h-1l0,0c-1.38-0.07-2.74-0.29-4.07-0.65c-1.63,0.43-3.34,0.49-5,0.17
			c-11.16,2.19-16.12,8.81-17.59,17.15c0.53,3.61,0.73,7.27,0.61,10.92h28.4C75.79,609.89,77.27,604.24,74,600.32z"/>
		
			<linearGradient id="SVGID_72_" gradientUnits="userSpaceOnUse" x1="35.4668" y1="31.5201" x2="35.4668" y2="42.4401" gradientTransform="matrix(1 0 0 -1 12 645.3901)">
			<stop  offset="0" style="stop-color:#0D1209"/>
			<stop  offset="1" style="stop-color:#3B5436"/>
		</linearGradient>
		<path class="st87" d="M47.4,602.95c-0.58,3.61-0.67,7.29-0.25,10.92h0.86C48.13,610.22,47.93,606.56,47.4,602.95z"/>
		
			<linearGradient id="SVGID_73_" gradientUnits="userSpaceOnUse" x1="39.05" y1="42.4401" x2="39.05" y2="65.46" gradientTransform="matrix(1 0 0 -1 12 645.3901)">
			<stop  offset="0" style="stop-color:#0D1209"/>
			<stop  offset="1" style="stop-color:#3B5436"/>
		</linearGradient>
		<path class="st88" d="M64.99,585.8c-3.33-0.7-6.43-2.24-9-4.48c-0.3-0.4-0.37-0.92-0.2-1.39c-3.17,2.46-7.27,3.39-11.2,2.54
			c-2,1.91-2.95,4.37-4.59,6.84c-0.92,0.45-1.89,0.79-2.89,1c6.65,1.71,9.27,6.84,10.29,12.6C48.87,594.61,53.79,587.99,64.99,585.8
			z"/>
		
			<linearGradient id="SVGID_74_" gradientUnits="userSpaceOnUse" x1="12.2" y1="31.52" x2="12.2" y2="67.17" gradientTransform="matrix(1 0 0 -1 12 645.3901)">
			<stop  offset="0" style="stop-color:#0D1209"/>
			<stop  offset="1" style="stop-color:#3B5436"/>
		</linearGradient>
		<path class="st89" d="M47.4,602.95c-1-5.76-3.64-10.89-10.29-12.6c-4.12,0.87-7.37-1.15-11.09-3.41c-1,0.45-2.29,0.64-3,1.38
			c0.72-0.64,1.46-1.26,2.2-1.88l-0.2-0.12l0.2,0.12l0.31-0.27c-2.51-0.44-5-1.69-7.51-0.85c-1.83-1.83-5.31-3.66-5.14-7
			c-0.8,0-1.64,0-2.5-0.1c-2.4,0.39-6.27,3.67-8.11,5.11c11.12-1.63,20.25,5.37,20.25,5.37s-4.25-3-8.25-2
			c-2.89,0.85-5.63,2.12-8.15,3.77c0,0,6,3.13,4.63,4.5c-7.25,3.6-9.25-5.9-9.25-5.9l-0.27,13.55c1.3-0.15,2.61,0.09,3.77,0.7v4
			c5,0,10,3,14-2c1-3-1-5-2-8c2,0,3-4,5-3c6,5,10-1,14-3c-4,2-8,8-14,3c-2-1-3,3-5,3c1,3,3,5,2,8c-4,5-9,2-14,2v-4
			c-1.16-0.61-2.47-0.85-3.77-0.7L1,613.87h46.15C46.73,610.24,46.82,606.56,47.4,602.95z"/>
		
			<linearGradient id="SVGID_75_" gradientUnits="userSpaceOnUse" x1="95.99" y1="49.4001" x2="95.99" y2="55.3247" gradientTransform="matrix(1 0 0 -1 12 645.3901)">
			<stop  offset="0" style="stop-color:#0D1209"/>
			<stop  offset="1" style="stop-color:#3B5436"/>
		</linearGradient>
		<path class="st90" d="M105.88,590.13c1.87,1.57,3.33,3.58,4.22,5.86C109.9,593.11,109.65,589.54,105.88,590.13z"/>
		
			<linearGradient id="SVGID_76_" gradientUnits="userSpaceOnUse" x1="105.02" y1="45.1643" x2="105.02" y2="67.4403" gradientTransform="matrix(1 0 0 -1 12 645.3901)">
			<stop  offset="0" style="stop-color:#0D1209"/>
			<stop  offset="1" style="stop-color:#3B5436"/>
		</linearGradient>
		<path class="st91" d="M125,589.32c0.2,0.31,0.43,0.58,0.65,0.86c-0.28-2,1.28-4.1,3.58-6.3c-0.85-3.4-4-7.31-7.87-5.45
			c-2.92,4.49-6.71,2-11.36,3.89c-2.73,0-5.45,3.31-5.17,6.92c0.36,0.29,0.71,0.58,1,0.89c3.77-0.59,4,3,4.22,5.86
			c0.39,1.04,0.65,2.13,0.77,3.23l0.13,0.1c1.49,0.93,3.32,1.16,5,0.62C116.28,594.28,122.06,593.23,125,589.32z"/>
		
			<linearGradient id="SVGID_77_" gradientUnits="userSpaceOnUse" x1="105.11" y1="45.46" x2="105.11" y2="47.07" gradientTransform="matrix(1 0 0 -1 12 645.3901)">
			<stop  offset="0" style="stop-color:#0D1209"/>
			<stop  offset="1" style="stop-color:#3B5436"/>
		</linearGradient>
		<path class="st92" d="M116.05,599.93c0.75-0.26,1.47-0.62,2.12-1.07c-0.06-0.19-0.11-0.37-0.17-0.54
			C117.07,598.39,116.29,599.03,116.05,599.93z"/>
		
			<linearGradient id="SVGID_78_" gradientUnits="userSpaceOnUse" x1="108.88" y1="45.45" x2="108.88" y2="56.07" gradientTransform="matrix(1 0 0 -1 12 645.3901)">
			<stop  offset="0" style="stop-color:#0D1209"/>
			<stop  offset="1" style="stop-color:#3B5436"/>
		</linearGradient>
		<path class="st93" d="M125.79,590.87c-0.08-0.22-0.14-0.45-0.17-0.69c-0.22-0.28-0.45-0.55-0.65-0.86c-2.94,3.91-8.72,5-9,10.62
			l0,0c0.24-0.9,1.02-1.54,1.95-1.61c0.06,0.17,0.11,0.35,0.17,0.54C120.79,597.1,123.27,593.92,125.79,590.87z"/>
		
			<linearGradient id="SVGID_79_" gradientUnits="userSpaceOnUse" x1="115.541" y1="54.7801" x2="115.541" y2="61.5101" gradientTransform="matrix(1 0 0 -1 12 645.3901)">
			<stop  offset="0" style="stop-color:#0D1209"/>
			<stop  offset="1" style="stop-color:#3B5436"/>
		</linearGradient>
		<path class="st94" d="M129,587.32c0.53-1.07,0.61-2.31,0.23-3.44c-2.3,2.2-3.86,4.26-3.58,6.3l0.38,0.43
			C127,589.47,127.99,588.33,129,587.32z"/>
		
			<linearGradient id="SVGID_80_" gradientUnits="userSpaceOnUse" x1="113.84" y1="54.52" x2="113.84" y2="55.21" gradientTransform="matrix(1 0 0 -1 12 645.3901)">
			<stop  offset="0" style="stop-color:#0D1209"/>
			<stop  offset="1" style="stop-color:#3B5436"/>
		</linearGradient>
		<path class="st95" d="M126.03,590.61l-0.38-0.43c0.03,0.24,0.09,0.47,0.17,0.69L126.03,590.61z"/>
		
			<linearGradient id="SVGID_81_" gradientUnits="userSpaceOnUse" x1="116.385" y1="49.17" x2="116.385" y2="54.78" gradientTransform="matrix(1 0 0 -1 12 645.3901)">
			<stop  offset="0" style="stop-color:#0D1209"/>
			<stop  offset="1" style="stop-color:#3B5436"/>
		</linearGradient>
		<path class="st96" d="M126.03,590.61l-0.21,0.26c0.05,0.15,0.11,0.31,0.18,0.45c1.27,2.54,2.74,4,4.32,4.68
			c-0.1-0.23-0.21-0.45-0.32-0.68c0.11,0.23,0.22,0.45,0.32,0.68c0.21,0.09,0.42,0.16,0.63,0.22
			C130.09,593.78,127.89,592.65,126.03,590.61z"/>
		
			<linearGradient id="SVGID_82_" gradientUnits="userSpaceOnUse" x1="110.5541" y1="48.9663" x2="110.5541" y2="83.5585" gradientTransform="matrix(1 0 0 -1 12 645.3901)">
			<stop  offset="0" style="stop-color:#0D1209"/>
			<stop  offset="1" style="stop-color:#3B5436"/>
		</linearGradient>
		<path class="st97" d="M146.88,568.6c-0.91-0.15-1.83-0.23-2.75-0.25c-1.09,0.14-2.15,0.48-3.13,1c0.98-0.52,2.04-0.86,3.13-1
			c-1.37-0.04-2.73,0.2-4,0.72c-0.62-2.75,4-5.13,4-5.13c-9.25-5.87-27.37,2.38-27.37,2.38c-4.5-6.13-9-2-11.25-1.88
			c-0.33,0-0.65-0.11-0.91-0.32c-1.94,5.98-5.36,11.37-9.93,15.68c0.78-0.18,1.55-0.34,2.34-0.48c-1,2,1,5,1,5
			c2.48,1.77,4.83,3.29,6.83,4.92c-0.28-3.61,2.44-6.92,5.17-6.92c4.65-1.86,8.44,0.6,11.36-3.89c-0.49,0.24-0.95,0.54-1.36,0.89
			c0.41-0.35,0.87-0.65,1.36-0.89c0.23-0.36,0.45-0.73,0.64-1.11c-0.19,0.38-0.41,0.75-0.64,1.11c3.83-1.86,7,2,7.87,5.45
			c4.05-3.87,10.38-8.18,12.77-13.56c-2.39,5.38-8.72,9.69-12.77,13.56c0.38,1.13,0.3,2.37-0.23,3.44c-1,1-2,2.14-3,3.29
			c1.86,2,4.06,3.17,4.92,5.61c7,2,15.87-11.17,19.05-19.9C151.27,572.47,149.71,569.52,146.88,568.6z"/>
		
			<linearGradient id="SVGID_83_" gradientUnits="userSpaceOnUse" x1="104.0448" y1="45.0701" x2="104.0448" y2="45.46" gradientTransform="matrix(1 0 0 -1 12 645.3901)">
			<stop  offset="0" style="stop-color:#0D1209"/>
			<stop  offset="1" style="stop-color:#3B5436"/>
		</linearGradient>
		<path class="st98" d="M116.05,599.93L116.05,599.93c0,0.13,0,0.24,0,0.38C116.04,600.18,116.04,600.06,116.05,599.93z"/>
		
			<linearGradient id="SVGID_84_" gradientUnits="userSpaceOnUse" x1="200.52" y1="78.81" x2="200.52" y2="81.08" gradientTransform="matrix(1 0 0 -1 12 645.3901)">
			<stop  offset="0" style="stop-color:#0D1209"/>
			<stop  offset="1" style="stop-color:#3B5436"/>
		</linearGradient>
		<path class="st99" d="M212.29,564.31c0.12,0.75,0.27,1.51,0.46,2.27C212.67,565.81,212.51,565.05,212.29,564.31z"/>
		
			<linearGradient id="SVGID_85_" gradientUnits="userSpaceOnUse" x1="262.575" y1="60.15" x2="262.575" y2="61.47" gradientTransform="matrix(1 0 0 -1 12 645.3901)">
			<stop  offset="0" style="stop-color:#0D1209"/>
			<stop  offset="1" style="stop-color:#3B5436"/>
		</linearGradient>
		<path class="st100" d="M268.1,585.24c4.29-0.54,8.62-0.76,12.95-0.65C276.7,583.7,272.25,583.47,268.1,585.24z"/>
		
			<linearGradient id="SVGID_86_" gradientUnits="userSpaceOnUse" x1="279.795" y1="56.6291" x2="279.795" y2="60.8" gradientTransform="matrix(1 0 0 -1 12 645.3901)">
			<stop  offset="0" style="stop-color:#0D1209"/>
			<stop  offset="1" style="stop-color:#3B5436"/>
		</linearGradient>
		<path class="st101" d="M281.05,584.59c8.67,1.79,16.92,6.23,21.49,3.06c-1.11-0.62-2.3-1.07-3.54-1.33
			C293.06,585.34,287.07,584.76,281.05,584.59z"/>
		
			<linearGradient id="SVGID_87_" gradientUnits="userSpaceOnUse" x1="453.755" y1="31.5201" x2="453.755" y2="97.0038" gradientTransform="matrix(1 0 0 -1 12 645.3901)">
			<stop  offset="0" style="stop-color:#0D1209"/>
			<stop  offset="1" style="stop-color:#3B5436"/>
		</linearGradient>
		<path class="st102" d="M541,598.32c33-1,62.94-18,87.93-38c-0.91,0-1.43,0.07-1.43,0.07c-9.38-12.37-33.88-9.75-33.88-9.75
			c-5.25-5-15.5-0.12-15.5-0.12l-2.62-2l-3.13,2.75l-3.25,3.37l-5.75-1.87l-4.37,1.7l-3.88-4c-1.9,1.38-4.53,1.11-6.12-0.62
			c-3-3-63.13,14.12-63.13,14.12l-1.62-1.12l3.12-4.13l-0.75-1.5l-6,5.75l-0.62-1.25l2.62-3.87v-4.88c0,0-3.87,5.5-5.37,8.38
			c-1.11-0.42-2.04-1.22-2.63-2.25c-0.62-1.5,2.63-5.25,2.63-5.25L474,554.1l-2.63,5.87l-1.12-4.87l-2.5,4.5l-7.88-7.13l3.88,8
			l-12.38-10.62l3.42,6.72l-2.5,0.12l-4.25-6.87l-2.13,4.5l-1.5-3.63l-3.12,5.5l-4.75-0.37c0,0-0.5,5.5-16.38,3.75
			s-17.59,6.19-24.87,5.62c-32.25-2.5-39,6.13-41.25,4.5s-31.63,7.13-34.25,9.38c-1.61,1.37-8.58-2.44-13.88-5.29
			c2.22,4.27,1.85,8.82-2.87,13.54c-0.15,0.12-0.3,0.22-0.46,0.33c8.39,4.61,14.62,18.39,8.46,23.67c-0.89,0.93-1.87,1.79-2.91,2.55
			h131.34c-9.83-20.66-23.51-43-46.47-48.55c23,5.51,36.64,27.89,46.47,48.55h84.43C526.25,605.4,532.98,598.32,541,598.32z
			 M429,594.32c15-23,42-11,64-15C471,583.32,444,571.32,429,594.32L429,594.32z M492,579.32c19-1,38-1,55,8c-1,1,1,3-1,3
			c2,0,0-2,1-3C530,578.32,511,578.32,492,579.32L492,579.32z"/>
		
			<linearGradient id="SVGID_88_" gradientUnits="userSpaceOnUse" x1="233.91" y1="52.0701" x2="233.91" y2="52.92" gradientTransform="matrix(1 0 0 -1 12 645.3901)">
			<stop  offset="0" style="stop-color:#0D1209"/>
			<stop  offset="1" style="stop-color:#3B5436"/>
		</linearGradient>
		<path class="st103" d="M247.11,592.47c-0.69,0.11-1.38,0.2-2.06,0.25l-1,0.6h3.72C247.51,593.03,247.3,592.75,247.11,592.47z"/>
		<polygon class="st104" points="598,579.82 571,579.82 571,583.32 560.25,583.32 560.25,588.82 550,588.82 550,592.57 540,592.57 
			540,598.82 528,598.82 528,603.82 518.75,603.82 518.75,612.82 598,612.82 		"/>
		
			<linearGradient id="SVGID_89_" gradientUnits="userSpaceOnUse" x1="646.4501" y1="31.5201" x2="646.4501" y2="89.696" gradientTransform="matrix(1 0 0 -1 12 645.3901)">
			<stop  offset="0" style="stop-color:#0D1209"/>
			<stop  offset="1" style="stop-color:#3B5436"/>
		</linearGradient>
		<path class="st105" d="M793,558.69c0,0-20.25,4.33-21.75,3.63c-26.48-12.4-63.2-3.93-87.63-2.13
			c-25.37,1.88-32.37,8.13-32.37,8.13c-8.16-7.45-18.58-8-22.32-8c-25,20-55,37-87.93,38c-8,0-14.75,7.08-17.1,15.55H793L793,558.69
			z"/>
		
			<linearGradient id="SVGID_90_" gradientUnits="userSpaceOnUse" x1="204.67" y1="64.41" x2="204.67" y2="84.0701" gradientTransform="matrix(1 0 0 -1 12 645.3901)">
			<stop  offset="0" style="stop-color:#0D1209"/>
			<stop  offset="1" style="stop-color:#3B5436"/>
		</linearGradient>
		<path class="st106" d="M216,561.32h-0.32c-1.15,1.88-2.06,3.89-2.71,6c1.49,5,4.01,9.64,7.4,13.62
			C217.24,574.89,215.73,568.13,216,561.32z"/>
		
			<linearGradient id="SVGID_91_" gradientUnits="userSpaceOnUse" x1="249.4311" y1="52.599" x2="249.4311" y2="93.1014" gradientTransform="matrix(1 0 0 -1 12 645.3901)">
			<stop  offset="0" style="stop-color:#0D1209"/>
			<stop  offset="1" style="stop-color:#3B5436"/>
		</linearGradient>
		<path class="st107" d="M305.87,573.78c-3.36-1.82-6.05-3.25-6.25-2.71c-0.5,1.37-10.37,2-9.37-0.13s8.12,0.13,6.37-1.62
			s-7.12,0.25-7.12,0.25l-15.38-0.88c-2.25-3.87-16-1.62-16-1.62c0.25-11.13-16.5-2.63-16.5-2.63c-5.75-5.25-8.87-2-8.87-2
			c-13.88-20.12-12.25-4.12-12.25-4.12c-2-0.36-3.57,1.15-4.82,3H216c-0.28,6.82,1.23,13.6,4.37,19.66
			c6.08,7.22,14.91,12.49,24.68,11.74c7.13-3.96,14.96-6.5,23.05-7.48c4.15-1.76,8.6-1.54,12.95-0.65
			c6.02,0.17,12.01,0.75,17.95,1.73c1.24,0.26,2.43,0.71,3.54,1.33c0.16-0.11,0.31-0.21,0.46-0.33
			C307.72,582.6,308.09,578.05,305.87,573.78z"/>
		
			<linearGradient id="SVGID_92_" gradientUnits="userSpaceOnUse" x1="267.2674" y1="31.5201" x2="267.2674" y2="60.8258" gradientTransform="matrix(1 0 0 -1 12 645.3901)">
			<stop  offset="0" style="stop-color:#0D1209"/>
			<stop  offset="1" style="stop-color:#3B5436"/>
		</linearGradient>
		<path class="st108" d="M302.54,587.65c-4.57,3.17-12.82-1.27-21.49-3.06c-4.33-0.11-8.66,0.11-12.95,0.65
			c-0.73,0.3-1.43,0.67-2.1,1.08c0.67-0.41,1.37-0.78,2.1-1.08c-8.1,0.98-15.92,3.52-23.05,7.48c0.68,0,1.37-0.14,2.06-0.25
			l-0.11-0.15l0.11,0.15l0.89-0.15c9-2,18-7,28-7c-10,0-19,5-28,7l-0.89,0.15c0.19,0.28,0.4,0.56,0.61,0.85l0,0
			c1.29,1.75,2.7,3.42,4.2,5H252l0.08,0.17c6.34,6.52,13.89,11.74,22.22,15.38h33.79c1.04-0.76,2.02-1.62,2.91-2.55
			C317.16,606.04,310.93,592.26,302.54,587.65z"/>
		
			<linearGradient id="SVGID_93_" gradientUnits="userSpaceOnUse" x1="240" y1="46.9001" x2="240" y2="47.0701" gradientTransform="matrix(1 0 0 -1 12 645.3901)">
			<stop  offset="0" style="stop-color:#0D1209"/>
			<stop  offset="1" style="stop-color:#3B5436"/>
		</linearGradient>
		<path class="st109" d="M251.92,598.33l0.16,0.16l-0.08-0.17L251.92,598.33z"/>
		
			<linearGradient id="SVGID_94_" gradientUnits="userSpaceOnUse" x1="224.12" y1="46.5962" x2="224.12" y2="64.4" gradientTransform="matrix(1 0 0 -1 12 645.3901)">
			<stop  offset="0" style="stop-color:#0D1209"/>
			<stop  offset="1" style="stop-color:#3B5436"/>
		</linearGradient>
		<path class="st110" d="M251.92,598.33c-1.5-1.58-2.91-3.25-4.2-5H244l1-0.6c-9.77,0.75-18.6-4.52-24.68-11.74
			C226.25,592.47,237.6,600.9,251.92,598.33z"/>
		
			<linearGradient id="SVGID_95_" gradientUnits="userSpaceOnUse" x1="197.605" y1="82.3101" x2="197.605" y2="83.34" gradientTransform="matrix(1 0 0 -1 12 645.3901)">
			<stop  offset="0" style="stop-color:#0D1209"/>
			<stop  offset="1" style="stop-color:#3B5436"/>
		</linearGradient>
		<path class="st111" d="M208.17,563.08c1-0.28,1.92-0.54,2.87-0.77C210.16,561.73,209.11,562.2,208.17,563.08z"/>
		
			<linearGradient id="SVGID_96_" gradientUnits="userSpaceOnUse" x1="153.705" y1="48.9578" x2="153.705" y2="51.86" gradientTransform="matrix(1 0 0 -1 12 645.3901)">
			<stop  offset="0" style="stop-color:#0D1209"/>
			<stop  offset="1" style="stop-color:#3B5436"/>
		</linearGradient>
		<path class="st112" d="M168.41,593.53c-1.69,0.89-3.48,1.7-5.26,2.52l-0.15,0.27C165.9,596.9,167.12,595.12,168.41,593.53z"/>
		
			<linearGradient id="SVGID_97_" gradientUnits="userSpaceOnUse" x1="158.205" y1="51.86" x2="158.205" y2="54.0701" gradientTransform="matrix(1 0 0 -1 12 645.3901)">
			<stop  offset="0" style="stop-color:#0D1209"/>
			<stop  offset="1" style="stop-color:#3B5436"/>
		</linearGradient>
		<path class="st113" d="M168.41,593.53c1.25-0.65,2.45-1.38,3.59-2.21C170.32,591.32,169.35,592.38,168.41,593.53z"/>
		
			<linearGradient id="SVGID_98_" gradientUnits="userSpaceOnUse" x1="200.9541" y1="31.5201" x2="200.9541" y2="83.1" gradientTransform="matrix(1 0 0 -1 12 645.3901)">
			<stop  offset="0" style="stop-color:#0D1209"/>
			<stop  offset="1" style="stop-color:#3B5436"/>
		</linearGradient>
		<path class="st114" d="M253,603.32c-18.56,0-35.59,5.09-52.91,10.55h74.21c-8.33-3.65-15.88-8.88-22.22-15.4
			c0.55,1.2,0.87,2.51,0.92,3.83c-0.05-1.32-0.37-2.63-0.92-3.83l-0.16-0.16c-14.32,2.57-25.67-5.89-31.55-17.35
			c-3.39-3.98-5.91-8.62-7.4-13.62c-0.06,0.21-0.1,0.33-0.1,0.33c0-0.4-0.07-0.76-0.12-1.11c-0.19-0.76-0.34-1.52-0.46-2.27
			c-0.18-0.79-0.62-1.49-1.25-2c-0.95,0.23-1.91,0.49-2.87,0.77c-1.17,1.12-2,2.54-2.42,4.11c-0.68-1.09-2.86-1.47-4.69-1.6
			c-15.67,6.42-31,18.42-37.91,30.46c1.78-0.82,3.57-1.63,5.26-2.52c0.94-1.15,1.91-2.21,3.59-2.21c-1.14,0.83-2.34,1.56-3.59,2.21
			c-1.29,1.59-2.51,3.37-5.41,2.79l0.15-0.27c-6.8,3.18-13.21,6.67-11.15,16.27c3.12-0.51,6.32,0.03,9.09,1.55h39
			C217.41,608.41,234.44,603.32,253,603.32z"/>
		
			<linearGradient id="SVGID_99_" gradientUnits="userSpaceOnUse" x1="137.585" y1="31.52" x2="137.585" y2="88.92" gradientTransform="matrix(1 0 0 -1 12 645.3901)">
			<stop  offset="0" style="stop-color:#0D1209"/>
			<stop  offset="1" style="stop-color:#3B5436"/>
		</linearGradient>
		<path class="st115" d="M152,612.32c-2.06-9.6,4.35-13.09,11.15-16.27c6.9-12,22.24-24,37.91-30.46c-0.94-0.05-1.87-0.05-2.81,0
			c-6.5-7.13-8.13,1.37-8.13,1.37l-0.69-0.47c-3.32,4.37-7.5,7.85-13.43,7.85c-1,0-1,2-1,4c-9-1-21,10-25-1c4,11,16,0,25,1
			c0-2,0-4,1-4c5.93,0,10.11-3.48,13.43-7.85c-16.12-11-18.81-5.53-18.81-5.53l-8.83-4.49l1.25,7.25c0,0-8.38-1.75-8.75-0.12
			s8.62,2.5,8.12,4.12s-5,1.63-5,1.63s6,1.75,4.25,3.25c-1.27,1.09-8.24-2.92-14.74-4c2.83,0.92,4.39,3.91,3.12,7.72
			c-3.18,8.73-12,21.87-19.05,19.9c0.02,0.03,0.04,0.06,0.05,0.1c-0.01-0.04-0.03-0.07-0.05-0.1c-0.21-0.06-0.42-0.13-0.63-0.22
			c3.33,7.6-2.52,12.29-9.32,11.32c-0.94,0-1.89-5.34-2.83-8.46c-0.65,0.45-1.37,0.81-2.12,1.07c-0.03,0.13-0.05,0.26-0.05,0.39
			c0-0.14,0-0.25,0-0.38c-1.68,0.54-3.51,0.31-5-0.62l-0.13-0.1c0.08,0.7,0.12,1.4,0.13,2.1c-7,0-6,6-4,10
			c-3.14,0.13-6.2,1-8.93,2.55h63C158.33,612.35,155.12,611.8,152,612.32z"/>
		
			<linearGradient id="SVGID_100_" gradientUnits="userSpaceOnUse" x1="112.7261" y1="37.9501" x2="112.7261" y2="54.52" gradientTransform="matrix(1 0 0 -1 12 645.3901)">
			<stop  offset="0" style="stop-color:#0D1209"/>
			<stop  offset="1" style="stop-color:#3B5436"/>
		</linearGradient>
		<path class="st116" d="M126,591.32c-0.07-0.14-0.13-0.3-0.18-0.45c-2.55,3.05-5,6.23-7.65,8c0.94,3.12,1.89,8.46,2.83,8.46
			c6.8,1,12.65-3.72,9.32-11.32C128.79,595.34,127.27,593.86,126,591.32z"/>
		
			<linearGradient id="SVGID_101_" gradientUnits="userSpaceOnUse" x1="77.7" y1="58.0124" x2="77.7" y2="92.57" gradientTransform="matrix(1 0 0 -1 12 645.3901)">
			<stop  offset="0" style="stop-color:#0D1209"/>
			<stop  offset="1" style="stop-color:#3B5436"/>
		</linearGradient>
		<path class="st117" d="M104.59,564.12c-2-1.42-4.14-7-6.09-6.68c-2.25,0.38-1.75,4.63-3.25,5.13c-1.06,0.28-2.19,0.28-3.25,0
			c-2.5-7.25,1.75-6.75,1.75-6.75v-3l-8.5,0.62h-3.63c0,0-0.12,4.88-3.12,4.13l-0.45-0.14c-1,1.59-2.1,3.19-3.24,4.73
			c0.13,2.56,0.53,5.24,0.94,8c2,4.13,3,8.78,1,12.78c-0.1,1.49-0.34,2.97-0.72,4.41c0.67,0.04,1.33,0.04,2,0
			c4.94-3.72,10.65-6.29,16.71-7.53C99.28,575.49,102.67,570.09,104.59,564.12z"/>
		
			<linearGradient id="SVGID_102_" gradientUnits="userSpaceOnUse" x1="74.305" y1="58.0601" x2="74.305" y2="65.59" gradientTransform="matrix(1 0 0 -1 12 645.3901)">
			<stop  offset="0" style="stop-color:#0D1209"/>
			<stop  offset="1" style="stop-color:#3B5436"/>
		</linearGradient>
		<path class="st118" d="M77.95,587.33c1.57-0.05,3.12-0.28,4.64-0.67L82,586.32l0.59,0.34c4.54-1.24,8.69-3.6,12.07-6.86
			C88.6,581.04,82.89,583.61,77.95,587.33z"/>
		
			<linearGradient id="SVGID_103_" gradientUnits="userSpaceOnUse" x1="54.6835" y1="59.7601" x2="54.6835" y2="79.2846" gradientTransform="matrix(1 0 0 -1 12 645.3901)">
			<stop  offset="0" style="stop-color:#0D1209"/>
			<stop  offset="1" style="stop-color:#3B5436"/>
		</linearGradient>
		<path class="st119" d="M73.51,567.47c-0.55-0.22-0.71-2-1.51-1.18c-2.67,4.89-7.49,8.22-13,9c-0.34,1.42-1.09,2.7-2.15,3.7
			c4.35,2.67,8.46,5.39,13.12,6.61c1.97-0.56,3.72-1.72,5-3.31C78.52,578.79,75.06,572.94,73.51,567.47z"/>
		
			<linearGradient id="SVGID_104_" gradientUnits="userSpaceOnUse" x1="50.245" y1="70.0701" x2="50.245" y2="74.7701" gradientTransform="matrix(1 0 0 -1 12 645.3901)">
			<stop  offset="0" style="stop-color:#0D1209"/>
			<stop  offset="1" style="stop-color:#3B5436"/>
		</linearGradient>
		<path class="st120" d="M59,574.32c-0.17,0.32-0.37,0.63-0.6,0.91c0.19,0.06,0.4,0.09,0.6,0.09c2.75-1.25,5.34-2.83,7.71-4.7
			c-2.58,1.89-5.56,3.16-8.71,3.7c-0.07,0.2-0.14,0.4-0.22,0.6c0.18,0.14,0.4,0.25,0.62,0.31C58.63,574.95,58.83,574.64,59,574.32z"
			/>
		
			<linearGradient id="SVGID_105_" gradientUnits="userSpaceOnUse" x1="44.185" y1="68.6001" x2="44.185" y2="93.3101" gradientTransform="matrix(1 0 0 -1 12 645.3901)">
			<stop  offset="0" style="stop-color:#0D1209"/>
			<stop  offset="1" style="stop-color:#3B5436"/>
		</linearGradient>
		<path class="st121" d="M65.12,553.07h-1.33l-7.5,5.12l-4.88,5.75l-2.25-0.25c0,0-4,2.13-4.87,5.25c-0.31,1.11-1.88,1.49-3.79,1.53
			c-0.97,1.72-2.1,3.34-3.37,4.85h1.91c3-0.61,4.93-0.11,6,1.47c0-0.52,0-1,0-1.47c3-1,5-3,8-4c3.32-0.83,3.2,2.46,4.78,3.6
			c0.08-0.2,0.15-0.4,0.22-0.6c3.15-0.54,6.13-1.81,8.71-3.7c3.12-2.45,5.83-5.37,8.04-8.66c-0.11-1.97,0.04-3.95,0.45-5.88
			c-2.07-1.22-4.08-2.56-6-4L65.12,553.07z M51,564.32c1,2-2,5,1,7C49,569.32,52,566.32,51,564.32z"/>
		
			<linearGradient id="SVGID_106_" gradientUnits="userSpaceOnUse" x1="64.0923" y1="83.4301" x2="64.0923" y2="89.3101" gradientTransform="matrix(1 0 0 -1 12 645.3901)">
			<stop  offset="0" style="stop-color:#0D1209"/>
			<stop  offset="1" style="stop-color:#3B5436"/>
		</linearGradient>
		<path class="st122" d="M74.79,561.96c1.02-1.5,1.91-3.1,2.64-4.76c-0.75-0.33-1.48-0.71-2.19-1.12
			C74.83,558.01,74.68,559.99,74.79,561.96z"/>
		
			<linearGradient id="SVGID_107_" gradientUnits="userSpaceOnUse" x1="62.54" y1="59.0701" x2="62.54" y2="59.11" gradientTransform="matrix(1 0 0 -1 12 645.3901)">
			<stop  offset="0" style="stop-color:#0D1209"/>
			<stop  offset="1" style="stop-color:#3B5436"/>
		</linearGradient>
		<path class="st123" d="M74.04,586.28L74.04,586.28h1C74.67,586.32,74.36,586.3,74.04,586.28z"/>
		
			<linearGradient id="SVGID_108_" gradientUnits="userSpaceOnUse" x1="14.155" y1="72.0701" x2="14.155" y2="82.4501" gradientTransform="matrix(1 0 0 -1 12 645.3901)">
			<stop  offset="0" style="stop-color:#0D1209"/>
			<stop  offset="1" style="stop-color:#3B5436"/>
		</linearGradient>
		<path class="st124" d="M30.37,562.94l-5.12,2.38l-0.23-0.28c-2.54,2.12-4.3,5.04-5,8.28c4.09,0,8.18-2.68,12.27-4.2L30.37,562.94z
			"/>
		
			<linearGradient id="SVGID_109_" gradientUnits="userSpaceOnUse" x1="12.5" y1="57.0701" x2="12.5" y2="58.9501" gradientTransform="matrix(1 0 0 -1 12 645.3901)">
			<stop  offset="0" style="stop-color:#0D1209"/>
			<stop  offset="1" style="stop-color:#3B5436"/>
		</linearGradient>
		<path class="st125" d="M23,588.32c0.73-0.74,2-0.93,3-1.38l-0.82-0.5C24.46,587.06,23.72,587.68,23,588.32z"/>
		
			<linearGradient id="SVGID_110_" gradientUnits="userSpaceOnUse" x1="14.11" y1="58.45" x2="14.11" y2="59.22" gradientTransform="matrix(1 0 0 -1 12 645.3901)">
			<stop  offset="0" style="stop-color:#0D1209"/>
			<stop  offset="1" style="stop-color:#3B5436"/>
		</linearGradient>
		<path class="st126" d="M25.51,586.17l-0.31,0.27l0.82,0.5c0.37-0.14,0.71-0.35,1-0.62C26.51,586.32,26.01,586.27,25.51,586.17z"/>
		
			<linearGradient id="SVGID_111_" gradientUnits="userSpaceOnUse" x1="9.355" y1="59.22" x2="9.355" y2="85.2001" gradientTransform="matrix(1 0 0 -1 12 645.3901)">
			<stop  offset="0" style="stop-color:#0D1209"/>
			<stop  offset="1" style="stop-color:#3B5436"/>
		</linearGradient>
		<path class="st127" d="M32.37,569.47l-0.1-0.32c-4.09,1.52-8.18,4.2-12.27,4.2c0.7-3.24,2.46-6.16,5-8.28l-2.52-3.1l-9.5-1.75
			l-5.19,2.6c0,0,10.5,2,9.87,4.62c-1.5-0.37-6.75,0-6.75,0l-8.66,7.63c0,0,9.12,1,8.87,3.12c-0.25-0.04-0.51-0.04-0.76,0
			c0.86,0.07,1.7,0.1,2.5,0.1c0.01-0.34,0.06-0.67,0.14-1c2-1,3-4,6-4c-3,0-4,3-6,4c-0.08,0.33-0.13,0.66-0.14,1l0,0
			c-0.17,3.35,3.31,5.18,5.14,7c2.5-0.84,5,0.41,7.51,0.85c4.09-3.45,8.24-6.82,11.58-10.85l0,0c1.27-1.5,2.4-3.11,3.37-4.82
			C37.74,570.42,35.02,570.08,32.37,569.47z"/>
		
			<linearGradient id="SVGID_112_" gradientUnits="userSpaceOnUse" x1="23.2524" y1="54.8298" x2="23.2524" y2="70.3221" gradientTransform="matrix(1 0 0 -1 12 645.3901)">
			<stop  offset="0" style="stop-color:#0D1209"/>
			<stop  offset="1" style="stop-color:#3B5436"/>
		</linearGradient>
		<path class="st128" d="M44.99,576.79c-1.06-1.58-3-2.08-6-1.47h-1.9c-3.34,4-7.49,7.4-11.58,10.85c0.49,0.09,0.99,0.15,1.49,0.15
			c-0.29,0.27-0.63,0.48-1,0.62c4.54,2.76,8.39,5.17,14,2.38c1.64-2.47,2.63-4.93,4.59-6.84L44,582.32
			C44.7,580.56,45.04,578.68,44.99,576.79z"/>
		
			<linearGradient id="SVGID_113_" gradientUnits="userSpaceOnUse" x1="32.9999" y1="62.91" x2="32.9999" y2="68.6" gradientTransform="matrix(1 0 0 -1 12 645.3901)">
			<stop  offset="0" style="stop-color:#0D1209"/>
			<stop  offset="1" style="stop-color:#3B5436"/>
		</linearGradient>
		<path class="st129" d="M44.99,576.79c0.05,1.89-0.29,3.77-1,5.53l0.59,0.16c0.43-0.43,0.9-0.82,1.41-1.16
			C46.1,579.75,45.75,578.17,44.99,576.79z"/>
		
			<linearGradient id="SVGID_114_" gradientUnits="userSpaceOnUse" x1="39.795" y1="62.5667" x2="39.795" y2="74.2166" gradientTransform="matrix(1 0 0 -1 12 645.3901)">
			<stop  offset="0" style="stop-color:#0D1209"/>
			<stop  offset="1" style="stop-color:#3B5436"/>
		</linearGradient>
		<path class="st130" d="M59,575.32c-3,0-2-5-6-4c-3,1-5,3-8,4c0,0.44,0,0.95,0,1.47c0.76,1.38,1.11,2.96,1,4.53
			c-0.51,0.34-0.98,0.72-1.41,1.15C50.52,584.04,58.03,580.15,59,575.32z"/>
	</g>
	<path id="Top_leaves" class="st131" d="M62.79,1.87l0.87,1.7h4.63c0,0,0.67,1.08,1.12,1.12s1.25-1.41,1.25-1.41
		s-0.2,0.16,0.88,1.41s2.12-1.41,2.12-1.41s-2.25,4.7,0,4.29s4.5-2.85,4.5-2.85s1.46,3,1.38,3.64s-0.15-0.21-0.88,1
		c-0.61,1.25-0.7,2.69-0.25,4c0.34,1.12,0.4,1,1.63,1c1.64-0.02,3.2-0.7,4.33-1.89c1.07-1.29,0-3.12,0-3.12s2,1.46,3.25,0.62
		c0.87-0.8,1.48-1.85,1.75-3c0.45,0.47,0.72,1.1,0.75,1.75c-0.08,0.86-2.2,2.44-2.25,3.25s1.25,0.63,1.25,0.63
		c-0.87,0.42-1.63,1.01-2.25,1.75c-0.81,1.08-1.16,0.56-1.5,3.62s-0.23,3.92,0.5,8s0.8,4.13,1.5,4.75s1.5,0.9,2.25,0
		s2.34-8.1,2.75-8.25s0.71,1.71,1.38,1.5s0-4,0-4s3.24,3.22,4,3.75s2.31,1.48,2.5,2.38c0.13,0.41,0.13,0.84,0,1.25
		c0,0-3.46,1.22-3.75,2.22s0.17,1.91-0.25,2.75c-0.42,0.84-1.27-0.11-1.38,1c-0.05,0.64,0.38,1.22,1,1.37l-1,1.75
		c0,0-0.79,1-0.75,1.5s1.13,0.75,1.13,0.75s-0.79-0.56-1.5,1.38s1,1,1.37,1.75s-1,2.08,0.25,3.5s1.88,2.15,3.63,1.75
		c1.06-0.26,1.94-1,2.37-2c0,0,0.38,4,1.38,5.12s1.77,2.52,2.87,2.13s0.88-9,0.88-9s4,7.08,5.5,7s1.37-4.5,1.37-4.5
		s-2-2.84-1.62-3.5s2.37-0.25,2.37-0.25l-1.33-1.75l1.37-1.25c-0.12-0.72-0.47-1.38-1-1.88c-0.75-0.48-2,0.17-3-0.37
		s-0.12-4.23-0.87-4.75s-4.25-0.23-4.75-0.5s-4.13-9.25-4.13-9.25l0.13-1.38l4.5,0.5c0,0,2.52,3.48,3.62,3.63s2.25-2,2.25-2
		s4.9,3.33,5.63,3.12s0-1.75,0-1.75l-7.88-5.12l1.25-1.25l-0.37-2.75l-2.25-0.13l-0.25-1.25l-3.5-0.37l-3.63-0.38l-1.25,2l2.88,3.75
		l-2.13,0.13c0,0-4-10.29-3.87-11c0.24-0.66,0.63-1.25,1.12-1.75c1.75,1.32,3.59,2.53,5.5,3.62c1.78,0.74,3.71,1.05,5.63,0.88
		c0.45-0.36,0.64-0.95,0.5-1.5c-0.15-0.42-4.15-1.73-4.38-2.75c-0.18-0.52,0.03-1.09,0.5-1.38l2.21,1.28c0,0,1.32-0.23,1.63-0.62
		s-0.5-2.63-0.5-2.63L110,2.97c0,0-0.52,2,0.62,2s1.5-1.25,1.5-1.25l1.38-0.5l0.37,1.5c0,0,2.44-0.58,2.63,0
		c0.33,2.15-2,2.13-2.25,2.88c-0.27,0.64-0.12,1.38,0.37,1.87c0.48,0.36,2.63-0.25,2.63-0.25v1.25c0,0-1.79,1.77-1.75,3.13
		s1.75,1.25,1.75,1.25s-0.83,1.41-0.63,2.12s2.42,3,3.38,3s3.73-2.39,3.75-3.12c-0.16-1.1-0.41-2.19-0.75-3.25c0,0,3,0.14,3.5-0.63
		S124,9.85,124,9.85s-1.23-3.94-0.75-3.88s2,2.25,2,2.25c0.65,0.22,1.35,0.22,2,0c0.85-0.39,0-2.62,0-2.62l-1.75-2l0.12-1.13
		l1.63,0.88l1,1.12h1.12v-1.4l-0.87-1.2l3.29,2.07v3.38h2.25c0,1.26,0.29,2.5,0.87,3.62c0.86,1.17,1.38,0,1.38,0l1.25,0.5
		c0.39,0.59,1.04,0.96,1.75,1c0.39,0.29,1.12,0,1.12,0v-1.62c0,0-2.08-0.36-2-1.13s2-1.12,2-1.12s0.25-2,0.88-2
		c0.45,0.04,0.85,0.26,1.12,0.62l1.63-0.12V3.82l1.25,0.75l1.5-0.63V2.32l2.75-0.45c-1.7,2.11-3.28,4.32-4.75,6.6
		c-1.15,2-2,5.67-1.63,6.13s3.25,0,3.25,0l6.75-4.5v3.25c0,0,1.34,1.06,1.38,1.87s-1.42,1.25-1.42,1.25s-0.48,4.17,0.5,4.25
		s4.38-3.5,4.38-3.5s2.67-0.62,2.87,0.5s-1.37,2.75-1.37,2.75l1.37,6.66c0,0,0.27,2.32,1,2.34s2.92-1.79,3.75-1.5
		s0.75,3.25,0.75,3.25l7-7.25l1-4.25c0,0-1.75-1.48-1.5-2.12s3.63-0.38,3.63-0.38v-1.65l-2-1.75l2.62-0.5l-2.87-2.75l2.25-0.13
		l-3.63-3.62l4.25-1L172,1.87h10.62l5.63,5.6L190,6.6l-2-3.75l5-0.38l4.37,2.88l1.25-1.5V1.87H62.79z"/>
	<g id="Left_top_leaves">
		
			<linearGradient id="SVGID_115_" gradientUnits="userSpaceOnUse" x1="-0.6175" y1="-232.4425" x2="2.8925" y2="-228.9324" gradientTransform="matrix(1 0 0 -1 0 -26.0499)">
			<stop  offset="0" style="stop-color:#0D1209"/>
			<stop  offset="0.52" style="stop-color:#6E8434"/>
			<stop  offset="1" style="stop-color:#A7C2AC"/>
		</linearGradient>
		<polygon class="st132" points="1.64,208.65 1.7,201.69 0,201.26 		"/>
		
			<linearGradient id="SVGID_116_" gradientUnits="userSpaceOnUse" x1="8.8255" y1="462.5587" x2="17.8659" y2="471.6092" gradientTransform="matrix(1 0 0 -1 12 645.3901)">
			<stop  offset="0" style="stop-color:#0D1209"/>
			<stop  offset="0.52" style="stop-color:#6E8434"/>
			<stop  offset="1" style="stop-color:#A7C2AC"/>
		</linearGradient>
		<path class="st133" d="M25,171.25l-5.33,3.79c0,4.11,0.82,8.16,4,10.5l10.67-7.29L25,171.25z"/>
		
			<linearGradient id="SVGID_117_" gradientUnits="userSpaceOnUse" x1="-10.0433" y1="467.7534" x2="-3.3433" y2="474.4634" gradientTransform="matrix(1 0 0 -1 12 645.3901)">
			<stop  offset="0" style="stop-color:#0D1209"/>
			<stop  offset="0.52" style="stop-color:#6E8434"/>
			<stop  offset="1" style="stop-color:#A7C2AC"/>
		</linearGradient>
		<path class="st134" d="M5.34,179.9l7.66-4.65l-11-6.33l-0.08,8.68C3.86,177.11,4.47,178.84,5.34,179.9z"/>
		
			<linearGradient id="SVGID_118_" gradientUnits="userSpaceOnUse" x1="7.55" y1="457.48" x2="8.43" y2="458.36" gradientTransform="matrix(1 0 0 -1 12 645.3901)">
			<stop  offset="0" style="stop-color:#0D1209"/>
			<stop  offset="0.52" style="stop-color:#6E8434"/>
			<stop  offset="1" style="stop-color:#A7C2AC"/>
		</linearGradient>
		<path class="st135" d="M20.73,187.61c-0.65-0.07-1.28-0.21-1.9-0.42c0.73,0.35,1.52,0.54,2.32,0.56L20.73,187.61z"/>
		
			<linearGradient id="SVGID_119_" gradientUnits="userSpaceOnUse" x1="2.935" y1="459.675" x2="10.645" y2="467.385" gradientTransform="matrix(1 0 0 -1 12 645.3901)">
			<stop  offset="0" style="stop-color:#0D1209"/>
			<stop  offset="0.52" style="stop-color:#6E8434"/>
			<stop  offset="1" style="stop-color:#A7C2AC"/>
		</linearGradient>
		<path class="st136" d="M23.66,185.54c-3.17-2.34-3.95-6.39-4-10.5l-9,6.4c2.74,2.23,5.1,4.74,8.17,5.75
			c-2.89-1.36-4.22-4.8-7.16-5.53c2.94,0.73,4.27,4.17,7.16,5.53c0.62,0.21,1.25,0.35,1.9,0.42h-0.06L23.66,185.54z"/>
		
			<linearGradient id="SVGID_120_" gradientUnits="userSpaceOnUse" x1="0.9125" y1="453.5475" x2="9.2525" y2="461.8875" gradientTransform="matrix(1 0 0 -1 12 645.3901)">
			<stop  offset="0" style="stop-color:#0D1209"/>
			<stop  offset="0.52" style="stop-color:#6E8434"/>
			<stop  offset="1" style="stop-color:#A7C2AC"/>
		</linearGradient>
		<path class="st137" d="M18.17,195.92l0.18-0.11c-2.17-5.45-6.73-8.44-7.68-14.15c0.95,5.71,5.51,8.7,7.68,14.15l9.32-5.89
			l-6.52-2.17c-0.8-0.02-1.59-0.21-2.32-0.56c-3.07-1-5.43-3.52-8.17-5.75l-0.62,0.44c1.67,5.92,4.7,11.38,8.84,15.93L18.17,195.92z
			"/>
		
			<linearGradient id="SVGID_121_" gradientUnits="userSpaceOnUse" x1="-2.4716" y1="447.8424" x2="-0.2616" y2="450.0624" gradientTransform="matrix(1 0 0 -1 12 645.3901)">
			<stop  offset="0" style="stop-color:#0D1209"/>
			<stop  offset="0.52" style="stop-color:#6E8434"/>
			<stop  offset="1" style="stop-color:#A7C2AC"/>
		</linearGradient>
		<path class="st138" d="M17.65,201.24c-5-2.37-9.13-6.6-13.58-10.06C7.89,195.59,11.45,201.52,17.65,201.24z"/>
		
			<linearGradient id="SVGID_122_" gradientUnits="userSpaceOnUse" x1="6.6725" y1="443.1276" x2="8.0625" y2="444.5175" gradientTransform="matrix(1 0 0 -1 12 645.3901)">
			<stop  offset="0" style="stop-color:#0D1209"/>
			<stop  offset="0.52" style="stop-color:#6E8434"/>
			<stop  offset="1" style="stop-color:#A7C2AC"/>
		</linearGradient>
		<path class="st139" d="M20.61,202.37l-0.58-1.52c-0.78,0.22-1.57,0.35-2.38,0.39C18.61,201.69,19.6,202.07,20.61,202.37z"/>
		
			<linearGradient id="SVGID_123_" gradientUnits="userSpaceOnUse" x1="-6.8575" y1="440.2575" x2="2.2575" y2="449.3726" gradientTransform="matrix(1 0 0 -1 12 645.3901)">
			<stop  offset="0" style="stop-color:#0D1209"/>
			<stop  offset="0.52" style="stop-color:#6E8434"/>
			<stop  offset="1" style="stop-color:#A7C2AC"/>
		</linearGradient>
		<path class="st140" d="M22.33,206.92l-1.72-4.55c-1.03-0.3-2.03-0.67-3-1.13c-6.2,0.28-9.76-5.65-13.58-10.06
			c-0.74-0.57-1.49-1.13-2.26-1.65L1.7,201.69L22.33,206.92z"/>
		
			<linearGradient id="SVGID_124_" gradientUnits="userSpaceOnUse" x1="-5.7392" y1="451.3949" x2="2.2008" y2="459.3449" gradientTransform="matrix(1 0 0 -1 12 645.3901)">
			<stop  offset="0" style="stop-color:#0D1209"/>
			<stop  offset="0.52" style="stop-color:#6E8434"/>
			<stop  offset="1" style="stop-color:#A7C2AC"/>
		</linearGradient>
		<path class="st141" d="M2.67,189.66c0.47,0.47,0.94,1,1.4,1.52c4.45,3.46,8.61,7.69,13.58,10.06c0.81-0.04,1.6-0.17,2.38-0.39
			l-1.15-3c-4.14-4.55-7.17-10.01-8.84-15.93l-8,5.71v-5.67l3.34-2c-0.87-1.06-1.48-2.79-3.42-2.3l-0.17,11.87
			c0.77,0.52,1.52,1.08,2.26,1.65C3.61,190.65,3.14,190.13,2.67,189.66z"/>
		
			<linearGradient id="SVGID_125_" gradientUnits="userSpaceOnUse" x1="-10.6245" y1="424.3846" x2="-4.6445" y2="430.3646" gradientTransform="matrix(1 0 0 -1 12 645.3901)">
			<stop  offset="0" style="stop-color:#0D1209"/>
			<stop  offset="0.52" style="stop-color:#6E8434"/>
			<stop  offset="1" style="stop-color:#A7C2AC"/>
		</linearGradient>
		<path class="st142" d="M7.9,215.59c-2.36,0.96-4.51,2.35-6.36,4.1v1.48C3.71,219.23,6.07,217.65,7.9,215.59z"/>
		
			<linearGradient id="SVGID_126_" gradientUnits="userSpaceOnUse" x1="-2.7811" y1="434.6512" x2="-0.3111" y2="437.1111" gradientTransform="matrix(1 0 0 -1 12 645.3901)">
			<stop  offset="0" style="stop-color:#0D1209"/>
			<stop  offset="0.52" style="stop-color:#6E8434"/>
			<stop  offset="1" style="stop-color:#A7C2AC"/>
		</linearGradient>
		<path class="st143" d="M12.67,210.25l-2-3l-3.16,1.78c1.56,0.6,2.93,1.78,4.51,2.33L12.67,210.25z"/>
		
			<linearGradient id="SVGID_127_" gradientUnits="userSpaceOnUse" x1="-12.28" y1="427.5301" x2="-2.88" y2="436.9301" gradientTransform="matrix(1 0 0 -1 12 645.3901)">
			<stop  offset="0" style="stop-color:#0D1209"/>
			<stop  offset="0.52" style="stop-color:#6E8434"/>
			<stop  offset="1" style="stop-color:#A7C2AC"/>
		</linearGradient>
		<path class="st144" d="M8.67,214.66c-0.25,0.32-0.5,0.63-0.77,0.93c0.65-0.26,1.32-0.46,2-0.62l2.08-3.61
			c-1.58-0.55-3-1.73-4.51-2.33l-2.18,1.22H2l-0.36-1.6l-0.1,11c1.85-1.75,4-3.14,6.36-4.1C8.17,215.29,8.42,214.98,8.67,214.66z"/>
		
			<linearGradient id="SVGID_128_" gradientUnits="userSpaceOnUse" x1="-10.5474" y1="421.0574" x2="-1.6174" y2="429.9774" gradientTransform="matrix(1 0 0 -1 12 645.3901)">
			<stop  offset="0" style="stop-color:#0D1209"/>
			<stop  offset="0.52" style="stop-color:#6E8434"/>
			<stop  offset="1" style="stop-color:#A7C2AC"/>
		</linearGradient>
		<path class="st145" d="M9.67,218.66c-0.42,0.33-0.84,0.64-1.27,1c0.5-0.27,1-0.53,1.52-0.78L9,216.63l0.94-1.62
			c-0.68,0.16-1.35,0.36-2,0.62c-1.83,2.06-4.19,3.64-6.37,5.58v3.21c2.15-1.8,4.46-3.39,6.9-4.76
			C8.79,219.3,9.25,218.99,9.67,218.66z"/>
		
			<linearGradient id="SVGID_129_" gradientUnits="userSpaceOnUse" x1="-10.225" y1="420.215" x2="-4.125" y2="426.315" gradientTransform="matrix(1 0 0 -1 12 645.3901)">
			<stop  offset="0" style="stop-color:#0D1209"/>
			<stop  offset="0.52" style="stop-color:#6E8434"/>
			<stop  offset="1" style="stop-color:#A7C2AC"/>
		</linearGradient>
		<path class="st146" d="M1.5,224.38v0.52c2.2-1.93,4.61-3.55,6.9-5.28C5.96,220.99,3.65,222.58,1.5,224.38z"/>
		
			<linearGradient id="SVGID_130_" gradientUnits="userSpaceOnUse" x1="-9.63" y1="416.3701" x2="-0.77" y2="425.23" gradientTransform="matrix(1 0 0 -1 12 645.3901)">
			<stop  offset="0" style="stop-color:#0D1209"/>
			<stop  offset="0.52" style="stop-color:#6E8434"/>
			<stop  offset="1" style="stop-color:#A7C2AC"/>
		</linearGradient>
		<path class="st147" d="M12.12,224.26l-2.2-5.42c-0.52,0.25-1,0.51-1.52,0.78c-2.29,1.73-4.7,3.35-6.9,5.28v3.21
			C4.37,225.44,8.2,224.05,12.12,224.26z"/>
		
			<linearGradient id="SVGID_131_" gradientUnits="userSpaceOnUse" x1="-8.9824" y1="413.3224" x2="-0.5387" y2="421.7762" gradientTransform="matrix(1 0 0 -1 12 645.3901)">
			<stop  offset="0" style="stop-color:#0D1209"/>
			<stop  offset="0.52" style="stop-color:#6E8434"/>
			<stop  offset="1" style="stop-color:#A7C2AC"/>
		</linearGradient>
		<path class="st148" d="M6,227.25h7.33l-1.21-3c-3.93-0.22-7.77,1.18-10.65,3.86v2.39c1.06-0.89,2.34-1.49,3.71-1.74L6,227.25z"/>
		
			<linearGradient id="SVGID_132_" gradientUnits="userSpaceOnUse" x1="-10.3275" y1="405.1275" x2="0.6625" y2="416.1176" gradientTransform="matrix(1 0 0 -1 12 645.3901)">
			<stop  offset="0" style="stop-color:#0D1209"/>
			<stop  offset="0.52" style="stop-color:#6E8434"/>
			<stop  offset="1" style="stop-color:#A7C2AC"/>
		</linearGradient>
		<path class="st149" d="M16.58,235.37l0.59-1.45l-3.5-3.67H4.33l0.83-1.49c-1.36,0.24-2.64,0.83-3.71,1.71l-0.09,9.45
			C6.62,240.34,11.39,235.79,16.58,235.37z"/>
		
			<linearGradient id="SVGID_133_" gradientUnits="userSpaceOnUse" x1="-11.6825" y1="397.5319" x2="2.6872" y2="411.9116" gradientTransform="matrix(1 0 0 -1 12 645.3901)">
			<stop  offset="0" style="stop-color:#0D1209"/>
			<stop  offset="0.52" style="stop-color:#6E8434"/>
			<stop  offset="1" style="stop-color:#A7C2AC"/>
		</linearGradient>
		<path class="st150" d="M15,239.25l1.58-3.88c-5.19,0.42-10,5-15.22,4.58l-0.08,8.87c4.44-3.51,9.18-6.6,14.18-9.25L15,239.25z"/>
		
			<linearGradient id="SVGID_134_" gradientUnits="userSpaceOnUse" x1="5.7425" y1="391.2575" x2="7.0825" y2="392.5975" gradientTransform="matrix(1 0 0 -1 12 645.3901)">
			<stop  offset="0" style="stop-color:#0D1209"/>
			<stop  offset="0.52" style="stop-color:#6E8434"/>
			<stop  offset="1" style="stop-color:#A7C2AC"/>
		</linearGradient>
		<path class="st151" d="M16.32,252.71c1.26,0.81,2.69,1.33,4.18,1.51C19.22,253.45,17.8,252.93,16.32,252.71z"/>
		
			<linearGradient id="SVGID_135_" gradientUnits="userSpaceOnUse" x1="3.7575" y1="392.6325" x2="4.0575" y2="392.9326" gradientTransform="matrix(1 0 0 -1 12 645.3901)">
			<stop  offset="0" style="stop-color:#0D1209"/>
			<stop  offset="0.52" style="stop-color:#6E8434"/>
			<stop  offset="1" style="stop-color:#A7C2AC"/>
		</linearGradient>
		<path class="st152" d="M15.79,252.2c0,0.15-0.08,0.3-0.11,0.46c0.22,0,0.43,0,0.65,0.05C16.13,252.56,15.95,252.39,15.79,252.2z"
			/>
		
			<linearGradient id="SVGID_136_" gradientUnits="userSpaceOnUse" x1="25.875" y1="378.725" x2="41.825" y2="394.675" gradientTransform="matrix(1 0 0 -1 12 645.3901)">
			<stop  offset="0" style="stop-color:#0D1209"/>
			<stop  offset="0.52" style="stop-color:#6E8434"/>
			<stop  offset="1" style="stop-color:#A7C2AC"/>
		</linearGradient>
		<path class="st153" d="M56.33,256.92L40,251.59l-12,5.2c2.84,1.09,4.55,3.77,6.38,6.33l-0.35-0.53l8.33,1.66l11,4.34l10.34-8
			L56.33,256.92z"/>
		
			<linearGradient id="SVGID_137_" gradientUnits="userSpaceOnUse" x1="-4.9021" y1="369.9129" x2="12.7025" y2="387.5175" gradientTransform="matrix(1 0 0 -1 12 645.3901)">
			<stop  offset="0" style="stop-color:#0D1209"/>
			<stop  offset="0.52" style="stop-color:#6E8434"/>
			<stop  offset="1" style="stop-color:#A7C2AC"/>
		</linearGradient>
		<path class="st154" d="M15.67,256.66c2.17-0.54,4-1.38,5.95-1.87l-1.12-0.57c-1.49-0.18-2.92-0.7-4.18-1.51
			c-0.22,0-0.43-0.05-0.65-0.05c0-0.16,0.07-0.31,0.11-0.46c-0.23-0.26-0.4-0.57-0.5-0.9c-0.52,0.49-1.06,1-1.63,1.4
			c0.34,0,0.68,0,1,0c-0.34,0-0.68,0-1,0c-3.77,2.74-7.98,4.79-12.46,6.06v1.1c4-2.73,9-4.26,13.49-6.2
			c-4.53,1.94-9.48,3.47-13.49,6.2l-0.08,9.49c5.08,6.15,14,9.86,23.24,11.5l2.66-4.26h1.41C25.57,269.39,18.94,264.03,15.67,256.66
			z"/>
		
			<linearGradient id="SVGID_138_" gradientUnits="userSpaceOnUse" x1="-4.8375" y1="360.6975" x2="5.6625" y2="371.1975" gradientTransform="matrix(1 0 0 -1 12 645.3901)">
			<stop  offset="0" style="stop-color:#0D1209"/>
			<stop  offset="0.52" style="stop-color:#6E8434"/>
			<stop  offset="1" style="stop-color:#A7C2AC"/>
		</linearGradient>
		<path class="st155" d="M1.1,269.35v2.54c6.64,6.19,9.08,15.17,14.91,21.62l5-1.26l1-7.66l2.34-3.74
			C15.1,279.21,6.18,275.47,1.1,269.35z"/>
		
			<linearGradient id="SVGID_139_" gradientUnits="userSpaceOnUse" x1="-17.495" y1="348.679" x2="-1.7886" y2="364.3754" gradientTransform="matrix(1 0 0 -1 12 645.3901)">
			<stop  offset="0" style="stop-color:#0D1209"/>
			<stop  offset="0.52" style="stop-color:#6E8434"/>
			<stop  offset="1" style="stop-color:#A7C2AC"/>
		</linearGradient>
		<path class="st156" d="M2,301.92l12.33-8l1.65-0.41c-5.83-6.45-8.27-15.43-14.91-21.62L0.79,303c0.55,0.37,1.16,0.65,1.8,0.82
			L2,301.92z"/>
		
			<linearGradient id="SVGID_140_" gradientUnits="userSpaceOnUse" x1="-16.6825" y1="305.8326" x2="-5.4875" y2="317.0275" gradientTransform="matrix(1 0 0 -1 12 645.3901)">
			<stop  offset="0" style="stop-color:#0D1209"/>
			<stop  offset="0.52" style="stop-color:#6E8434"/>
			<stop  offset="1" style="stop-color:#A7C2AC"/>
		</linearGradient>
		<path class="st157" d="M2,324.52c-0.48-0.67-0.93-1.36-1.38-2.05l-0.2,22.19H2V324.52z"/>
		
			<linearGradient id="SVGID_141_" gradientUnits="userSpaceOnUse" x1="-21.795" y1="263.595" x2="3.455" y2="288.845" gradientTransform="matrix(1 0 0 -1 12 645.3901)">
			<stop  offset="0" style="stop-color:#0D1209"/>
			<stop  offset="0.52" style="stop-color:#6E8434"/>
			<stop  offset="1" style="stop-color:#A7C2AC"/>
		</linearGradient>
		<path class="st158" d="M2,344.66H0.42L0,391.59l5.67,1.66L7,385.92H2v-31l5-2.67v-4.16H2V344.66z"/>
		
			<linearGradient id="SVGID_142_" gradientUnits="userSpaceOnUse" x1="-9" y1="319.8701" x2="6.8" y2="335.67" gradientTransform="matrix(1 0 0 -1 12 645.3901)">
			<stop  offset="0" style="stop-color:#0D1209"/>
			<stop  offset="0.52" style="stop-color:#6E8434"/>
			<stop  offset="1" style="stop-color:#A7C2AC"/>
		</linearGradient>
		<path class="st159" d="M16.33,317.92L3.67,307.25l-1.08-3.43c-0.64-0.17-1.25-0.45-1.8-0.82l-0.17,19.47
			c0.45,0.69,0.9,1.38,1.38,2.05v-0.27l11.33,2.67h13l0.67-9H16.33z"/>
		
			<linearGradient id="SVGID_143_" gradientUnits="userSpaceOnUse" x1="9.17" y1="390.5" x2="10.26" y2="391.5901" gradientTransform="matrix(1 0 0 -1 12 645.3901)">
			<stop  offset="0" style="stop-color:#0D1209"/>
			<stop  offset="0.52" style="stop-color:#6E8434"/>
			<stop  offset="1" style="stop-color:#A7C2AC"/>
		</linearGradient>
		<path class="st160" d="M22.97,254.47c-0.82-0.07-1.66-0.16-2.47-0.29l1.12,0.57C22.06,254.63,22.52,254.54,22.97,254.47z"/>
		
			<linearGradient id="SVGID_144_" gradientUnits="userSpaceOnUse" x1="10.9122" y1="374.2979" x2="21.0822" y2="384.4779" gradientTransform="matrix(1 0 0 -1 12 645.3901)">
			<stop  offset="0" style="stop-color:#0D1209"/>
			<stop  offset="0.52" style="stop-color:#6E8434"/>
			<stop  offset="1" style="stop-color:#A7C2AC"/>
		</linearGradient>
		<path class="st161" d="M38,268.59l-3.65-5.47c-1.83-2.56-3.54-5.24-6.38-6.33l-0.3,0.13l-4.22-2.37h-0.48
			c-0.45,0.07-0.91,0.16-1.35,0.28c0.66,0.34,1.35,0.63,2.05,0.87c-0.7-0.24-1.39-0.53-2.05-0.87c-1.91,0.49-3.78,1.33-5.95,1.87
			c3.27,7.37,9.9,12.73,12.74,19.93H39L38,268.59z"/>
		
			<linearGradient id="SVGID_145_" gradientUnits="userSpaceOnUse" x1="-11.45" y1="387.6" x2="5.62" y2="404.67" gradientTransform="matrix(1 0 0 -1 12 645.3901)">
			<stop  offset="0" style="stop-color:#0D1209"/>
			<stop  offset="0.52" style="stop-color:#6E8434"/>
			<stop  offset="1" style="stop-color:#A7C2AC"/>
		</linearGradient>
		<path class="st162" d="M15.28,251.3c-0.23-0.9-0.09-1.85,0.39-2.64c0.87-2.34,1.92-4.61,3.12-6.79l-3.31-2.3
			c-5,2.65-9.76,5.74-14.2,9.25l-0.09,9.65c3.45-3.17,7.81-5.18,12.46-5.74C14.22,252.26,14.79,251.79,15.28,251.3z"/>
		
			<linearGradient id="SVGID_146_" gradientUnits="userSpaceOnUse" x1="-9.2825" y1="385.1025" x2="-0.0225" y2="394.3625" gradientTransform="matrix(1 0 0 -1 12 645.3901)">
			<stop  offset="0" style="stop-color:#0D1209"/>
			<stop  offset="0.52" style="stop-color:#6E8434"/>
			<stop  offset="1" style="stop-color:#A7C2AC"/>
		</linearGradient>
		<path class="st163" d="M13.65,252.7c-4.65,0.57-9.01,2.59-12.46,5.77v0.32C5.67,257.51,9.89,255.45,13.65,252.7z"/>
		
			<linearGradient id="SVGID_147_" gradientUnits="userSpaceOnUse" x1="4.125" y1="396.1251" x2="8.205" y2="400.205" gradientTransform="matrix(1 0 0 -1 12 645.3901)">
			<stop  offset="0" style="stop-color:#0D1209"/>
			<stop  offset="0.52" style="stop-color:#6E8434"/>
			<stop  offset="1" style="stop-color:#A7C2AC"/>
		</linearGradient>
		<path class="st164" d="M16.67,249.81c1.3-1.53,2.32-3.29,3-5.18C18.66,246.34,17.51,248.03,16.67,249.81z"/>
		
			<linearGradient id="SVGID_148_" gradientUnits="userSpaceOnUse" x1="11.07" y1="390.78" x2="11.29" y2="391" gradientTransform="matrix(1 0 0 -1 12 645.3901)">
			<stop  offset="0" style="stop-color:#0D1209"/>
			<stop  offset="0.52" style="stop-color:#6E8434"/>
			<stop  offset="1" style="stop-color:#A7C2AC"/>
		</linearGradient>
		<path class="st165" d="M23.29,254.47h-0.32h0.48H23.29z"/>
		
			<linearGradient id="SVGID_149_" gradientUnits="userSpaceOnUse" x1="7.4168" y1="389.5168" x2="24.5068" y2="406.6068" gradientTransform="matrix(1 0 0 -1 12 645.3901)">
			<stop  offset="0" style="stop-color:#0D1209"/>
			<stop  offset="0.52" style="stop-color:#6E8434"/>
			<stop  offset="1" style="stop-color:#A7C2AC"/>
		</linearGradient>
		<path class="st166" d="M26,239.59l-4.86,1.94c-0.4,1.08-0.9,2.12-1.49,3.1c-0.68,1.89-1.7,3.65-3,5.18
			c-0.38,0.76-0.68,1.57-0.89,2.39c0.16,0.19,0.34,0.36,0.54,0.51c1.48,0.22,2.9,0.74,4.18,1.51c0.81,0.13,1.65,0.22,2.47,0.29h0.32
			l-1-0.54l6.67-2h7l4-9.67L26,239.59z"/>
		
			<linearGradient id="SVGID_150_" gradientUnits="userSpaceOnUse" x1="7.1342" y1="401.2781" x2="9.4324" y2="403.5663" gradientTransform="matrix(1 0 0 -1 12 645.3901)">
			<stop  offset="0" style="stop-color:#0D1209"/>
			<stop  offset="0.52" style="stop-color:#6E8434"/>
			<stop  offset="1" style="stop-color:#A7C2AC"/>
		</linearGradient>
		<path class="st167" d="M21.14,241.53l-0.75,0.3c-0.17,0.95-0.42,1.89-0.74,2.8C20.24,243.65,20.74,242.61,21.14,241.53z"/>
		
			<linearGradient id="SVGID_151_" gradientUnits="userSpaceOnUse" x1="1.8157" y1="395.5743" x2="9.0957" y2="402.8543" gradientTransform="matrix(1 0 0 -1 12 645.3901)">
			<stop  offset="0" style="stop-color:#0D1209"/>
			<stop  offset="0.52" style="stop-color:#6E8434"/>
			<stop  offset="1" style="stop-color:#A7C2AC"/>
		</linearGradient>
		<path class="st168" d="M16.67,249.81c0.84-1.78,2-3.47,3-5.18c0.32-0.91,0.57-1.85,0.74-2.8l-1.06,0.42l-0.56-0.38
			c-1.2,2.18-2.23,4.45-3.1,6.79c-0.48,0.79-0.62,1.74-0.39,2.64C15.78,250.83,16.24,250.33,16.67,249.81z"/>
		
			<linearGradient id="SVGID_152_" gradientUnits="userSpaceOnUse" x1="3.4037" y1="393.5687" x2="5.0537" y2="395.2087" gradientTransform="matrix(1 0 0 -1 12 645.3901)">
			<stop  offset="0" style="stop-color:#0D1209"/>
			<stop  offset="0.52" style="stop-color:#6E8434"/>
			<stop  offset="1" style="stop-color:#A7C2AC"/>
		</linearGradient>
		<path class="st169" d="M16.67,249.81c-0.43,0.52-0.9,1.02-1.39,1.49c0.1,0.33,0.27,0.64,0.5,0.9
			C15.99,251.38,16.29,250.57,16.67,249.81z"/>
	</g>
</g>
<g id="Lanterns">
	<g id="Lantern2">
		<g id="Lamp">
			<circle class="st170" cx="597.04" cy="466.99" r="10.17"/>
			
				<linearGradient id="SVGID_153_" gradientUnits="userSpaceOnUse" x1="584.5347" y1="178.1161" x2="592.2047" y2="185.7761" gradientTransform="matrix(1 0 0 -1 12 645.3901)">
				<stop  offset="0.02" style="stop-color:#C7C3C3"/>
				<stop  offset="0.33" style="stop-color:#BFC6C5"/>
				<stop  offset="1" style="stop-color:#EDFFFE"/>
			</linearGradient>
			<path class="st171" d="M589.47,460.2c7.05,2.94,12.62,7.11,16.28,12c5.77-10.49-6.11-19.74-14.69-13.48L589.47,460.2z"/>
			
				<ellipse transform="matrix(0.9944 -0.1056 0.1056 0.9944 -46.9219 65.8288)" class="st172" cx="598.35" cy="476.14" rx="4.19" ry="1.19"/>
		</g>
		<g id="Stem">
			
				<linearGradient id="SVGID_154_" gradientUnits="userSpaceOnUse" x1="600.82" y1="-542.1" x2="604.8212" y2="-541.6099" gradientTransform="matrix(1 0 0 -1 0 -26.0499)">
				<stop  offset="0.02" style="stop-color:#2E0909"/>
				<stop  offset="0.24" style="stop-color:#310B0B"/>
				<stop  offset="0.38" style="stop-color:#3A1111"/>
				<stop  offset="0.51" style="stop-color:#491A1C"/>
				<stop  offset="0.57" style="stop-color:#532123"/>
			</linearGradient>
			<polygon class="st173" points="599.83,477.16 609.58,554.32 605.58,554.82 597.04,477.16 			"/>
			
				<linearGradient id="SVGID_155_" gradientUnits="userSpaceOnUse" x1="604.9488" y1="-582.1254" x2="611.0188" y2="-581.3754" gradientTransform="matrix(1 0 0 -1 0 -26.0499)">
				<stop  offset="0.02" style="stop-color:#2E0909"/>
				<stop  offset="0.24" style="stop-color:#310B0B"/>
				<stop  offset="0.38" style="stop-color:#3A1111"/>
				<stop  offset="0.51" style="stop-color:#491A1C"/>
				<stop  offset="0.57" style="stop-color:#532123"/>
			</linearGradient>
			<polygon class="st174" points="605,556.49 605.58,554.82 609.58,554.32 611.17,556.49 			"/>
			
				<linearGradient id="SVGID_156_" gradientUnits="userSpaceOnUse" x1="605.5936" y1="-598.9711" x2="613.0636" y2="-598.0511" gradientTransform="matrix(1 0 0 -1 0 -26.0499)">
				<stop  offset="0.02" style="stop-color:#2E0909"/>
				<stop  offset="0.24" style="stop-color:#310B0B"/>
				<stop  offset="0.38" style="stop-color:#3A1111"/>
				<stop  offset="0.51" style="stop-color:#491A1C"/>
				<stop  offset="0.57" style="stop-color:#532123"/>
			</linearGradient>
			<polygon class="st175" points="607.5,588.4 605,556.49 611.17,556.49 613.92,588.4 			"/>
		</g>
	</g>
	<g id="Lantern1">
		<g id="Lamp-2">
			<circle class="st170" cx="163.37" cy="492.65" r="10.17"/>
			
				<linearGradient id="SVGID_157_" gradientUnits="userSpaceOnUse" x1="234.0436" y1="139.6274" x2="241.7055" y2="147.2892" gradientTransform="matrix(0.9825 0.1864 0.1864 -0.9825 -93.1164 586.4047)">
				<stop  offset="0.02" style="stop-color:#C7C3C3"/>
				<stop  offset="0.33" style="stop-color:#BFC6C5"/>
				<stop  offset="1" style="stop-color:#EDFFFE"/>
			</linearGradient>
			<path class="st176" d="M157.2,484.57c6.37,4.2,11.07,9.33,13.74,14.87c7.62-9.23-2.32-20.53-11.92-16L157.2,484.57z"/>
			
				<ellipse transform="matrix(0.1115 -0.9938 0.9938 0.1115 -354.5437 607.0798)" class="st172" cx="162.22" cy="501.81" rx="1.19" ry="4.19"/>
		</g>
		
			<linearGradient id="SVGID_158_" gradientUnits="userSpaceOnUse" x1="154.0804" y1="-567.3969" x2="158.4004" y2="-568.007" gradientTransform="matrix(1 0 0 -1 0 -26.0499)">
			<stop  offset="0.02" style="stop-color:#2E0909"/>
			<stop  offset="0.17" style="stop-color:#310B0B"/>
			<stop  offset="0.26" style="stop-color:#3A1012"/>
			<stop  offset="0.35" style="stop-color:#491A1D"/>
			<stop  offset="0.42" style="stop-color:#5E272E"/>
			<stop  offset="0.49" style="stop-color:#7A3943"/>
			<stop  offset="0.56" style="stop-color:#9C4E5C"/>
			<stop  offset="0.57" style="stop-color:#A15160"/>
			<stop  offset="0.66" style="stop-color:#C35441"/>
		</linearGradient>
		<polygon class="st177" points="160.25,502.82 163.87,503.05 152.62,580.82 148.62,580.19 		"/>
		
			<linearGradient id="SVGID_159_" gradientUnits="userSpaceOnUse" x1="148.0486" y1="-607.4625" x2="153.198" y2="-608.1824" gradientTransform="matrix(1 0 0 -1 0 -26.0499)">
			<stop  offset="0.02" style="stop-color:#2E0909"/>
			<stop  offset="0.17" style="stop-color:#310B0B"/>
			<stop  offset="0.26" style="stop-color:#3A1012"/>
			<stop  offset="0.35" style="stop-color:#491A1D"/>
			<stop  offset="0.42" style="stop-color:#5E272E"/>
			<stop  offset="0.49" style="stop-color:#7A3943"/>
			<stop  offset="0.56" style="stop-color:#9C4E5C"/>
			<stop  offset="0.57" style="stop-color:#A15160"/>
			<stop  offset="0.66" style="stop-color:#C35441"/>
		</linearGradient>
		<polygon class="st178" points="147.87,582.69 153.12,582.69 152.62,580.82 148.62,580.19 		"/>
		
			<linearGradient id="SVGID_160_" gradientUnits="userSpaceOnUse" x1="145.3707" y1="-623.9751" x2="150.8707" y2="-624.7551" gradientTransform="matrix(1 0 0 -1 0 -26.0499)">
			<stop  offset="0.02" style="stop-color:#2E0909"/>
			<stop  offset="0.17" style="stop-color:#310B0B"/>
			<stop  offset="0.26" style="stop-color:#3A1012"/>
			<stop  offset="0.35" style="stop-color:#491A1D"/>
			<stop  offset="0.42" style="stop-color:#5E272E"/>
			<stop  offset="0.49" style="stop-color:#7A3943"/>
			<stop  offset="0.56" style="stop-color:#9C4E5C"/>
			<stop  offset="0.57" style="stop-color:#A15160"/>
			<stop  offset="0.66" style="stop-color:#C35441"/>
		</linearGradient>
		<polygon class="st179" points="143.12,613.94 147.87,582.69 153.12,582.69 148.62,613.94 		"/>
	</g>
</g>
</svg>
